%TF.GenerationSoftware,KiCad,Pcbnew,(7.0.0)*%
%TF.CreationDate,2023-03-21T11:28:41+02:00*%
%TF.ProjectId,EEE3088_design_project,45454533-3038-4385-9f64-657369676e5f,1.0*%
%TF.SameCoordinates,Original*%
%TF.FileFunction,Legend,Top*%
%TF.FilePolarity,Positive*%
%FSLAX46Y46*%
G04 Gerber Fmt 4.6, Leading zero omitted, Abs format (unit mm)*
G04 Created by KiCad (PCBNEW (7.0.0)) date 2023-03-21 11:28:41*
%MOMM*%
%LPD*%
G01*
G04 APERTURE LIST*
%ADD10C,0.150000*%
%ADD11C,0.120000*%
%ADD12C,0.254000*%
%ADD13C,0.059995*%
%ADD14C,0.152400*%
%ADD15C,0.300000*%
G04 APERTURE END LIST*
D10*
%TO.C,U7*%
X173482095Y-139123380D02*
X173482095Y-139932904D01*
X173482095Y-139932904D02*
X173529714Y-140028142D01*
X173529714Y-140028142D02*
X173577333Y-140075761D01*
X173577333Y-140075761D02*
X173672571Y-140123380D01*
X173672571Y-140123380D02*
X173863047Y-140123380D01*
X173863047Y-140123380D02*
X173958285Y-140075761D01*
X173958285Y-140075761D02*
X174005904Y-140028142D01*
X174005904Y-140028142D02*
X174053523Y-139932904D01*
X174053523Y-139932904D02*
X174053523Y-139123380D01*
X174434476Y-139123380D02*
X175101142Y-139123380D01*
X175101142Y-139123380D02*
X174672571Y-140123380D01*
%TO.C,R4*%
X153773333Y-154925380D02*
X153440000Y-154449190D01*
X153201905Y-154925380D02*
X153201905Y-153925380D01*
X153201905Y-153925380D02*
X153582857Y-153925380D01*
X153582857Y-153925380D02*
X153678095Y-153973000D01*
X153678095Y-153973000D02*
X153725714Y-154020619D01*
X153725714Y-154020619D02*
X153773333Y-154115857D01*
X153773333Y-154115857D02*
X153773333Y-154258714D01*
X153773333Y-154258714D02*
X153725714Y-154353952D01*
X153725714Y-154353952D02*
X153678095Y-154401571D01*
X153678095Y-154401571D02*
X153582857Y-154449190D01*
X153582857Y-154449190D02*
X153201905Y-154449190D01*
X154630476Y-154258714D02*
X154630476Y-154925380D01*
X154392381Y-153877761D02*
X154154286Y-154592047D01*
X154154286Y-154592047D02*
X154773333Y-154592047D01*
%TO.C,C8*%
X179223333Y-140324142D02*
X179175714Y-140371761D01*
X179175714Y-140371761D02*
X179032857Y-140419380D01*
X179032857Y-140419380D02*
X178937619Y-140419380D01*
X178937619Y-140419380D02*
X178794762Y-140371761D01*
X178794762Y-140371761D02*
X178699524Y-140276523D01*
X178699524Y-140276523D02*
X178651905Y-140181285D01*
X178651905Y-140181285D02*
X178604286Y-139990809D01*
X178604286Y-139990809D02*
X178604286Y-139847952D01*
X178604286Y-139847952D02*
X178651905Y-139657476D01*
X178651905Y-139657476D02*
X178699524Y-139562238D01*
X178699524Y-139562238D02*
X178794762Y-139467000D01*
X178794762Y-139467000D02*
X178937619Y-139419380D01*
X178937619Y-139419380D02*
X179032857Y-139419380D01*
X179032857Y-139419380D02*
X179175714Y-139467000D01*
X179175714Y-139467000D02*
X179223333Y-139514619D01*
X179794762Y-139847952D02*
X179699524Y-139800333D01*
X179699524Y-139800333D02*
X179651905Y-139752714D01*
X179651905Y-139752714D02*
X179604286Y-139657476D01*
X179604286Y-139657476D02*
X179604286Y-139609857D01*
X179604286Y-139609857D02*
X179651905Y-139514619D01*
X179651905Y-139514619D02*
X179699524Y-139467000D01*
X179699524Y-139467000D02*
X179794762Y-139419380D01*
X179794762Y-139419380D02*
X179985238Y-139419380D01*
X179985238Y-139419380D02*
X180080476Y-139467000D01*
X180080476Y-139467000D02*
X180128095Y-139514619D01*
X180128095Y-139514619D02*
X180175714Y-139609857D01*
X180175714Y-139609857D02*
X180175714Y-139657476D01*
X180175714Y-139657476D02*
X180128095Y-139752714D01*
X180128095Y-139752714D02*
X180080476Y-139800333D01*
X180080476Y-139800333D02*
X179985238Y-139847952D01*
X179985238Y-139847952D02*
X179794762Y-139847952D01*
X179794762Y-139847952D02*
X179699524Y-139895571D01*
X179699524Y-139895571D02*
X179651905Y-139943190D01*
X179651905Y-139943190D02*
X179604286Y-140038428D01*
X179604286Y-140038428D02*
X179604286Y-140228904D01*
X179604286Y-140228904D02*
X179651905Y-140324142D01*
X179651905Y-140324142D02*
X179699524Y-140371761D01*
X179699524Y-140371761D02*
X179794762Y-140419380D01*
X179794762Y-140419380D02*
X179985238Y-140419380D01*
X179985238Y-140419380D02*
X180080476Y-140371761D01*
X180080476Y-140371761D02*
X180128095Y-140324142D01*
X180128095Y-140324142D02*
X180175714Y-140228904D01*
X180175714Y-140228904D02*
X180175714Y-140038428D01*
X180175714Y-140038428D02*
X180128095Y-139943190D01*
X180128095Y-139943190D02*
X180080476Y-139895571D01*
X180080476Y-139895571D02*
X179985238Y-139847952D01*
%TO.C,J3*%
X138289380Y-153054333D02*
X139003666Y-153054333D01*
X139003666Y-153054333D02*
X139146523Y-153101952D01*
X139146523Y-153101952D02*
X139241761Y-153197190D01*
X139241761Y-153197190D02*
X139289380Y-153340047D01*
X139289380Y-153340047D02*
X139289380Y-153435285D01*
X138289380Y-152673380D02*
X138289380Y-152054333D01*
X138289380Y-152054333D02*
X138670333Y-152387666D01*
X138670333Y-152387666D02*
X138670333Y-152244809D01*
X138670333Y-152244809D02*
X138717952Y-152149571D01*
X138717952Y-152149571D02*
X138765571Y-152101952D01*
X138765571Y-152101952D02*
X138860809Y-152054333D01*
X138860809Y-152054333D02*
X139098904Y-152054333D01*
X139098904Y-152054333D02*
X139194142Y-152101952D01*
X139194142Y-152101952D02*
X139241761Y-152149571D01*
X139241761Y-152149571D02*
X139289380Y-152244809D01*
X139289380Y-152244809D02*
X139289380Y-152530523D01*
X139289380Y-152530523D02*
X139241761Y-152625761D01*
X139241761Y-152625761D02*
X139194142Y-152673380D01*
%TO.C,C10*%
X167248142Y-142816857D02*
X167295761Y-142864476D01*
X167295761Y-142864476D02*
X167343380Y-143007333D01*
X167343380Y-143007333D02*
X167343380Y-143102571D01*
X167343380Y-143102571D02*
X167295761Y-143245428D01*
X167295761Y-143245428D02*
X167200523Y-143340666D01*
X167200523Y-143340666D02*
X167105285Y-143388285D01*
X167105285Y-143388285D02*
X166914809Y-143435904D01*
X166914809Y-143435904D02*
X166771952Y-143435904D01*
X166771952Y-143435904D02*
X166581476Y-143388285D01*
X166581476Y-143388285D02*
X166486238Y-143340666D01*
X166486238Y-143340666D02*
X166391000Y-143245428D01*
X166391000Y-143245428D02*
X166343380Y-143102571D01*
X166343380Y-143102571D02*
X166343380Y-143007333D01*
X166343380Y-143007333D02*
X166391000Y-142864476D01*
X166391000Y-142864476D02*
X166438619Y-142816857D01*
X167343380Y-141864476D02*
X167343380Y-142435904D01*
X167343380Y-142150190D02*
X166343380Y-142150190D01*
X166343380Y-142150190D02*
X166486238Y-142245428D01*
X166486238Y-142245428D02*
X166581476Y-142340666D01*
X166581476Y-142340666D02*
X166629095Y-142435904D01*
X166343380Y-141245428D02*
X166343380Y-141150190D01*
X166343380Y-141150190D02*
X166391000Y-141054952D01*
X166391000Y-141054952D02*
X166438619Y-141007333D01*
X166438619Y-141007333D02*
X166533857Y-140959714D01*
X166533857Y-140959714D02*
X166724333Y-140912095D01*
X166724333Y-140912095D02*
X166962428Y-140912095D01*
X166962428Y-140912095D02*
X167152904Y-140959714D01*
X167152904Y-140959714D02*
X167248142Y-141007333D01*
X167248142Y-141007333D02*
X167295761Y-141054952D01*
X167295761Y-141054952D02*
X167343380Y-141150190D01*
X167343380Y-141150190D02*
X167343380Y-141245428D01*
X167343380Y-141245428D02*
X167295761Y-141340666D01*
X167295761Y-141340666D02*
X167248142Y-141388285D01*
X167248142Y-141388285D02*
X167152904Y-141435904D01*
X167152904Y-141435904D02*
X166962428Y-141483523D01*
X166962428Y-141483523D02*
X166724333Y-141483523D01*
X166724333Y-141483523D02*
X166533857Y-141435904D01*
X166533857Y-141435904D02*
X166438619Y-141388285D01*
X166438619Y-141388285D02*
X166391000Y-141340666D01*
X166391000Y-141340666D02*
X166343380Y-141245428D01*
%TO.C,C1*%
X166903833Y-113338142D02*
X166856214Y-113385761D01*
X166856214Y-113385761D02*
X166713357Y-113433380D01*
X166713357Y-113433380D02*
X166618119Y-113433380D01*
X166618119Y-113433380D02*
X166475262Y-113385761D01*
X166475262Y-113385761D02*
X166380024Y-113290523D01*
X166380024Y-113290523D02*
X166332405Y-113195285D01*
X166332405Y-113195285D02*
X166284786Y-113004809D01*
X166284786Y-113004809D02*
X166284786Y-112861952D01*
X166284786Y-112861952D02*
X166332405Y-112671476D01*
X166332405Y-112671476D02*
X166380024Y-112576238D01*
X166380024Y-112576238D02*
X166475262Y-112481000D01*
X166475262Y-112481000D02*
X166618119Y-112433380D01*
X166618119Y-112433380D02*
X166713357Y-112433380D01*
X166713357Y-112433380D02*
X166856214Y-112481000D01*
X166856214Y-112481000D02*
X166903833Y-112528619D01*
X167856214Y-113433380D02*
X167284786Y-113433380D01*
X167570500Y-113433380D02*
X167570500Y-112433380D01*
X167570500Y-112433380D02*
X167475262Y-112576238D01*
X167475262Y-112576238D02*
X167380024Y-112671476D01*
X167380024Y-112671476D02*
X167284786Y-112719095D01*
%TO.C,TP1*%
X127770095Y-144531380D02*
X128341523Y-144531380D01*
X128055809Y-145531380D02*
X128055809Y-144531380D01*
X128674857Y-145531380D02*
X128674857Y-144531380D01*
X128674857Y-144531380D02*
X129055809Y-144531380D01*
X129055809Y-144531380D02*
X129151047Y-144579000D01*
X129151047Y-144579000D02*
X129198666Y-144626619D01*
X129198666Y-144626619D02*
X129246285Y-144721857D01*
X129246285Y-144721857D02*
X129246285Y-144864714D01*
X129246285Y-144864714D02*
X129198666Y-144959952D01*
X129198666Y-144959952D02*
X129151047Y-145007571D01*
X129151047Y-145007571D02*
X129055809Y-145055190D01*
X129055809Y-145055190D02*
X128674857Y-145055190D01*
X130198666Y-145531380D02*
X129627238Y-145531380D01*
X129912952Y-145531380D02*
X129912952Y-144531380D01*
X129912952Y-144531380D02*
X129817714Y-144674238D01*
X129817714Y-144674238D02*
X129722476Y-144769476D01*
X129722476Y-144769476D02*
X129627238Y-144817095D01*
%TO.C,C2*%
X166965333Y-116448142D02*
X166917714Y-116495761D01*
X166917714Y-116495761D02*
X166774857Y-116543380D01*
X166774857Y-116543380D02*
X166679619Y-116543380D01*
X166679619Y-116543380D02*
X166536762Y-116495761D01*
X166536762Y-116495761D02*
X166441524Y-116400523D01*
X166441524Y-116400523D02*
X166393905Y-116305285D01*
X166393905Y-116305285D02*
X166346286Y-116114809D01*
X166346286Y-116114809D02*
X166346286Y-115971952D01*
X166346286Y-115971952D02*
X166393905Y-115781476D01*
X166393905Y-115781476D02*
X166441524Y-115686238D01*
X166441524Y-115686238D02*
X166536762Y-115591000D01*
X166536762Y-115591000D02*
X166679619Y-115543380D01*
X166679619Y-115543380D02*
X166774857Y-115543380D01*
X166774857Y-115543380D02*
X166917714Y-115591000D01*
X166917714Y-115591000D02*
X166965333Y-115638619D01*
X167346286Y-115638619D02*
X167393905Y-115591000D01*
X167393905Y-115591000D02*
X167489143Y-115543380D01*
X167489143Y-115543380D02*
X167727238Y-115543380D01*
X167727238Y-115543380D02*
X167822476Y-115591000D01*
X167822476Y-115591000D02*
X167870095Y-115638619D01*
X167870095Y-115638619D02*
X167917714Y-115733857D01*
X167917714Y-115733857D02*
X167917714Y-115829095D01*
X167917714Y-115829095D02*
X167870095Y-115971952D01*
X167870095Y-115971952D02*
X167298667Y-116543380D01*
X167298667Y-116543380D02*
X167917714Y-116543380D01*
%TO.C,D1*%
X172988905Y-117589380D02*
X172988905Y-116589380D01*
X172988905Y-116589380D02*
X173227000Y-116589380D01*
X173227000Y-116589380D02*
X173369857Y-116637000D01*
X173369857Y-116637000D02*
X173465095Y-116732238D01*
X173465095Y-116732238D02*
X173512714Y-116827476D01*
X173512714Y-116827476D02*
X173560333Y-117017952D01*
X173560333Y-117017952D02*
X173560333Y-117160809D01*
X173560333Y-117160809D02*
X173512714Y-117351285D01*
X173512714Y-117351285D02*
X173465095Y-117446523D01*
X173465095Y-117446523D02*
X173369857Y-117541761D01*
X173369857Y-117541761D02*
X173227000Y-117589380D01*
X173227000Y-117589380D02*
X172988905Y-117589380D01*
X174512714Y-117589380D02*
X173941286Y-117589380D01*
X174227000Y-117589380D02*
X174227000Y-116589380D01*
X174227000Y-116589380D02*
X174131762Y-116732238D01*
X174131762Y-116732238D02*
X174036524Y-116827476D01*
X174036524Y-116827476D02*
X173941286Y-116875095D01*
%TO.C,R5*%
X131421333Y-82789380D02*
X131088000Y-82313190D01*
X130849905Y-82789380D02*
X130849905Y-81789380D01*
X130849905Y-81789380D02*
X131230857Y-81789380D01*
X131230857Y-81789380D02*
X131326095Y-81837000D01*
X131326095Y-81837000D02*
X131373714Y-81884619D01*
X131373714Y-81884619D02*
X131421333Y-81979857D01*
X131421333Y-81979857D02*
X131421333Y-82122714D01*
X131421333Y-82122714D02*
X131373714Y-82217952D01*
X131373714Y-82217952D02*
X131326095Y-82265571D01*
X131326095Y-82265571D02*
X131230857Y-82313190D01*
X131230857Y-82313190D02*
X130849905Y-82313190D01*
X132326095Y-81789380D02*
X131849905Y-81789380D01*
X131849905Y-81789380D02*
X131802286Y-82265571D01*
X131802286Y-82265571D02*
X131849905Y-82217952D01*
X131849905Y-82217952D02*
X131945143Y-82170333D01*
X131945143Y-82170333D02*
X132183238Y-82170333D01*
X132183238Y-82170333D02*
X132278476Y-82217952D01*
X132278476Y-82217952D02*
X132326095Y-82265571D01*
X132326095Y-82265571D02*
X132373714Y-82360809D01*
X132373714Y-82360809D02*
X132373714Y-82598904D01*
X132373714Y-82598904D02*
X132326095Y-82694142D01*
X132326095Y-82694142D02*
X132278476Y-82741761D01*
X132278476Y-82741761D02*
X132183238Y-82789380D01*
X132183238Y-82789380D02*
X131945143Y-82789380D01*
X131945143Y-82789380D02*
X131849905Y-82741761D01*
X131849905Y-82741761D02*
X131802286Y-82694142D01*
%TO.C,C12*%
X173344142Y-80464857D02*
X173391761Y-80512476D01*
X173391761Y-80512476D02*
X173439380Y-80655333D01*
X173439380Y-80655333D02*
X173439380Y-80750571D01*
X173439380Y-80750571D02*
X173391761Y-80893428D01*
X173391761Y-80893428D02*
X173296523Y-80988666D01*
X173296523Y-80988666D02*
X173201285Y-81036285D01*
X173201285Y-81036285D02*
X173010809Y-81083904D01*
X173010809Y-81083904D02*
X172867952Y-81083904D01*
X172867952Y-81083904D02*
X172677476Y-81036285D01*
X172677476Y-81036285D02*
X172582238Y-80988666D01*
X172582238Y-80988666D02*
X172487000Y-80893428D01*
X172487000Y-80893428D02*
X172439380Y-80750571D01*
X172439380Y-80750571D02*
X172439380Y-80655333D01*
X172439380Y-80655333D02*
X172487000Y-80512476D01*
X172487000Y-80512476D02*
X172534619Y-80464857D01*
X173439380Y-79512476D02*
X173439380Y-80083904D01*
X173439380Y-79798190D02*
X172439380Y-79798190D01*
X172439380Y-79798190D02*
X172582238Y-79893428D01*
X172582238Y-79893428D02*
X172677476Y-79988666D01*
X172677476Y-79988666D02*
X172725095Y-80083904D01*
X172534619Y-79131523D02*
X172487000Y-79083904D01*
X172487000Y-79083904D02*
X172439380Y-78988666D01*
X172439380Y-78988666D02*
X172439380Y-78750571D01*
X172439380Y-78750571D02*
X172487000Y-78655333D01*
X172487000Y-78655333D02*
X172534619Y-78607714D01*
X172534619Y-78607714D02*
X172629857Y-78560095D01*
X172629857Y-78560095D02*
X172725095Y-78560095D01*
X172725095Y-78560095D02*
X172867952Y-78607714D01*
X172867952Y-78607714D02*
X173439380Y-79179142D01*
X173439380Y-79179142D02*
X173439380Y-78560095D01*
%TO.C,U5*%
X129410044Y-87693342D02*
X129410044Y-88502866D01*
X129410044Y-88502866D02*
X129457663Y-88598104D01*
X129457663Y-88598104D02*
X129505282Y-88645723D01*
X129505282Y-88645723D02*
X129600520Y-88693342D01*
X129600520Y-88693342D02*
X129790996Y-88693342D01*
X129790996Y-88693342D02*
X129886234Y-88645723D01*
X129886234Y-88645723D02*
X129933853Y-88598104D01*
X129933853Y-88598104D02*
X129981472Y-88502866D01*
X129981472Y-88502866D02*
X129981472Y-87693342D01*
X130933853Y-87693342D02*
X130457663Y-87693342D01*
X130457663Y-87693342D02*
X130410044Y-88169533D01*
X130410044Y-88169533D02*
X130457663Y-88121914D01*
X130457663Y-88121914D02*
X130552901Y-88074295D01*
X130552901Y-88074295D02*
X130790996Y-88074295D01*
X130790996Y-88074295D02*
X130886234Y-88121914D01*
X130886234Y-88121914D02*
X130933853Y-88169533D01*
X130933853Y-88169533D02*
X130981472Y-88264771D01*
X130981472Y-88264771D02*
X130981472Y-88502866D01*
X130981472Y-88502866D02*
X130933853Y-88598104D01*
X130933853Y-88598104D02*
X130886234Y-88645723D01*
X130886234Y-88645723D02*
X130790996Y-88693342D01*
X130790996Y-88693342D02*
X130552901Y-88693342D01*
X130552901Y-88693342D02*
X130457663Y-88645723D01*
X130457663Y-88645723D02*
X130410044Y-88598104D01*
%TO.C,S1*%
X165354095Y-81171761D02*
X165496952Y-81219380D01*
X165496952Y-81219380D02*
X165735047Y-81219380D01*
X165735047Y-81219380D02*
X165830285Y-81171761D01*
X165830285Y-81171761D02*
X165877904Y-81124142D01*
X165877904Y-81124142D02*
X165925523Y-81028904D01*
X165925523Y-81028904D02*
X165925523Y-80933666D01*
X165925523Y-80933666D02*
X165877904Y-80838428D01*
X165877904Y-80838428D02*
X165830285Y-80790809D01*
X165830285Y-80790809D02*
X165735047Y-80743190D01*
X165735047Y-80743190D02*
X165544571Y-80695571D01*
X165544571Y-80695571D02*
X165449333Y-80647952D01*
X165449333Y-80647952D02*
X165401714Y-80600333D01*
X165401714Y-80600333D02*
X165354095Y-80505095D01*
X165354095Y-80505095D02*
X165354095Y-80409857D01*
X165354095Y-80409857D02*
X165401714Y-80314619D01*
X165401714Y-80314619D02*
X165449333Y-80267000D01*
X165449333Y-80267000D02*
X165544571Y-80219380D01*
X165544571Y-80219380D02*
X165782666Y-80219380D01*
X165782666Y-80219380D02*
X165925523Y-80267000D01*
X166877904Y-81219380D02*
X166306476Y-81219380D01*
X166592190Y-81219380D02*
X166592190Y-80219380D01*
X166592190Y-80219380D02*
X166496952Y-80362238D01*
X166496952Y-80362238D02*
X166401714Y-80457476D01*
X166401714Y-80457476D02*
X166306476Y-80505095D01*
%TO.C,J1*%
X183064666Y-127394380D02*
X183064666Y-128108666D01*
X183064666Y-128108666D02*
X183017047Y-128251523D01*
X183017047Y-128251523D02*
X182921809Y-128346761D01*
X182921809Y-128346761D02*
X182778952Y-128394380D01*
X182778952Y-128394380D02*
X182683714Y-128394380D01*
X184064666Y-128394380D02*
X183493238Y-128394380D01*
X183778952Y-128394380D02*
X183778952Y-127394380D01*
X183778952Y-127394380D02*
X183683714Y-127537238D01*
X183683714Y-127537238D02*
X183588476Y-127632476D01*
X183588476Y-127632476D02*
X183493238Y-127680095D01*
%TO.C,C5*%
X160956142Y-107420666D02*
X161003761Y-107468285D01*
X161003761Y-107468285D02*
X161051380Y-107611142D01*
X161051380Y-107611142D02*
X161051380Y-107706380D01*
X161051380Y-107706380D02*
X161003761Y-107849237D01*
X161003761Y-107849237D02*
X160908523Y-107944475D01*
X160908523Y-107944475D02*
X160813285Y-107992094D01*
X160813285Y-107992094D02*
X160622809Y-108039713D01*
X160622809Y-108039713D02*
X160479952Y-108039713D01*
X160479952Y-108039713D02*
X160289476Y-107992094D01*
X160289476Y-107992094D02*
X160194238Y-107944475D01*
X160194238Y-107944475D02*
X160099000Y-107849237D01*
X160099000Y-107849237D02*
X160051380Y-107706380D01*
X160051380Y-107706380D02*
X160051380Y-107611142D01*
X160051380Y-107611142D02*
X160099000Y-107468285D01*
X160099000Y-107468285D02*
X160146619Y-107420666D01*
X160051380Y-106515904D02*
X160051380Y-106992094D01*
X160051380Y-106992094D02*
X160527571Y-107039713D01*
X160527571Y-107039713D02*
X160479952Y-106992094D01*
X160479952Y-106992094D02*
X160432333Y-106896856D01*
X160432333Y-106896856D02*
X160432333Y-106658761D01*
X160432333Y-106658761D02*
X160479952Y-106563523D01*
X160479952Y-106563523D02*
X160527571Y-106515904D01*
X160527571Y-106515904D02*
X160622809Y-106468285D01*
X160622809Y-106468285D02*
X160860904Y-106468285D01*
X160860904Y-106468285D02*
X160956142Y-106515904D01*
X160956142Y-106515904D02*
X161003761Y-106563523D01*
X161003761Y-106563523D02*
X161051380Y-106658761D01*
X161051380Y-106658761D02*
X161051380Y-106896856D01*
X161051380Y-106896856D02*
X161003761Y-106992094D01*
X161003761Y-106992094D02*
X160956142Y-107039713D01*
%TO.C,U6*%
X120774044Y-87687253D02*
X120774044Y-88496777D01*
X120774044Y-88496777D02*
X120821663Y-88592015D01*
X120821663Y-88592015D02*
X120869282Y-88639634D01*
X120869282Y-88639634D02*
X120964520Y-88687253D01*
X120964520Y-88687253D02*
X121154996Y-88687253D01*
X121154996Y-88687253D02*
X121250234Y-88639634D01*
X121250234Y-88639634D02*
X121297853Y-88592015D01*
X121297853Y-88592015D02*
X121345472Y-88496777D01*
X121345472Y-88496777D02*
X121345472Y-87687253D01*
X122250234Y-87687253D02*
X122059758Y-87687253D01*
X122059758Y-87687253D02*
X121964520Y-87734873D01*
X121964520Y-87734873D02*
X121916901Y-87782492D01*
X121916901Y-87782492D02*
X121821663Y-87925349D01*
X121821663Y-87925349D02*
X121774044Y-88115825D01*
X121774044Y-88115825D02*
X121774044Y-88496777D01*
X121774044Y-88496777D02*
X121821663Y-88592015D01*
X121821663Y-88592015D02*
X121869282Y-88639634D01*
X121869282Y-88639634D02*
X121964520Y-88687253D01*
X121964520Y-88687253D02*
X122154996Y-88687253D01*
X122154996Y-88687253D02*
X122250234Y-88639634D01*
X122250234Y-88639634D02*
X122297853Y-88592015D01*
X122297853Y-88592015D02*
X122345472Y-88496777D01*
X122345472Y-88496777D02*
X122345472Y-88258682D01*
X122345472Y-88258682D02*
X122297853Y-88163444D01*
X122297853Y-88163444D02*
X122250234Y-88115825D01*
X122250234Y-88115825D02*
X122154996Y-88068206D01*
X122154996Y-88068206D02*
X121964520Y-88068206D01*
X121964520Y-88068206D02*
X121869282Y-88115825D01*
X121869282Y-88115825D02*
X121821663Y-88163444D01*
X121821663Y-88163444D02*
X121774044Y-88258682D01*
%TO.C,D4*%
X157748905Y-149593380D02*
X157748905Y-148593380D01*
X157748905Y-148593380D02*
X157987000Y-148593380D01*
X157987000Y-148593380D02*
X158129857Y-148641000D01*
X158129857Y-148641000D02*
X158225095Y-148736238D01*
X158225095Y-148736238D02*
X158272714Y-148831476D01*
X158272714Y-148831476D02*
X158320333Y-149021952D01*
X158320333Y-149021952D02*
X158320333Y-149164809D01*
X158320333Y-149164809D02*
X158272714Y-149355285D01*
X158272714Y-149355285D02*
X158225095Y-149450523D01*
X158225095Y-149450523D02*
X158129857Y-149545761D01*
X158129857Y-149545761D02*
X157987000Y-149593380D01*
X157987000Y-149593380D02*
X157748905Y-149593380D01*
X159177476Y-148926714D02*
X159177476Y-149593380D01*
X158939381Y-148545761D02*
X158701286Y-149260047D01*
X158701286Y-149260047D02*
X159320333Y-149260047D01*
%TO.C,USB1*%
X163889908Y-148150551D02*
X163889908Y-148960075D01*
X163889908Y-148960075D02*
X163937527Y-149055313D01*
X163937527Y-149055313D02*
X163985146Y-149102932D01*
X163985146Y-149102932D02*
X164080384Y-149150551D01*
X164080384Y-149150551D02*
X164270860Y-149150551D01*
X164270860Y-149150551D02*
X164366098Y-149102932D01*
X164366098Y-149102932D02*
X164413717Y-149055313D01*
X164413717Y-149055313D02*
X164461336Y-148960075D01*
X164461336Y-148960075D02*
X164461336Y-148150551D01*
X164889908Y-149102932D02*
X165032765Y-149150551D01*
X165032765Y-149150551D02*
X165270860Y-149150551D01*
X165270860Y-149150551D02*
X165366098Y-149102932D01*
X165366098Y-149102932D02*
X165413717Y-149055313D01*
X165413717Y-149055313D02*
X165461336Y-148960075D01*
X165461336Y-148960075D02*
X165461336Y-148864837D01*
X165461336Y-148864837D02*
X165413717Y-148769599D01*
X165413717Y-148769599D02*
X165366098Y-148721980D01*
X165366098Y-148721980D02*
X165270860Y-148674361D01*
X165270860Y-148674361D02*
X165080384Y-148626742D01*
X165080384Y-148626742D02*
X164985146Y-148579123D01*
X164985146Y-148579123D02*
X164937527Y-148531504D01*
X164937527Y-148531504D02*
X164889908Y-148436266D01*
X164889908Y-148436266D02*
X164889908Y-148341028D01*
X164889908Y-148341028D02*
X164937527Y-148245790D01*
X164937527Y-148245790D02*
X164985146Y-148198171D01*
X164985146Y-148198171D02*
X165080384Y-148150551D01*
X165080384Y-148150551D02*
X165318479Y-148150551D01*
X165318479Y-148150551D02*
X165461336Y-148198171D01*
X166223241Y-148626742D02*
X166366098Y-148674361D01*
X166366098Y-148674361D02*
X166413717Y-148721980D01*
X166413717Y-148721980D02*
X166461336Y-148817218D01*
X166461336Y-148817218D02*
X166461336Y-148960075D01*
X166461336Y-148960075D02*
X166413717Y-149055313D01*
X166413717Y-149055313D02*
X166366098Y-149102932D01*
X166366098Y-149102932D02*
X166270860Y-149150551D01*
X166270860Y-149150551D02*
X165889908Y-149150551D01*
X165889908Y-149150551D02*
X165889908Y-148150551D01*
X165889908Y-148150551D02*
X166223241Y-148150551D01*
X166223241Y-148150551D02*
X166318479Y-148198171D01*
X166318479Y-148198171D02*
X166366098Y-148245790D01*
X166366098Y-148245790D02*
X166413717Y-148341028D01*
X166413717Y-148341028D02*
X166413717Y-148436266D01*
X166413717Y-148436266D02*
X166366098Y-148531504D01*
X166366098Y-148531504D02*
X166318479Y-148579123D01*
X166318479Y-148579123D02*
X166223241Y-148626742D01*
X166223241Y-148626742D02*
X165889908Y-148626742D01*
X167413717Y-149150551D02*
X166842289Y-149150551D01*
X167128003Y-149150551D02*
X167128003Y-148150551D01*
X167128003Y-148150551D02*
X167032765Y-148293409D01*
X167032765Y-148293409D02*
X166937527Y-148388647D01*
X166937527Y-148388647D02*
X166842289Y-148436266D01*
%TO.C,C9*%
X127827833Y-148960142D02*
X127780214Y-149007761D01*
X127780214Y-149007761D02*
X127637357Y-149055380D01*
X127637357Y-149055380D02*
X127542119Y-149055380D01*
X127542119Y-149055380D02*
X127399262Y-149007761D01*
X127399262Y-149007761D02*
X127304024Y-148912523D01*
X127304024Y-148912523D02*
X127256405Y-148817285D01*
X127256405Y-148817285D02*
X127208786Y-148626809D01*
X127208786Y-148626809D02*
X127208786Y-148483952D01*
X127208786Y-148483952D02*
X127256405Y-148293476D01*
X127256405Y-148293476D02*
X127304024Y-148198238D01*
X127304024Y-148198238D02*
X127399262Y-148103000D01*
X127399262Y-148103000D02*
X127542119Y-148055380D01*
X127542119Y-148055380D02*
X127637357Y-148055380D01*
X127637357Y-148055380D02*
X127780214Y-148103000D01*
X127780214Y-148103000D02*
X127827833Y-148150619D01*
X128304024Y-149055380D02*
X128494500Y-149055380D01*
X128494500Y-149055380D02*
X128589738Y-149007761D01*
X128589738Y-149007761D02*
X128637357Y-148960142D01*
X128637357Y-148960142D02*
X128732595Y-148817285D01*
X128732595Y-148817285D02*
X128780214Y-148626809D01*
X128780214Y-148626809D02*
X128780214Y-148245857D01*
X128780214Y-148245857D02*
X128732595Y-148150619D01*
X128732595Y-148150619D02*
X128684976Y-148103000D01*
X128684976Y-148103000D02*
X128589738Y-148055380D01*
X128589738Y-148055380D02*
X128399262Y-148055380D01*
X128399262Y-148055380D02*
X128304024Y-148103000D01*
X128304024Y-148103000D02*
X128256405Y-148150619D01*
X128256405Y-148150619D02*
X128208786Y-148245857D01*
X128208786Y-148245857D02*
X128208786Y-148483952D01*
X128208786Y-148483952D02*
X128256405Y-148579190D01*
X128256405Y-148579190D02*
X128304024Y-148626809D01*
X128304024Y-148626809D02*
X128399262Y-148674428D01*
X128399262Y-148674428D02*
X128589738Y-148674428D01*
X128589738Y-148674428D02*
X128684976Y-148626809D01*
X128684976Y-148626809D02*
X128732595Y-148579190D01*
X128732595Y-148579190D02*
X128780214Y-148483952D01*
%TO.C,R2*%
X171437380Y-124610666D02*
X170961190Y-124943999D01*
X171437380Y-125182094D02*
X170437380Y-125182094D01*
X170437380Y-125182094D02*
X170437380Y-124801142D01*
X170437380Y-124801142D02*
X170485000Y-124705904D01*
X170485000Y-124705904D02*
X170532619Y-124658285D01*
X170532619Y-124658285D02*
X170627857Y-124610666D01*
X170627857Y-124610666D02*
X170770714Y-124610666D01*
X170770714Y-124610666D02*
X170865952Y-124658285D01*
X170865952Y-124658285D02*
X170913571Y-124705904D01*
X170913571Y-124705904D02*
X170961190Y-124801142D01*
X170961190Y-124801142D02*
X170961190Y-125182094D01*
X170532619Y-124229713D02*
X170485000Y-124182094D01*
X170485000Y-124182094D02*
X170437380Y-124086856D01*
X170437380Y-124086856D02*
X170437380Y-123848761D01*
X170437380Y-123848761D02*
X170485000Y-123753523D01*
X170485000Y-123753523D02*
X170532619Y-123705904D01*
X170532619Y-123705904D02*
X170627857Y-123658285D01*
X170627857Y-123658285D02*
X170723095Y-123658285D01*
X170723095Y-123658285D02*
X170865952Y-123705904D01*
X170865952Y-123705904D02*
X171437380Y-124277332D01*
X171437380Y-124277332D02*
X171437380Y-123658285D01*
%TO.C,C7*%
X179135833Y-136768142D02*
X179088214Y-136815761D01*
X179088214Y-136815761D02*
X178945357Y-136863380D01*
X178945357Y-136863380D02*
X178850119Y-136863380D01*
X178850119Y-136863380D02*
X178707262Y-136815761D01*
X178707262Y-136815761D02*
X178612024Y-136720523D01*
X178612024Y-136720523D02*
X178564405Y-136625285D01*
X178564405Y-136625285D02*
X178516786Y-136434809D01*
X178516786Y-136434809D02*
X178516786Y-136291952D01*
X178516786Y-136291952D02*
X178564405Y-136101476D01*
X178564405Y-136101476D02*
X178612024Y-136006238D01*
X178612024Y-136006238D02*
X178707262Y-135911000D01*
X178707262Y-135911000D02*
X178850119Y-135863380D01*
X178850119Y-135863380D02*
X178945357Y-135863380D01*
X178945357Y-135863380D02*
X179088214Y-135911000D01*
X179088214Y-135911000D02*
X179135833Y-135958619D01*
X179469167Y-135863380D02*
X180135833Y-135863380D01*
X180135833Y-135863380D02*
X179707262Y-136863380D01*
%TO.C,D3*%
X157748905Y-148829380D02*
X157748905Y-147829380D01*
X157748905Y-147829380D02*
X157987000Y-147829380D01*
X157987000Y-147829380D02*
X158129857Y-147877000D01*
X158129857Y-147877000D02*
X158225095Y-147972238D01*
X158225095Y-147972238D02*
X158272714Y-148067476D01*
X158272714Y-148067476D02*
X158320333Y-148257952D01*
X158320333Y-148257952D02*
X158320333Y-148400809D01*
X158320333Y-148400809D02*
X158272714Y-148591285D01*
X158272714Y-148591285D02*
X158225095Y-148686523D01*
X158225095Y-148686523D02*
X158129857Y-148781761D01*
X158129857Y-148781761D02*
X157987000Y-148829380D01*
X157987000Y-148829380D02*
X157748905Y-148829380D01*
X158653667Y-147829380D02*
X159272714Y-147829380D01*
X159272714Y-147829380D02*
X158939381Y-148210333D01*
X158939381Y-148210333D02*
X159082238Y-148210333D01*
X159082238Y-148210333D02*
X159177476Y-148257952D01*
X159177476Y-148257952D02*
X159225095Y-148305571D01*
X159225095Y-148305571D02*
X159272714Y-148400809D01*
X159272714Y-148400809D02*
X159272714Y-148638904D01*
X159272714Y-148638904D02*
X159225095Y-148734142D01*
X159225095Y-148734142D02*
X159177476Y-148781761D01*
X159177476Y-148781761D02*
X159082238Y-148829380D01*
X159082238Y-148829380D02*
X158796524Y-148829380D01*
X158796524Y-148829380D02*
X158701286Y-148781761D01*
X158701286Y-148781761D02*
X158653667Y-148734142D01*
%TO.C,J2*%
X125132666Y-144126380D02*
X125132666Y-144840666D01*
X125132666Y-144840666D02*
X125085047Y-144983523D01*
X125085047Y-144983523D02*
X124989809Y-145078761D01*
X124989809Y-145078761D02*
X124846952Y-145126380D01*
X124846952Y-145126380D02*
X124751714Y-145126380D01*
X125561238Y-144221619D02*
X125608857Y-144174000D01*
X125608857Y-144174000D02*
X125704095Y-144126380D01*
X125704095Y-144126380D02*
X125942190Y-144126380D01*
X125942190Y-144126380D02*
X126037428Y-144174000D01*
X126037428Y-144174000D02*
X126085047Y-144221619D01*
X126085047Y-144221619D02*
X126132666Y-144316857D01*
X126132666Y-144316857D02*
X126132666Y-144412095D01*
X126132666Y-144412095D02*
X126085047Y-144554952D01*
X126085047Y-144554952D02*
X125513619Y-145126380D01*
X125513619Y-145126380D02*
X126132666Y-145126380D01*
%TO.C,R1*%
X171437380Y-129690666D02*
X170961190Y-130023999D01*
X171437380Y-130262094D02*
X170437380Y-130262094D01*
X170437380Y-130262094D02*
X170437380Y-129881142D01*
X170437380Y-129881142D02*
X170485000Y-129785904D01*
X170485000Y-129785904D02*
X170532619Y-129738285D01*
X170532619Y-129738285D02*
X170627857Y-129690666D01*
X170627857Y-129690666D02*
X170770714Y-129690666D01*
X170770714Y-129690666D02*
X170865952Y-129738285D01*
X170865952Y-129738285D02*
X170913571Y-129785904D01*
X170913571Y-129785904D02*
X170961190Y-129881142D01*
X170961190Y-129881142D02*
X170961190Y-130262094D01*
X171437380Y-128738285D02*
X171437380Y-129309713D01*
X171437380Y-129023999D02*
X170437380Y-129023999D01*
X170437380Y-129023999D02*
X170580238Y-129119237D01*
X170580238Y-129119237D02*
X170675476Y-129214475D01*
X170675476Y-129214475D02*
X170723095Y-129309713D01*
%TO.C,D2*%
X172988905Y-114033380D02*
X172988905Y-113033380D01*
X172988905Y-113033380D02*
X173227000Y-113033380D01*
X173227000Y-113033380D02*
X173369857Y-113081000D01*
X173369857Y-113081000D02*
X173465095Y-113176238D01*
X173465095Y-113176238D02*
X173512714Y-113271476D01*
X173512714Y-113271476D02*
X173560333Y-113461952D01*
X173560333Y-113461952D02*
X173560333Y-113604809D01*
X173560333Y-113604809D02*
X173512714Y-113795285D01*
X173512714Y-113795285D02*
X173465095Y-113890523D01*
X173465095Y-113890523D02*
X173369857Y-113985761D01*
X173369857Y-113985761D02*
X173227000Y-114033380D01*
X173227000Y-114033380D02*
X172988905Y-114033380D01*
X173941286Y-113128619D02*
X173988905Y-113081000D01*
X173988905Y-113081000D02*
X174084143Y-113033380D01*
X174084143Y-113033380D02*
X174322238Y-113033380D01*
X174322238Y-113033380D02*
X174417476Y-113081000D01*
X174417476Y-113081000D02*
X174465095Y-113128619D01*
X174465095Y-113128619D02*
X174512714Y-113223857D01*
X174512714Y-113223857D02*
X174512714Y-113319095D01*
X174512714Y-113319095D02*
X174465095Y-113461952D01*
X174465095Y-113461952D02*
X173893667Y-114033380D01*
X173893667Y-114033380D02*
X174512714Y-114033380D01*
%TO.C,C11*%
X167248142Y-146880857D02*
X167295761Y-146928476D01*
X167295761Y-146928476D02*
X167343380Y-147071333D01*
X167343380Y-147071333D02*
X167343380Y-147166571D01*
X167343380Y-147166571D02*
X167295761Y-147309428D01*
X167295761Y-147309428D02*
X167200523Y-147404666D01*
X167200523Y-147404666D02*
X167105285Y-147452285D01*
X167105285Y-147452285D02*
X166914809Y-147499904D01*
X166914809Y-147499904D02*
X166771952Y-147499904D01*
X166771952Y-147499904D02*
X166581476Y-147452285D01*
X166581476Y-147452285D02*
X166486238Y-147404666D01*
X166486238Y-147404666D02*
X166391000Y-147309428D01*
X166391000Y-147309428D02*
X166343380Y-147166571D01*
X166343380Y-147166571D02*
X166343380Y-147071333D01*
X166343380Y-147071333D02*
X166391000Y-146928476D01*
X166391000Y-146928476D02*
X166438619Y-146880857D01*
X167343380Y-145928476D02*
X167343380Y-146499904D01*
X167343380Y-146214190D02*
X166343380Y-146214190D01*
X166343380Y-146214190D02*
X166486238Y-146309428D01*
X166486238Y-146309428D02*
X166581476Y-146404666D01*
X166581476Y-146404666D02*
X166629095Y-146499904D01*
X167343380Y-144976095D02*
X167343380Y-145547523D01*
X167343380Y-145261809D02*
X166343380Y-145261809D01*
X166343380Y-145261809D02*
X166486238Y-145357047D01*
X166486238Y-145357047D02*
X166581476Y-145452285D01*
X166581476Y-145452285D02*
X166629095Y-145547523D01*
%TO.C,U3*%
X135711796Y-114553904D02*
X136521320Y-114553904D01*
X136521320Y-114553904D02*
X136616558Y-114506285D01*
X136616558Y-114506285D02*
X136664177Y-114458666D01*
X136664177Y-114458666D02*
X136711796Y-114363428D01*
X136711796Y-114363428D02*
X136711796Y-114172952D01*
X136711796Y-114172952D02*
X136664177Y-114077714D01*
X136664177Y-114077714D02*
X136616558Y-114030095D01*
X136616558Y-114030095D02*
X136521320Y-113982476D01*
X136521320Y-113982476D02*
X135711796Y-113982476D01*
X135711796Y-113601523D02*
X135711796Y-112982476D01*
X135711796Y-112982476D02*
X136092749Y-113315809D01*
X136092749Y-113315809D02*
X136092749Y-113172952D01*
X136092749Y-113172952D02*
X136140368Y-113077714D01*
X136140368Y-113077714D02*
X136187987Y-113030095D01*
X136187987Y-113030095D02*
X136283225Y-112982476D01*
X136283225Y-112982476D02*
X136521320Y-112982476D01*
X136521320Y-112982476D02*
X136616558Y-113030095D01*
X136616558Y-113030095D02*
X136664177Y-113077714D01*
X136664177Y-113077714D02*
X136711796Y-113172952D01*
X136711796Y-113172952D02*
X136711796Y-113458666D01*
X136711796Y-113458666D02*
X136664177Y-113553904D01*
X136664177Y-113553904D02*
X136616558Y-113601523D01*
%TO.C,BT1*%
X90477205Y-69365714D02*
X90524824Y-69222857D01*
X90524824Y-69222857D02*
X90572443Y-69175238D01*
X90572443Y-69175238D02*
X90667681Y-69127619D01*
X90667681Y-69127619D02*
X90810538Y-69127619D01*
X90810538Y-69127619D02*
X90905776Y-69175238D01*
X90905776Y-69175238D02*
X90953395Y-69222857D01*
X90953395Y-69222857D02*
X91001014Y-69318095D01*
X91001014Y-69318095D02*
X91001014Y-69699047D01*
X91001014Y-69699047D02*
X90001014Y-69699047D01*
X90001014Y-69699047D02*
X90001014Y-69365714D01*
X90001014Y-69365714D02*
X90048634Y-69270476D01*
X90048634Y-69270476D02*
X90096253Y-69222857D01*
X90096253Y-69222857D02*
X90191491Y-69175238D01*
X90191491Y-69175238D02*
X90286729Y-69175238D01*
X90286729Y-69175238D02*
X90381967Y-69222857D01*
X90381967Y-69222857D02*
X90429586Y-69270476D01*
X90429586Y-69270476D02*
X90477205Y-69365714D01*
X90477205Y-69365714D02*
X90477205Y-69699047D01*
X90001014Y-68841904D02*
X90001014Y-68270476D01*
X91001014Y-68556190D02*
X90001014Y-68556190D01*
X91001014Y-67413333D02*
X91001014Y-67984761D01*
X91001014Y-67699047D02*
X90001014Y-67699047D01*
X90001014Y-67699047D02*
X90143872Y-67794285D01*
X90143872Y-67794285D02*
X90239110Y-67889523D01*
X90239110Y-67889523D02*
X90286729Y-67984761D01*
%TO.C,TP3*%
X176538095Y-149103380D02*
X177109523Y-149103380D01*
X176823809Y-150103380D02*
X176823809Y-149103380D01*
X177442857Y-150103380D02*
X177442857Y-149103380D01*
X177442857Y-149103380D02*
X177823809Y-149103380D01*
X177823809Y-149103380D02*
X177919047Y-149151000D01*
X177919047Y-149151000D02*
X177966666Y-149198619D01*
X177966666Y-149198619D02*
X178014285Y-149293857D01*
X178014285Y-149293857D02*
X178014285Y-149436714D01*
X178014285Y-149436714D02*
X177966666Y-149531952D01*
X177966666Y-149531952D02*
X177919047Y-149579571D01*
X177919047Y-149579571D02*
X177823809Y-149627190D01*
X177823809Y-149627190D02*
X177442857Y-149627190D01*
X178347619Y-149103380D02*
X178966666Y-149103380D01*
X178966666Y-149103380D02*
X178633333Y-149484333D01*
X178633333Y-149484333D02*
X178776190Y-149484333D01*
X178776190Y-149484333D02*
X178871428Y-149531952D01*
X178871428Y-149531952D02*
X178919047Y-149579571D01*
X178919047Y-149579571D02*
X178966666Y-149674809D01*
X178966666Y-149674809D02*
X178966666Y-149912904D01*
X178966666Y-149912904D02*
X178919047Y-150008142D01*
X178919047Y-150008142D02*
X178871428Y-150055761D01*
X178871428Y-150055761D02*
X178776190Y-150103380D01*
X178776190Y-150103380D02*
X178490476Y-150103380D01*
X178490476Y-150103380D02*
X178395238Y-150055761D01*
X178395238Y-150055761D02*
X178347619Y-150008142D01*
%TO.C,J7*%
X151526619Y-111306666D02*
X150812333Y-111306666D01*
X150812333Y-111306666D02*
X150669476Y-111259047D01*
X150669476Y-111259047D02*
X150574238Y-111163809D01*
X150574238Y-111163809D02*
X150526619Y-111020952D01*
X150526619Y-111020952D02*
X150526619Y-110925714D01*
X151526619Y-111687619D02*
X151526619Y-112354285D01*
X151526619Y-112354285D02*
X150526619Y-111925714D01*
%TO.C,TP2*%
X119134095Y-88651380D02*
X119705523Y-88651380D01*
X119419809Y-89651380D02*
X119419809Y-88651380D01*
X120038857Y-89651380D02*
X120038857Y-88651380D01*
X120038857Y-88651380D02*
X120419809Y-88651380D01*
X120419809Y-88651380D02*
X120515047Y-88699000D01*
X120515047Y-88699000D02*
X120562666Y-88746619D01*
X120562666Y-88746619D02*
X120610285Y-88841857D01*
X120610285Y-88841857D02*
X120610285Y-88984714D01*
X120610285Y-88984714D02*
X120562666Y-89079952D01*
X120562666Y-89079952D02*
X120515047Y-89127571D01*
X120515047Y-89127571D02*
X120419809Y-89175190D01*
X120419809Y-89175190D02*
X120038857Y-89175190D01*
X120991238Y-88746619D02*
X121038857Y-88699000D01*
X121038857Y-88699000D02*
X121134095Y-88651380D01*
X121134095Y-88651380D02*
X121372190Y-88651380D01*
X121372190Y-88651380D02*
X121467428Y-88699000D01*
X121467428Y-88699000D02*
X121515047Y-88746619D01*
X121515047Y-88746619D02*
X121562666Y-88841857D01*
X121562666Y-88841857D02*
X121562666Y-88937095D01*
X121562666Y-88937095D02*
X121515047Y-89079952D01*
X121515047Y-89079952D02*
X120943619Y-89651380D01*
X120943619Y-89651380D02*
X121562666Y-89651380D01*
%TO.C,R7*%
X136129380Y-83970666D02*
X135653190Y-84303999D01*
X136129380Y-84542094D02*
X135129380Y-84542094D01*
X135129380Y-84542094D02*
X135129380Y-84161142D01*
X135129380Y-84161142D02*
X135177000Y-84065904D01*
X135177000Y-84065904D02*
X135224619Y-84018285D01*
X135224619Y-84018285D02*
X135319857Y-83970666D01*
X135319857Y-83970666D02*
X135462714Y-83970666D01*
X135462714Y-83970666D02*
X135557952Y-84018285D01*
X135557952Y-84018285D02*
X135605571Y-84065904D01*
X135605571Y-84065904D02*
X135653190Y-84161142D01*
X135653190Y-84161142D02*
X135653190Y-84542094D01*
X135129380Y-83637332D02*
X135129380Y-82970666D01*
X135129380Y-82970666D02*
X136129380Y-83399237D01*
%TO.C,C3*%
X131721142Y-101225666D02*
X131768761Y-101273285D01*
X131768761Y-101273285D02*
X131816380Y-101416142D01*
X131816380Y-101416142D02*
X131816380Y-101511380D01*
X131816380Y-101511380D02*
X131768761Y-101654237D01*
X131768761Y-101654237D02*
X131673523Y-101749475D01*
X131673523Y-101749475D02*
X131578285Y-101797094D01*
X131578285Y-101797094D02*
X131387809Y-101844713D01*
X131387809Y-101844713D02*
X131244952Y-101844713D01*
X131244952Y-101844713D02*
X131054476Y-101797094D01*
X131054476Y-101797094D02*
X130959238Y-101749475D01*
X130959238Y-101749475D02*
X130864000Y-101654237D01*
X130864000Y-101654237D02*
X130816380Y-101511380D01*
X130816380Y-101511380D02*
X130816380Y-101416142D01*
X130816380Y-101416142D02*
X130864000Y-101273285D01*
X130864000Y-101273285D02*
X130911619Y-101225666D01*
X130816380Y-100892332D02*
X130816380Y-100273285D01*
X130816380Y-100273285D02*
X131197333Y-100606618D01*
X131197333Y-100606618D02*
X131197333Y-100463761D01*
X131197333Y-100463761D02*
X131244952Y-100368523D01*
X131244952Y-100368523D02*
X131292571Y-100320904D01*
X131292571Y-100320904D02*
X131387809Y-100273285D01*
X131387809Y-100273285D02*
X131625904Y-100273285D01*
X131625904Y-100273285D02*
X131721142Y-100320904D01*
X131721142Y-100320904D02*
X131768761Y-100368523D01*
X131768761Y-100368523D02*
X131816380Y-100463761D01*
X131816380Y-100463761D02*
X131816380Y-100749475D01*
X131816380Y-100749475D02*
X131768761Y-100844713D01*
X131768761Y-100844713D02*
X131721142Y-100892332D01*
%TO.C,U4*%
X151087686Y-151637904D02*
X151897210Y-151637904D01*
X151897210Y-151637904D02*
X151992448Y-151590285D01*
X151992448Y-151590285D02*
X152040067Y-151542666D01*
X152040067Y-151542666D02*
X152087686Y-151447428D01*
X152087686Y-151447428D02*
X152087686Y-151256952D01*
X152087686Y-151256952D02*
X152040067Y-151161714D01*
X152040067Y-151161714D02*
X151992448Y-151114095D01*
X151992448Y-151114095D02*
X151897210Y-151066476D01*
X151897210Y-151066476D02*
X151087686Y-151066476D01*
X151421020Y-150161714D02*
X152087686Y-150161714D01*
X151040067Y-150399809D02*
X151754353Y-150637904D01*
X151754353Y-150637904D02*
X151754353Y-150018857D01*
%TO.C,C4*%
X131721142Y-95195666D02*
X131768761Y-95243285D01*
X131768761Y-95243285D02*
X131816380Y-95386142D01*
X131816380Y-95386142D02*
X131816380Y-95481380D01*
X131816380Y-95481380D02*
X131768761Y-95624237D01*
X131768761Y-95624237D02*
X131673523Y-95719475D01*
X131673523Y-95719475D02*
X131578285Y-95767094D01*
X131578285Y-95767094D02*
X131387809Y-95814713D01*
X131387809Y-95814713D02*
X131244952Y-95814713D01*
X131244952Y-95814713D02*
X131054476Y-95767094D01*
X131054476Y-95767094D02*
X130959238Y-95719475D01*
X130959238Y-95719475D02*
X130864000Y-95624237D01*
X130864000Y-95624237D02*
X130816380Y-95481380D01*
X130816380Y-95481380D02*
X130816380Y-95386142D01*
X130816380Y-95386142D02*
X130864000Y-95243285D01*
X130864000Y-95243285D02*
X130911619Y-95195666D01*
X131149714Y-94338523D02*
X131816380Y-94338523D01*
X130768761Y-94576618D02*
X131483047Y-94814713D01*
X131483047Y-94814713D02*
X131483047Y-94195666D01*
%TO.C,R6*%
X124817333Y-84313380D02*
X124484000Y-83837190D01*
X124245905Y-84313380D02*
X124245905Y-83313380D01*
X124245905Y-83313380D02*
X124626857Y-83313380D01*
X124626857Y-83313380D02*
X124722095Y-83361000D01*
X124722095Y-83361000D02*
X124769714Y-83408619D01*
X124769714Y-83408619D02*
X124817333Y-83503857D01*
X124817333Y-83503857D02*
X124817333Y-83646714D01*
X124817333Y-83646714D02*
X124769714Y-83741952D01*
X124769714Y-83741952D02*
X124722095Y-83789571D01*
X124722095Y-83789571D02*
X124626857Y-83837190D01*
X124626857Y-83837190D02*
X124245905Y-83837190D01*
X125674476Y-83313380D02*
X125484000Y-83313380D01*
X125484000Y-83313380D02*
X125388762Y-83361000D01*
X125388762Y-83361000D02*
X125341143Y-83408619D01*
X125341143Y-83408619D02*
X125245905Y-83551476D01*
X125245905Y-83551476D02*
X125198286Y-83741952D01*
X125198286Y-83741952D02*
X125198286Y-84122904D01*
X125198286Y-84122904D02*
X125245905Y-84218142D01*
X125245905Y-84218142D02*
X125293524Y-84265761D01*
X125293524Y-84265761D02*
X125388762Y-84313380D01*
X125388762Y-84313380D02*
X125579238Y-84313380D01*
X125579238Y-84313380D02*
X125674476Y-84265761D01*
X125674476Y-84265761D02*
X125722095Y-84218142D01*
X125722095Y-84218142D02*
X125769714Y-84122904D01*
X125769714Y-84122904D02*
X125769714Y-83884809D01*
X125769714Y-83884809D02*
X125722095Y-83789571D01*
X125722095Y-83789571D02*
X125674476Y-83741952D01*
X125674476Y-83741952D02*
X125579238Y-83694333D01*
X125579238Y-83694333D02*
X125388762Y-83694333D01*
X125388762Y-83694333D02*
X125293524Y-83741952D01*
X125293524Y-83741952D02*
X125245905Y-83789571D01*
X125245905Y-83789571D02*
X125198286Y-83884809D01*
%TO.C,Y1*%
X130949190Y-99885690D02*
X131425380Y-99885690D01*
X130425380Y-100219023D02*
X130949190Y-99885690D01*
X130949190Y-99885690D02*
X130425380Y-99552357D01*
X131425380Y-98695214D02*
X131425380Y-99266642D01*
X131425380Y-98980928D02*
X130425380Y-98980928D01*
X130425380Y-98980928D02*
X130568238Y-99076166D01*
X130568238Y-99076166D02*
X130663476Y-99171404D01*
X130663476Y-99171404D02*
X130711095Y-99266642D01*
%TO.C,R3*%
X155941380Y-149534666D02*
X155465190Y-149867999D01*
X155941380Y-150106094D02*
X154941380Y-150106094D01*
X154941380Y-150106094D02*
X154941380Y-149725142D01*
X154941380Y-149725142D02*
X154989000Y-149629904D01*
X154989000Y-149629904D02*
X155036619Y-149582285D01*
X155036619Y-149582285D02*
X155131857Y-149534666D01*
X155131857Y-149534666D02*
X155274714Y-149534666D01*
X155274714Y-149534666D02*
X155369952Y-149582285D01*
X155369952Y-149582285D02*
X155417571Y-149629904D01*
X155417571Y-149629904D02*
X155465190Y-149725142D01*
X155465190Y-149725142D02*
X155465190Y-150106094D01*
X154941380Y-149201332D02*
X154941380Y-148582285D01*
X154941380Y-148582285D02*
X155322333Y-148915618D01*
X155322333Y-148915618D02*
X155322333Y-148772761D01*
X155322333Y-148772761D02*
X155369952Y-148677523D01*
X155369952Y-148677523D02*
X155417571Y-148629904D01*
X155417571Y-148629904D02*
X155512809Y-148582285D01*
X155512809Y-148582285D02*
X155750904Y-148582285D01*
X155750904Y-148582285D02*
X155846142Y-148629904D01*
X155846142Y-148629904D02*
X155893761Y-148677523D01*
X155893761Y-148677523D02*
X155941380Y-148772761D01*
X155941380Y-148772761D02*
X155941380Y-149058475D01*
X155941380Y-149058475D02*
X155893761Y-149153713D01*
X155893761Y-149153713D02*
X155846142Y-149201332D01*
%TO.C,U2*%
X164338095Y-124181380D02*
X164338095Y-124990904D01*
X164338095Y-124990904D02*
X164385714Y-125086142D01*
X164385714Y-125086142D02*
X164433333Y-125133761D01*
X164433333Y-125133761D02*
X164528571Y-125181380D01*
X164528571Y-125181380D02*
X164719047Y-125181380D01*
X164719047Y-125181380D02*
X164814285Y-125133761D01*
X164814285Y-125133761D02*
X164861904Y-125086142D01*
X164861904Y-125086142D02*
X164909523Y-124990904D01*
X164909523Y-124990904D02*
X164909523Y-124181380D01*
X165338095Y-124276619D02*
X165385714Y-124229000D01*
X165385714Y-124229000D02*
X165480952Y-124181380D01*
X165480952Y-124181380D02*
X165719047Y-124181380D01*
X165719047Y-124181380D02*
X165814285Y-124229000D01*
X165814285Y-124229000D02*
X165861904Y-124276619D01*
X165861904Y-124276619D02*
X165909523Y-124371857D01*
X165909523Y-124371857D02*
X165909523Y-124467095D01*
X165909523Y-124467095D02*
X165861904Y-124609952D01*
X165861904Y-124609952D02*
X165290476Y-125181380D01*
X165290476Y-125181380D02*
X165909523Y-125181380D01*
%TO.C,C6*%
X157596142Y-102848666D02*
X157643761Y-102896285D01*
X157643761Y-102896285D02*
X157691380Y-103039142D01*
X157691380Y-103039142D02*
X157691380Y-103134380D01*
X157691380Y-103134380D02*
X157643761Y-103277237D01*
X157643761Y-103277237D02*
X157548523Y-103372475D01*
X157548523Y-103372475D02*
X157453285Y-103420094D01*
X157453285Y-103420094D02*
X157262809Y-103467713D01*
X157262809Y-103467713D02*
X157119952Y-103467713D01*
X157119952Y-103467713D02*
X156929476Y-103420094D01*
X156929476Y-103420094D02*
X156834238Y-103372475D01*
X156834238Y-103372475D02*
X156739000Y-103277237D01*
X156739000Y-103277237D02*
X156691380Y-103134380D01*
X156691380Y-103134380D02*
X156691380Y-103039142D01*
X156691380Y-103039142D02*
X156739000Y-102896285D01*
X156739000Y-102896285D02*
X156786619Y-102848666D01*
X156691380Y-101991523D02*
X156691380Y-102181999D01*
X156691380Y-102181999D02*
X156739000Y-102277237D01*
X156739000Y-102277237D02*
X156786619Y-102324856D01*
X156786619Y-102324856D02*
X156929476Y-102420094D01*
X156929476Y-102420094D02*
X157119952Y-102467713D01*
X157119952Y-102467713D02*
X157500904Y-102467713D01*
X157500904Y-102467713D02*
X157596142Y-102420094D01*
X157596142Y-102420094D02*
X157643761Y-102372475D01*
X157643761Y-102372475D02*
X157691380Y-102277237D01*
X157691380Y-102277237D02*
X157691380Y-102086761D01*
X157691380Y-102086761D02*
X157643761Y-101991523D01*
X157643761Y-101991523D02*
X157596142Y-101943904D01*
X157596142Y-101943904D02*
X157500904Y-101896285D01*
X157500904Y-101896285D02*
X157262809Y-101896285D01*
X157262809Y-101896285D02*
X157167571Y-101943904D01*
X157167571Y-101943904D02*
X157119952Y-101991523D01*
X157119952Y-101991523D02*
X157072333Y-102086761D01*
X157072333Y-102086761D02*
X157072333Y-102277237D01*
X157072333Y-102277237D02*
X157119952Y-102372475D01*
X157119952Y-102372475D02*
X157167571Y-102420094D01*
X157167571Y-102420094D02*
X157262809Y-102467713D01*
D11*
%TO.C,U7*%
X171744000Y-141126000D02*
X172884000Y-141126000D01*
X172884000Y-140896000D02*
X172884000Y-141126000D01*
X172884000Y-140896000D02*
X175604000Y-140896000D01*
X172884000Y-145616000D02*
X172884000Y-145386000D01*
X175604000Y-140896000D02*
X175604000Y-142206000D01*
X175604000Y-144306000D02*
X175604000Y-145616000D01*
X175604000Y-145616000D02*
X172884000Y-145616000D01*
%TO.C,R4*%
X154167064Y-153643000D02*
X153712936Y-153643000D01*
X154167064Y-152173000D02*
X153712936Y-152173000D01*
%TO.C,C8*%
X179128748Y-140997000D02*
X179651252Y-140997000D01*
X179128748Y-142467000D02*
X179651252Y-142467000D01*
%TO.C,J3*%
X137922000Y-147066000D02*
X137922000Y-148336000D01*
X136652000Y-147066000D02*
X137922000Y-147066000D01*
X134492000Y-149378929D02*
X134492000Y-149776000D01*
X133732000Y-149378929D02*
X133732000Y-149776000D01*
X137032000Y-149446000D02*
X137032000Y-149776000D01*
X136272000Y-149446000D02*
X136272000Y-149776000D01*
X137982000Y-149776000D02*
X132782000Y-149776000D01*
X135382000Y-149776000D02*
X135382000Y-152436000D01*
X132782000Y-149776000D02*
X132782000Y-152436000D01*
X137982000Y-152436000D02*
X137982000Y-149776000D01*
X137032000Y-152436000D02*
X137032000Y-158436000D01*
X136972000Y-152436000D02*
X136972000Y-158436000D01*
X136852000Y-152436000D02*
X136852000Y-158436000D01*
X136732000Y-152436000D02*
X136732000Y-158436000D01*
X136612000Y-152436000D02*
X136612000Y-158436000D01*
X136492000Y-152436000D02*
X136492000Y-158436000D01*
X136372000Y-152436000D02*
X136372000Y-158436000D01*
X134492000Y-152436000D02*
X134492000Y-158436000D01*
X132782000Y-152436000D02*
X137982000Y-152436000D01*
X137032000Y-158436000D02*
X136272000Y-158436000D01*
X136272000Y-158436000D02*
X136272000Y-152436000D01*
X134492000Y-158436000D02*
X133732000Y-158436000D01*
X133732000Y-158436000D02*
X133732000Y-152436000D01*
%TO.C,C10*%
X167921000Y-142435252D02*
X167921000Y-141912748D01*
X169391000Y-142435252D02*
X169391000Y-141912748D01*
%TO.C,C1*%
X166809248Y-114011000D02*
X167331752Y-114011000D01*
X166809248Y-115481000D02*
X167331752Y-115481000D01*
%TO.C,TP1*%
X128082000Y-145862000D02*
X129982000Y-145862000D01*
X128082000Y-147762000D02*
X128082000Y-145862000D01*
X129982000Y-145862000D02*
X129982000Y-147762000D01*
X129982000Y-147762000D02*
X128082000Y-147762000D01*
%TO.C,C2*%
X166870748Y-117121000D02*
X167393252Y-117121000D01*
X166870748Y-118591000D02*
X167393252Y-118591000D01*
%TO.C,D1*%
X171867000Y-117912000D02*
X171867000Y-119832000D01*
X171867000Y-119832000D02*
X174727000Y-119832000D01*
X174727000Y-117912000D02*
X171867000Y-117912000D01*
%TO.C,R5*%
X131815064Y-81507000D02*
X131360936Y-81507000D01*
X131815064Y-80037000D02*
X131360936Y-80037000D01*
%TO.C,C12*%
X174017000Y-80083252D02*
X174017000Y-79560748D01*
X175487000Y-80083252D02*
X175487000Y-79560748D01*
D12*
%TO.C,U5*%
X130948000Y-86385911D02*
X129147975Y-86385911D01*
X130948000Y-83285886D02*
X129147975Y-83285886D01*
X128777997Y-83184997D02*
G75*
G03*
X128777997Y-83184997I-127000J0D01*
G01*
D13*
X128677973Y-83400923D02*
G75*
G03*
X128677973Y-83400923I-29998J0D01*
G01*
D12*
%TO.C,S1*%
X163116000Y-86998914D02*
X163116000Y-84705086D01*
X163711885Y-82852000D02*
X168520115Y-82852000D01*
X168520115Y-88852000D02*
X163711885Y-88852000D01*
X169116000Y-84705086D02*
X169116000Y-86998914D01*
D13*
X162445947Y-82852000D02*
G75*
G03*
X162445947Y-82852000I-29972J0D01*
G01*
D12*
X164763193Y-84051898D02*
G75*
G03*
X164763193Y-84051898I-447295J0D01*
G01*
X164763193Y-87652102D02*
G75*
G03*
X164763193Y-87652102I-447295J0D01*
G01*
X167916102Y-85852000D02*
G75*
G03*
X167916102Y-85852000I-1800102J0D01*
G01*
X168363396Y-84052152D02*
G75*
G03*
X168363396Y-84052152I-447294J0D01*
G01*
X168363396Y-87652102D02*
G75*
G03*
X168363396Y-87652102I-447294J0D01*
G01*
D11*
%TO.C,J1*%
X177743000Y-129027000D02*
X179013000Y-129027000D01*
X177743000Y-130297000D02*
X177743000Y-129027000D01*
X180055929Y-132457000D02*
X180453000Y-132457000D01*
X180055929Y-133217000D02*
X180453000Y-133217000D01*
X180123000Y-129917000D02*
X180453000Y-129917000D01*
X180123000Y-130677000D02*
X180453000Y-130677000D01*
X180453000Y-128967000D02*
X180453000Y-134167000D01*
X180453000Y-131567000D02*
X183113000Y-131567000D01*
X180453000Y-134167000D02*
X183113000Y-134167000D01*
X183113000Y-128967000D02*
X180453000Y-128967000D01*
X183113000Y-129917000D02*
X189113000Y-129917000D01*
X183113000Y-129977000D02*
X189113000Y-129977000D01*
X183113000Y-130097000D02*
X189113000Y-130097000D01*
X183113000Y-130217000D02*
X189113000Y-130217000D01*
X183113000Y-130337000D02*
X189113000Y-130337000D01*
X183113000Y-130457000D02*
X189113000Y-130457000D01*
X183113000Y-130577000D02*
X189113000Y-130577000D01*
X183113000Y-132457000D02*
X189113000Y-132457000D01*
X183113000Y-134167000D02*
X183113000Y-128967000D01*
X189113000Y-129917000D02*
X189113000Y-130677000D01*
X189113000Y-130677000D02*
X183113000Y-130677000D01*
X189113000Y-132457000D02*
X189113000Y-133217000D01*
X189113000Y-133217000D02*
X183113000Y-133217000D01*
%TO.C,C5*%
X159739000Y-106992748D02*
X159739000Y-107515252D01*
X158269000Y-106992748D02*
X158269000Y-107515252D01*
D12*
%TO.C,U6*%
X122435949Y-86319873D02*
X120635924Y-86319873D01*
X122435949Y-83219848D02*
X120635924Y-83219848D01*
X120265946Y-83118959D02*
G75*
G03*
X120265946Y-83118959I-127000J0D01*
G01*
D13*
X120165922Y-83334885D02*
G75*
G03*
X120165922Y-83334885I-29998J0D01*
G01*
D11*
%TO.C,D4*%
X156627000Y-149916000D02*
X156627000Y-151836000D01*
X156627000Y-151836000D02*
X159487000Y-151836000D01*
X159487000Y-149916000D02*
X156627000Y-149916000D01*
D12*
%TO.C,USB1*%
X161848005Y-150783171D02*
X162576733Y-150786066D01*
X161857987Y-156353173D02*
X161862534Y-155413422D01*
X161872999Y-152773696D02*
X161876707Y-152565924D01*
X161872999Y-152773696D02*
X161908000Y-150813168D01*
X161875285Y-152773341D02*
X161876123Y-152598766D01*
X162158013Y-155833158D02*
X161857987Y-156353173D01*
X162608000Y-155813168D02*
X162158013Y-155833158D01*
X162608000Y-155813168D02*
X162608000Y-156313168D01*
X162608000Y-155813168D02*
X168708000Y-155813168D01*
X162608000Y-156313168D02*
X168697992Y-156343166D01*
X163794411Y-150790892D02*
X163876885Y-150791222D01*
X167339140Y-150804964D02*
X167406984Y-150805218D01*
X168663804Y-150810222D02*
X169408000Y-150813168D01*
X168697992Y-156343166D02*
X168708000Y-155813168D01*
X168708000Y-155813168D02*
X169008000Y-155813168D01*
X169008000Y-155813168D02*
X169408000Y-156313168D01*
X169408000Y-150813168D02*
X169408000Y-152786320D01*
X169408000Y-156313168D02*
X169408000Y-155402475D01*
D13*
X161667944Y-150732218D02*
G75*
G03*
X161667944Y-150732218I-29997J0D01*
G01*
D11*
%TO.C,C9*%
X127733248Y-149633000D02*
X128255752Y-149633000D01*
X127733248Y-151103000D02*
X128255752Y-151103000D01*
%TO.C,R2*%
X171985000Y-124671064D02*
X171985000Y-124216936D01*
X173455000Y-124671064D02*
X173455000Y-124216936D01*
%TO.C,C7*%
X179041248Y-137441000D02*
X179563752Y-137441000D01*
X179041248Y-138911000D02*
X179563752Y-138911000D01*
%TO.C,D3*%
X160347000Y-147772000D02*
X160347000Y-145852000D01*
X160347000Y-145852000D02*
X157487000Y-145852000D01*
X157487000Y-147772000D02*
X160347000Y-147772000D01*
%TO.C,J2*%
X131121000Y-143759000D02*
X129851000Y-143759000D01*
X131121000Y-142489000D02*
X131121000Y-143759000D01*
X128808071Y-140329000D02*
X128411000Y-140329000D01*
X128808071Y-139569000D02*
X128411000Y-139569000D01*
X128808071Y-137789000D02*
X128411000Y-137789000D01*
X128808071Y-137029000D02*
X128411000Y-137029000D01*
X128808071Y-135249000D02*
X128411000Y-135249000D01*
X128808071Y-134489000D02*
X128411000Y-134489000D01*
X128808071Y-132709000D02*
X128411000Y-132709000D01*
X128808071Y-131949000D02*
X128411000Y-131949000D01*
X128808071Y-130169000D02*
X128411000Y-130169000D01*
X128808071Y-129409000D02*
X128411000Y-129409000D01*
X128808071Y-127629000D02*
X128411000Y-127629000D01*
X128808071Y-126869000D02*
X128411000Y-126869000D01*
X128808071Y-125089000D02*
X128411000Y-125089000D01*
X128808071Y-124329000D02*
X128411000Y-124329000D01*
X128808071Y-122549000D02*
X128411000Y-122549000D01*
X128808071Y-121789000D02*
X128411000Y-121789000D01*
X128808071Y-120009000D02*
X128411000Y-120009000D01*
X128808071Y-119249000D02*
X128411000Y-119249000D01*
X128741000Y-142869000D02*
X128411000Y-142869000D01*
X128741000Y-142109000D02*
X128411000Y-142109000D01*
X128411000Y-143819000D02*
X128411000Y-118299000D01*
X128411000Y-141219000D02*
X125751000Y-141219000D01*
X128411000Y-138679000D02*
X125751000Y-138679000D01*
X128411000Y-136139000D02*
X125751000Y-136139000D01*
X128411000Y-133599000D02*
X125751000Y-133599000D01*
X128411000Y-131059000D02*
X125751000Y-131059000D01*
X128411000Y-128519000D02*
X125751000Y-128519000D01*
X128411000Y-125979000D02*
X125751000Y-125979000D01*
X128411000Y-123439000D02*
X125751000Y-123439000D01*
X128411000Y-120899000D02*
X125751000Y-120899000D01*
X128411000Y-118299000D02*
X125751000Y-118299000D01*
X125751000Y-143819000D02*
X128411000Y-143819000D01*
X125751000Y-142869000D02*
X119751000Y-142869000D01*
X125751000Y-142809000D02*
X119751000Y-142809000D01*
X125751000Y-142689000D02*
X119751000Y-142689000D01*
X125751000Y-142569000D02*
X119751000Y-142569000D01*
X125751000Y-142449000D02*
X119751000Y-142449000D01*
X125751000Y-142329000D02*
X119751000Y-142329000D01*
X125751000Y-142209000D02*
X119751000Y-142209000D01*
X125751000Y-140329000D02*
X119751000Y-140329000D01*
X125751000Y-137789000D02*
X119751000Y-137789000D01*
X125751000Y-135249000D02*
X119751000Y-135249000D01*
X125751000Y-132709000D02*
X119751000Y-132709000D01*
X125751000Y-130169000D02*
X119751000Y-130169000D01*
X125751000Y-127629000D02*
X119751000Y-127629000D01*
X125751000Y-125089000D02*
X119751000Y-125089000D01*
X125751000Y-122549000D02*
X119751000Y-122549000D01*
X125751000Y-120009000D02*
X119751000Y-120009000D01*
X125751000Y-118299000D02*
X125751000Y-143819000D01*
X119751000Y-142869000D02*
X119751000Y-142109000D01*
X119751000Y-142109000D02*
X125751000Y-142109000D01*
X119751000Y-140329000D02*
X119751000Y-139569000D01*
X119751000Y-139569000D02*
X125751000Y-139569000D01*
X119751000Y-137789000D02*
X119751000Y-137029000D01*
X119751000Y-137029000D02*
X125751000Y-137029000D01*
X119751000Y-135249000D02*
X119751000Y-134489000D01*
X119751000Y-134489000D02*
X125751000Y-134489000D01*
X119751000Y-132709000D02*
X119751000Y-131949000D01*
X119751000Y-131949000D02*
X125751000Y-131949000D01*
X119751000Y-130169000D02*
X119751000Y-129409000D01*
X119751000Y-129409000D02*
X125751000Y-129409000D01*
X119751000Y-127629000D02*
X119751000Y-126869000D01*
X119751000Y-126869000D02*
X125751000Y-126869000D01*
X119751000Y-125089000D02*
X119751000Y-124329000D01*
X119751000Y-124329000D02*
X125751000Y-124329000D01*
X119751000Y-122549000D02*
X119751000Y-121789000D01*
X119751000Y-121789000D02*
X125751000Y-121789000D01*
X119751000Y-120009000D02*
X119751000Y-119249000D01*
X119751000Y-119249000D02*
X125751000Y-119249000D01*
%TO.C,R1*%
X171985000Y-129751064D02*
X171985000Y-129296936D01*
X173455000Y-129751064D02*
X173455000Y-129296936D01*
%TO.C,D2*%
X171867000Y-114356000D02*
X171867000Y-116276000D01*
X171867000Y-116276000D02*
X174727000Y-116276000D01*
X174727000Y-114356000D02*
X171867000Y-114356000D01*
%TO.C,C11*%
X167921000Y-146499252D02*
X167921000Y-145976748D01*
X169391000Y-146499252D02*
X169391000Y-145976748D01*
D14*
%TO.C,U3*%
X133093412Y-111265787D02*
X133093412Y-116318213D01*
X130050588Y-111265787D02*
X133093412Y-111265787D01*
X133093412Y-116318213D02*
X130050588Y-116318213D01*
X130050588Y-116318213D02*
X130050588Y-111265787D01*
D15*
X128949698Y-111140489D02*
G75*
G03*
X128949698Y-111140489I-150114J0D01*
G01*
D13*
X128601972Y-111341911D02*
G75*
G03*
X128601972Y-111341911I-29972J0D01*
G01*
D15*
X130953000Y-111886996D02*
G75*
G03*
X130953000Y-111886996I-150114J0D01*
G01*
D12*
%TO.C,BT1*%
X95402240Y-78930521D02*
X172491394Y-78930521D01*
X172491394Y-78930521D02*
X172491394Y-58229479D01*
X104990759Y-68580000D02*
X107276764Y-68580000D01*
X160616870Y-68580000D02*
X162902875Y-68580000D01*
X106133761Y-67436998D02*
X106133761Y-69723002D01*
X95402240Y-58229479D02*
X95402240Y-78930521D01*
X172491394Y-58229479D02*
X95402240Y-58229479D01*
X107733964Y-68580000D02*
G75*
G03*
X107733964Y-68580000I-1600203J0D01*
G01*
X163360076Y-68580000D02*
G75*
G03*
X163360076Y-68580000I-1600203J0D01*
G01*
D13*
X176991775Y-58229987D02*
G75*
G03*
X176991775Y-58229987I-29972J0D01*
G01*
D11*
%TO.C,TP3*%
X176850000Y-150434000D02*
X178750000Y-150434000D01*
X176850000Y-152334000D02*
X176850000Y-150434000D01*
X178750000Y-150434000D02*
X178750000Y-152334000D01*
X178750000Y-152334000D02*
X176850000Y-152334000D01*
%TO.C,J7*%
X156464000Y-82550000D02*
X137414000Y-82550000D01*
X156464000Y-82550000D02*
X156464000Y-143510000D01*
X156464000Y-143510000D02*
X137414000Y-143510000D01*
X137414000Y-143510000D02*
X137414000Y-82550000D01*
%TO.C,TP2*%
X119446000Y-89982000D02*
X121346000Y-89982000D01*
X119446000Y-91882000D02*
X119446000Y-89982000D01*
X121346000Y-89982000D02*
X121346000Y-91882000D01*
X121346000Y-91882000D02*
X119446000Y-91882000D01*
%TO.C,R7*%
X134847000Y-83576936D02*
X134847000Y-84031064D01*
X133377000Y-83576936D02*
X133377000Y-84031064D01*
%TO.C,C3*%
X132394000Y-101320252D02*
X132394000Y-100797748D01*
X133864000Y-101320252D02*
X133864000Y-100797748D01*
D12*
%TO.C,U4*%
X148862038Y-148326089D02*
X148862038Y-153426165D01*
X147612102Y-148326089D02*
X148862038Y-148326089D01*
X146011898Y-148326089D02*
X144761962Y-148326089D01*
X148862038Y-153425911D02*
X144761962Y-153425911D01*
X144761962Y-153425911D02*
X144761962Y-148325835D01*
X146011899Y-148376127D02*
G75*
G03*
X147612101Y-148376127I800101J375289D01*
G01*
X144482053Y-147846028D02*
G75*
G03*
X144482053Y-147846028I-170180J0D01*
G01*
D13*
X143892010Y-148421847D02*
G75*
G03*
X143892010Y-148421847I-29972J0D01*
G01*
D11*
%TO.C,C4*%
X132394000Y-95290252D02*
X132394000Y-94767748D01*
X133864000Y-95290252D02*
X133864000Y-94767748D01*
%TO.C,R6*%
X125211064Y-83031000D02*
X124756936Y-83031000D01*
X125211064Y-81561000D02*
X124756936Y-81561000D01*
%TO.C,Y1*%
X130058000Y-89334500D02*
X124958000Y-89334500D01*
X124958000Y-89334500D02*
X124958000Y-105309500D01*
X130058000Y-105309500D02*
X130058000Y-89334500D01*
%TO.C,R3*%
X154659000Y-149140936D02*
X154659000Y-149595064D01*
X153189000Y-149140936D02*
X153189000Y-149595064D01*
D10*
%TO.C,U2*%
X162225000Y-125739000D02*
X162225000Y-126314000D01*
X162225000Y-125739000D02*
X167975000Y-125739000D01*
X162225000Y-126314000D02*
X160625000Y-126314000D01*
X162225000Y-136389000D02*
X162225000Y-135739000D01*
X162225000Y-136389000D02*
X167975000Y-136389000D01*
X167975000Y-125739000D02*
X167975000Y-126389000D01*
X167975000Y-136389000D02*
X167975000Y-135739000D01*
D11*
%TO.C,C6*%
X158269000Y-102943252D02*
X158269000Y-102420748D01*
X159739000Y-102943252D02*
X159739000Y-102420748D01*
%TD*%
M02*
