%TF.GenerationSoftware,KiCad,Pcbnew,(7.0.0)*%
%TF.CreationDate,2023-03-21T11:28:41+02:00*%
%TF.ProjectId,EEE3088_design_project,45454533-3038-4385-9f64-657369676e5f,1.0*%
%TF.SameCoordinates,Original*%
%TF.FileFunction,Copper,L2,Bot*%
%TF.FilePolarity,Positive*%
%FSLAX46Y46*%
G04 Gerber Fmt 4.6, Leading zero omitted, Abs format (unit mm)*
G04 Created by KiCad (PCBNEW (7.0.0)) date 2023-03-21 11:28:41*
%MOMM*%
%LPD*%
G01*
G04 APERTURE LIST*
%TA.AperFunction,ComponentPad*%
%ADD10R,1.700000X1.700000*%
%TD*%
%TA.AperFunction,ComponentPad*%
%ADD11O,1.700000X1.700000*%
%TD*%
%TA.AperFunction,ComponentPad*%
%ADD12C,1.800000*%
%TD*%
%TA.AperFunction,ComponentPad*%
%ADD13C,1.300000*%
%TD*%
%TA.AperFunction,ComponentPad*%
%ADD14O,1.300000X2.200000*%
%TD*%
%TA.AperFunction,ComponentPad*%
%ADD15C,1.524000*%
%TD*%
%TA.AperFunction,ViaPad*%
%ADD16C,0.800000*%
%TD*%
%TA.AperFunction,Conductor*%
%ADD17C,0.250000*%
%TD*%
G04 APERTURE END LIST*
D10*
%TO.P,J3,1,Pin_1*%
%TO.N,GND*%
X136651999Y-148335999D03*
D11*
%TO.P,J3,2,Pin_2*%
%TO.N,+5V*%
X134111999Y-148335999D03*
%TD*%
D12*
%TO.P,S1,1,1*%
%TO.N,unconnected-(S1-Pad1)*%
X162866064Y-83602064D03*
%TO.P,S1,2,2*%
%TO.N,GND*%
X169365936Y-83602064D03*
%TO.P,S1,3,3*%
%TO.N,unconnected-(S1-Pad3)*%
X162866064Y-88101936D03*
%TO.P,S1,4,4*%
%TO.N,/Microcontroller Interface/NRST*%
X169365936Y-88101936D03*
%TD*%
D10*
%TO.P,J1,1,Pin_1*%
%TO.N,/Power managment/POS_terminal*%
X179012999Y-130296999D03*
D11*
%TO.P,J1,2,Pin_2*%
%TO.N,Vout3*%
X179012999Y-132836999D03*
%TD*%
D13*
%TO.P,USB1,6,SH1*%
%TO.N,unconnected-(USB1-SH1-Pad6)*%
X168032943Y-151424446D03*
D14*
%TO.P,USB1,7,SH2*%
%TO.N,unconnected-(USB1-SH2-Pad7)*%
X169207948Y-154094498D03*
%TO.P,USB1,8,SH3*%
%TO.N,unconnected-(USB1-SH3-Pad8)*%
X162008050Y-154094498D03*
D13*
%TO.P,USB1,9,SH4*%
%TO.N,unconnected-(USB1-SH4-Pad9)*%
X163183057Y-151424446D03*
%TD*%
D10*
%TO.P,J2,1,Pin_1*%
%TO.N,+5V*%
X129850999Y-142488999D03*
D11*
%TO.P,J2,2,Pin_2*%
%TO.N,Analog temp sensor*%
X129850999Y-139948999D03*
%TO.P,J2,3,Pin_3*%
%TO.N,Temp_Sensor_SDA*%
X129850999Y-137408999D03*
%TO.P,J2,4,Pin_4*%
%TO.N,Temp_Sensor_SLC*%
X129850999Y-134868999D03*
%TO.P,J2,5,Pin_5*%
%TO.N,unconnected-(J2-Pin_5-Pad5)*%
X129850999Y-132328999D03*
%TO.P,J2,6,Pin_6*%
%TO.N,unconnected-(J2-Pin_6-Pad6)*%
X129850999Y-129788999D03*
%TO.P,J2,7,Pin_7*%
%TO.N,/Microcontroller Interface/Plug_Detect*%
X129850999Y-127248999D03*
%TO.P,J2,8,Pin_8*%
%TO.N,/Microcontroller Interface/TX*%
X129850999Y-124708999D03*
%TO.P,J2,9,Pin_9*%
%TO.N,/Microcontroller Interface/RX*%
X129850999Y-122168999D03*
%TO.P,J2,10,Pin_10*%
%TO.N,GND*%
X129850999Y-119628999D03*
%TD*%
D15*
%TO.P,J7,1,Pin_1*%
%TO.N,unconnected-(J7-Pin_1-Pad1)*%
X138684000Y-83820000D03*
%TO.P,J7,2,Pin_2*%
%TO.N,unconnected-(J7-Pin_2-Pad2)*%
X138684000Y-86360000D03*
%TO.P,J7,3,Pin_3*%
%TO.N,unconnected-(J7-Pin_3-Pad3)*%
X138684000Y-88900000D03*
%TO.P,J7,4,Pin_4*%
%TO.N,unconnected-(J7-Pin_4-Pad4)*%
X138684000Y-91440000D03*
%TO.P,J7,5,Pin_5*%
%TO.N,Net-(J7-Pin_5)*%
X138684000Y-93980000D03*
%TO.P,J7,6,Pin_6*%
%TO.N,Net-(J7-Pin_6)*%
X138684000Y-96520000D03*
%TO.P,J7,7,Pin_7*%
%TO.N,/Microcontroller Interface/NRST*%
X138684000Y-99060000D03*
%TO.P,J7,8,Pin_8*%
%TO.N,GND*%
X138684000Y-101600000D03*
%TO.P,J7,9,Pin_9*%
%TO.N,Vout3*%
X138684000Y-104140000D03*
%TO.P,J7,10,Pin_10*%
%TO.N,PA0*%
X138684000Y-106680000D03*
%TO.P,J7,11,Pin_11*%
%TO.N,PA1*%
X138684000Y-109220000D03*
%TO.P,J7,12,Pin_12*%
%TO.N,PA2*%
X138684000Y-111760000D03*
%TO.P,J7,13,Pin_13*%
%TO.N,PA3*%
X138684000Y-114300000D03*
%TO.P,J7,14,Pin_14*%
%TO.N,PA4*%
X138684000Y-116840000D03*
%TO.P,J7,15,Pin_15*%
%TO.N,PA5*%
X138684000Y-119380000D03*
%TO.P,J7,16,Pin_16*%
%TO.N,PA6*%
X138684000Y-121920000D03*
%TO.P,J7,17,Pin_17*%
%TO.N,unconnected-(J7-Pin_17-Pad17)*%
X138684000Y-124460000D03*
%TO.P,J7,18,Pin_18*%
%TO.N,Analog temp sensor*%
X138684000Y-127000000D03*
%TO.P,J7,19,Pin_19*%
%TO.N,PB1*%
X138684000Y-129540000D03*
%TO.P,J7,20,Pin_20*%
%TO.N,PB2*%
X138684000Y-132080000D03*
%TO.P,J7,21,Pin_21*%
%TO.N,Temp_Sensor_SLC*%
X138684000Y-134620000D03*
%TO.P,J7,22,Pin_22*%
%TO.N,Temp_Sensor_SDA*%
X138684000Y-137160000D03*
%TO.P,J7,23,Pin_23*%
%TO.N,GND*%
X138684000Y-139700000D03*
%TO.P,J7,24,Pin_24*%
%TO.N,Vout3*%
X138684000Y-142240000D03*
%TO.P,J7,25,Pin_25*%
%TO.N,PB12*%
X155194000Y-142240000D03*
%TO.P,J7,26,Pin_26*%
%TO.N,PB13*%
X155194000Y-139700000D03*
%TO.P,J7,27,Pin_27*%
%TO.N,PB14*%
X155194000Y-137160000D03*
%TO.P,J7,28,Pin_28*%
%TO.N,PB15*%
X155194000Y-134620000D03*
%TO.P,J7,29,Pin_29*%
%TO.N,PA8*%
X155194000Y-132080000D03*
%TO.P,J7,30,Pin_30*%
%TO.N,/Microcontroller Interface/RX*%
X155194000Y-129540000D03*
%TO.P,J7,31,Pin_31*%
%TO.N,/Microcontroller Interface/TX*%
X155194000Y-127000000D03*
%TO.P,J7,32,Pin_32*%
%TO.N,PA11*%
X155194000Y-124460000D03*
%TO.P,J7,33,Pin_33*%
%TO.N,PA12*%
X155194000Y-121920000D03*
%TO.P,J7,34,Pin_34*%
%TO.N,PA13*%
X155194000Y-119380000D03*
%TO.P,J7,35,Pin_35*%
%TO.N,/Microcontroller Interface/Eprom_SLC*%
X155194000Y-116840000D03*
%TO.P,J7,36,Pin_36*%
%TO.N,/Microcontroller Interface/Eprom_SDA*%
X155194000Y-114300000D03*
%TO.P,J7,37,Pin_37*%
%TO.N,PA14*%
X155194000Y-111760000D03*
%TO.P,J7,38,Pin_38*%
%TO.N,PA15*%
X155194000Y-109220000D03*
%TO.P,J7,39,Pin_39*%
%TO.N,PB3*%
X155194000Y-106680000D03*
%TO.P,J7,40,Pin_40*%
%TO.N,PB4*%
X155194000Y-104140000D03*
%TO.P,J7,41,Pin_41*%
%TO.N,PB5*%
X155194000Y-101600000D03*
%TO.P,J7,42,Pin_42*%
%TO.N,PB6*%
X155194000Y-99060000D03*
%TO.P,J7,43,Pin_43*%
%TO.N,PB7*%
X155194000Y-96520000D03*
%TO.P,J7,44,Pin_44*%
%TO.N,unconnected-(J7-Pin_44-Pad44)*%
X155194000Y-93980000D03*
%TO.P,J7,45,Pin_45*%
%TO.N,PB8*%
X155194000Y-91440000D03*
%TO.P,J7,46,Pin_46*%
%TO.N,PB9*%
X155194000Y-88900000D03*
%TO.P,J7,47,Pin_47*%
%TO.N,GND*%
X155194000Y-86360000D03*
%TO.P,J7,48,Pin_48*%
%TO.N,Vout3*%
X155194000Y-83820000D03*
%TD*%
D16*
%TO.N,Analog temp sensor*%
X133604000Y-132588000D03*
X133604000Y-139700000D03*
%TO.N,/Power managment/POS_terminal*%
X170180000Y-144272000D03*
X151384000Y-153416000D03*
%TO.N,Net-(BT1--)*%
X119888000Y-77216000D03*
X119888000Y-81788000D03*
%TO.N,Vout3*%
X172720000Y-152400000D03*
X172720000Y-147320000D03*
X172720000Y-110236000D03*
%TO.N,Net-(J7-Pin_5)*%
X131064000Y-93980000D03*
X131064000Y-89916000D03*
%TD*%
D17*
%TO.N,Analog temp sensor*%
X133604000Y-139700000D02*
X133604000Y-132588000D01*
%TO.N,/Microcontroller Interface/TX*%
X147828000Y-127000000D02*
X154940000Y-127000000D01*
X129851000Y-124709000D02*
X133853000Y-124709000D01*
X135128000Y-125984000D02*
X135128000Y-143256000D01*
X133853000Y-124709000D02*
X135128000Y-125984000D01*
X146304000Y-128524000D02*
X147828000Y-127000000D01*
X146304000Y-142748000D02*
X146304000Y-128524000D01*
X135128000Y-143256000D02*
X137160000Y-145288000D01*
X137160000Y-145288000D02*
X143764000Y-145288000D01*
X143764000Y-145288000D02*
X146304000Y-142748000D01*
%TO.N,/Microcontroller Interface/RX*%
X150368000Y-129540000D02*
X154940000Y-129540000D01*
X136144000Y-146304000D02*
X144272000Y-146304000D01*
X127000000Y-122936000D02*
X127000000Y-144272000D01*
X129851000Y-122169000D02*
X127767000Y-122169000D01*
X128016000Y-145288000D02*
X135128000Y-145288000D01*
X147320000Y-132588000D02*
X150368000Y-129540000D01*
X135128000Y-145288000D02*
X136144000Y-146304000D01*
X127767000Y-122169000D02*
X127000000Y-122936000D01*
X144272000Y-146304000D02*
X147320000Y-143256000D01*
X147320000Y-143256000D02*
X147320000Y-132588000D01*
X127000000Y-144272000D02*
X128016000Y-145288000D01*
%TO.N,/Power managment/POS_terminal*%
X160528000Y-144272000D02*
X170180000Y-144272000D01*
X151384000Y-153416000D02*
X160528000Y-144272000D01*
%TO.N,Net-(BT1--)*%
X119888000Y-77216000D02*
X119888000Y-81788000D01*
%TO.N,Vout3*%
X175260000Y-144780000D02*
X175260000Y-132588000D01*
X174244000Y-110236000D02*
X172720000Y-110236000D01*
X175260000Y-111252000D02*
X174244000Y-110236000D01*
X175509000Y-132837000D02*
X175260000Y-132588000D01*
X179013000Y-132837000D02*
X175509000Y-132837000D01*
X172720000Y-147320000D02*
X175260000Y-144780000D01*
X175260000Y-132588000D02*
X175260000Y-111252000D01*
X172720000Y-147320000D02*
X172720000Y-152400000D01*
%TO.N,Net-(J7-Pin_5)*%
X131064000Y-89916000D02*
X131064000Y-93980000D01*
%TD*%
M02*
