%TF.GenerationSoftware,KiCad,Pcbnew,(7.0.0)*%
%TF.CreationDate,2023-03-21T11:28:41+02:00*%
%TF.ProjectId,EEE3088_design_project,45454533-3038-4385-9f64-657369676e5f,1.0*%
%TF.SameCoordinates,Original*%
%TF.FileFunction,Copper,L1,Top*%
%TF.FilePolarity,Positive*%
%FSLAX46Y46*%
G04 Gerber Fmt 4.6, Leading zero omitted, Abs format (unit mm)*
G04 Created by KiCad (PCBNEW (7.0.0)) date 2023-03-21 11:28:41*
%MOMM*%
%LPD*%
G01*
G04 APERTURE LIST*
G04 Aperture macros list*
%AMRoundRect*
0 Rectangle with rounded corners*
0 $1 Rounding radius*
0 $2 $3 $4 $5 $6 $7 $8 $9 X,Y pos of 4 corners*
0 Add a 4 corners polygon primitive as box body*
4,1,4,$2,$3,$4,$5,$6,$7,$8,$9,$2,$3,0*
0 Add four circle primitives for the rounded corners*
1,1,$1+$1,$2,$3*
1,1,$1+$1,$4,$5*
1,1,$1+$1,$6,$7*
1,1,$1+$1,$8,$9*
0 Add four rect primitives between the rounded corners*
20,1,$1+$1,$2,$3,$4,$5,0*
20,1,$1+$1,$4,$5,$6,$7,0*
20,1,$1+$1,$6,$7,$8,$9,0*
20,1,$1+$1,$8,$9,$2,$3,0*%
%AMFreePoly0*
4,1,9,3.862500,-0.866500,0.737500,-0.866500,0.737500,-0.450000,-0.737500,-0.450000,-0.737500,0.450000,0.737500,0.450000,0.737500,0.866500,3.862500,0.866500,3.862500,-0.866500,3.862500,-0.866500,$1*%
G04 Aperture macros list end*
%TA.AperFunction,SMDPad,CuDef*%
%ADD10R,1.300000X0.900000*%
%TD*%
%TA.AperFunction,SMDPad,CuDef*%
%ADD11FreePoly0,0.000000*%
%TD*%
%TA.AperFunction,SMDPad,CuDef*%
%ADD12RoundRect,0.250000X0.350000X0.450000X-0.350000X0.450000X-0.350000X-0.450000X0.350000X-0.450000X0*%
%TD*%
%TA.AperFunction,SMDPad,CuDef*%
%ADD13RoundRect,0.250000X-0.250000X-0.475000X0.250000X-0.475000X0.250000X0.475000X-0.250000X0.475000X0*%
%TD*%
%TA.AperFunction,ComponentPad*%
%ADD14R,1.700000X1.700000*%
%TD*%
%TA.AperFunction,ComponentPad*%
%ADD15O,1.700000X1.700000*%
%TD*%
%TA.AperFunction,SMDPad,CuDef*%
%ADD16RoundRect,0.250000X0.475000X-0.250000X0.475000X0.250000X-0.475000X0.250000X-0.475000X-0.250000X0*%
%TD*%
%TA.AperFunction,SMDPad,CuDef*%
%ADD17R,1.500000X1.500000*%
%TD*%
%TA.AperFunction,SMDPad,CuDef*%
%ADD18RoundRect,0.250000X-0.337500X-0.475000X0.337500X-0.475000X0.337500X0.475000X-0.337500X0.475000X0*%
%TD*%
%TA.AperFunction,SMDPad,CuDef*%
%ADD19RoundRect,0.250000X-0.325000X-0.450000X0.325000X-0.450000X0.325000X0.450000X-0.325000X0.450000X0*%
%TD*%
%TA.AperFunction,SMDPad,CuDef*%
%ADD20R,1.000000X0.550013*%
%TD*%
%TA.AperFunction,ComponentPad*%
%ADD21C,1.800000*%
%TD*%
%TA.AperFunction,SMDPad,CuDef*%
%ADD22RoundRect,0.250000X-0.475000X0.250000X-0.475000X-0.250000X0.475000X-0.250000X0.475000X0.250000X0*%
%TD*%
%TA.AperFunction,SMDPad,CuDef*%
%ADD23R,0.400000X1.400000*%
%TD*%
%TA.AperFunction,ComponentPad*%
%ADD24C,1.300000*%
%TD*%
%TA.AperFunction,ComponentPad*%
%ADD25O,1.300000X2.200000*%
%TD*%
%TA.AperFunction,SMDPad,CuDef*%
%ADD26RoundRect,0.250000X0.450000X-0.350000X0.450000X0.350000X-0.450000X0.350000X-0.450000X-0.350000X0*%
%TD*%
%TA.AperFunction,SMDPad,CuDef*%
%ADD27RoundRect,0.250000X0.325000X0.450000X-0.325000X0.450000X-0.325000X-0.450000X0.325000X-0.450000X0*%
%TD*%
%TA.AperFunction,SMDPad,CuDef*%
%ADD28O,2.045009X0.588011*%
%TD*%
%TA.AperFunction,SMDPad,CuDef*%
%ADD29R,5.080010X7.620015*%
%TD*%
%TA.AperFunction,ComponentPad*%
%ADD30C,1.524000*%
%TD*%
%TA.AperFunction,SMDPad,CuDef*%
%ADD31RoundRect,0.250000X-0.450000X0.350000X-0.450000X-0.350000X0.450000X-0.350000X0.450000X0.350000X0*%
%TD*%
%TA.AperFunction,SMDPad,CuDef*%
%ADD32R,1.200000X0.600000*%
%TD*%
%TA.AperFunction,SMDPad,CuDef*%
%ADD33R,2.400000X3.300000*%
%TD*%
%TA.AperFunction,SMDPad,CuDef*%
%ADD34R,2.000000X7.875000*%
%TD*%
%TA.AperFunction,SMDPad,CuDef*%
%ADD35R,1.750000X0.450000*%
%TD*%
%TA.AperFunction,ViaPad*%
%ADD36C,0.800000*%
%TD*%
%TA.AperFunction,Conductor*%
%ADD37C,0.250000*%
%TD*%
%TA.AperFunction,Conductor*%
%ADD38C,0.500000*%
%TD*%
%TA.AperFunction,Conductor*%
%ADD39C,0.200000*%
%TD*%
G04 APERTURE END LIST*
D10*
%TO.P,U7,1,GND*%
%TO.N,GND*%
X172293999Y-141755999D03*
D11*
%TO.P,U7,2,VIN*%
%TO.N,/Power managment/POS_terminal*%
X172381500Y-143256000D03*
D10*
%TO.P,U7,3,VOUT*%
%TO.N,Vout3*%
X172293999Y-144755999D03*
%TD*%
D12*
%TO.P,R4,1*%
%TO.N,Net-(D4-K)*%
X154940000Y-152908000D03*
%TO.P,R4,2*%
%TO.N,Net-(U4-STDBY#)*%
X152940000Y-152908000D03*
%TD*%
D13*
%TO.P,C8,1*%
%TO.N,GND*%
X178440000Y-141732000D03*
%TO.P,C8,2*%
%TO.N,+5V*%
X180340000Y-141732000D03*
%TD*%
D14*
%TO.P,J3,1,Pin_1*%
%TO.N,GND*%
X136651999Y-148335999D03*
D15*
%TO.P,J3,2,Pin_2*%
%TO.N,+5V*%
X134111999Y-148335999D03*
%TD*%
D16*
%TO.P,C10,1*%
%TO.N,/Power managment/POS_terminal*%
X168656000Y-143124000D03*
%TO.P,C10,2*%
%TO.N,GND*%
X168656000Y-141224000D03*
%TD*%
D13*
%TO.P,C1,1*%
%TO.N,GND*%
X166120500Y-114746000D03*
%TO.P,C1,2*%
%TO.N,Vout3*%
X168020500Y-114746000D03*
%TD*%
D17*
%TO.P,TP1,1,1*%
%TO.N,+5V*%
X129031999Y-146811999D03*
%TD*%
D18*
%TO.P,C2,1*%
%TO.N,GND*%
X166094500Y-117856000D03*
%TO.P,C2,2*%
%TO.N,Vout3*%
X168169500Y-117856000D03*
%TD*%
D19*
%TO.P,D1,1,K*%
%TO.N,Net-(D1-K)*%
X172702000Y-118872000D03*
%TO.P,D1,2,A*%
%TO.N,Vout3*%
X174752000Y-118872000D03*
%TD*%
D12*
%TO.P,R5,1*%
%TO.N,/Power managment/POS_terminal*%
X132588000Y-80772000D03*
%TO.P,R5,2*%
%TO.N,GND*%
X130588000Y-80772000D03*
%TD*%
D16*
%TO.P,C12,1*%
%TO.N,/Power managment/POS_terminal*%
X174752000Y-80772000D03*
%TO.P,C12,2*%
%TO.N,Net-(BT1--)*%
X174752000Y-78872000D03*
%TD*%
D20*
%TO.P,U5,1,OD*%
%TO.N,/Power managment/OD*%
X128647948Y-83886037D03*
%TO.P,U5,2,CS*%
%TO.N,Net-(U5-CS)*%
X128647948Y-84835999D03*
%TO.P,U5,3,OC*%
%TO.N,/Power managment/OC*%
X128647948Y-85785961D03*
%TO.P,U5,4,TD*%
%TO.N,unconnected-(U5-TD-Pad4)*%
X131448050Y-85785961D03*
%TO.P,U5,5,VCC*%
%TO.N,Net-(U5-VCC)*%
X131448050Y-84835999D03*
%TO.P,U5,6,GND*%
%TO.N,Net-(BT1--)*%
X131448050Y-83886037D03*
%TD*%
D21*
%TO.P,S1,1,1*%
%TO.N,unconnected-(S1-Pad1)*%
X162866064Y-83602064D03*
%TO.P,S1,2,2*%
%TO.N,GND*%
X169365936Y-83602064D03*
%TO.P,S1,3,3*%
%TO.N,unconnected-(S1-Pad3)*%
X162866064Y-88101936D03*
%TO.P,S1,4,4*%
%TO.N,/Microcontroller Interface/NRST*%
X169365936Y-88101936D03*
%TD*%
D14*
%TO.P,J1,1,Pin_1*%
%TO.N,/Power managment/POS_terminal*%
X179012999Y-130296999D03*
D15*
%TO.P,J1,2,Pin_2*%
%TO.N,Vout3*%
X179012999Y-132836999D03*
%TD*%
D22*
%TO.P,C5,1*%
%TO.N,GND*%
X159004000Y-106304000D03*
%TO.P,C5,2*%
%TO.N,Vout3*%
X159004000Y-108204000D03*
%TD*%
D20*
%TO.P,U6,1,S1*%
%TO.N,GND*%
X120135897Y-83819999D03*
%TO.P,U6,2,D1/D2*%
%TO.N,unconnected-(U6-D1{slash}D2-Pad2)*%
X120135897Y-84769961D03*
%TO.P,U6,3,S2*%
%TO.N,Net-(BT1--)*%
X120135897Y-85719923D03*
%TO.P,U6,4,G2*%
%TO.N,/Power managment/OD*%
X122935999Y-85719923D03*
%TO.P,U6,5,D1/D2*%
%TO.N,unconnected-(U6-D1{slash}D2-Pad5)*%
X122935999Y-84769961D03*
%TO.P,U6,6,G1*%
%TO.N,/Power managment/OC*%
X122935999Y-83819999D03*
%TD*%
D19*
%TO.P,D4,1,K*%
%TO.N,Net-(D4-K)*%
X157462000Y-150876000D03*
%TO.P,D4,2,A*%
%TO.N,GND*%
X159512000Y-150876000D03*
%TD*%
D23*
%TO.P,USB1,1,VBUS*%
%TO.N,+5V*%
X164308024Y-151051826D03*
%TO.P,USB1,2,D-*%
%TO.N,/Microcontroller Interface/D-*%
X164958012Y-151051826D03*
%TO.P,USB1,3,D+*%
%TO.N,/Microcontroller Interface/D+*%
X165607999Y-151051826D03*
%TO.P,USB1,4,ID*%
%TO.N,unconnected-(USB1-ID-Pad4)*%
X166257986Y-151051826D03*
%TO.P,USB1,5,GND*%
%TO.N,GND*%
X166907974Y-151051826D03*
D24*
%TO.P,USB1,6,SH1*%
%TO.N,unconnected-(USB1-SH1-Pad6)*%
X168032943Y-151424446D03*
D25*
%TO.P,USB1,7,SH2*%
%TO.N,unconnected-(USB1-SH2-Pad7)*%
X169207948Y-154094498D03*
%TO.P,USB1,8,SH3*%
%TO.N,unconnected-(USB1-SH3-Pad8)*%
X162008050Y-154094498D03*
D24*
%TO.P,USB1,9,SH4*%
%TO.N,unconnected-(USB1-SH4-Pad9)*%
X163183057Y-151424446D03*
%TD*%
D18*
%TO.P,C9,1*%
%TO.N,GND*%
X126957000Y-150368000D03*
%TO.P,C9,2*%
X129032000Y-150368000D03*
%TD*%
D26*
%TO.P,R2,1*%
%TO.N,Net-(U2-CBUS0)*%
X172720000Y-125444000D03*
%TO.P,R2,2*%
%TO.N,Net-(D2-K)*%
X172720000Y-123444000D03*
%TD*%
D18*
%TO.P,C7,1*%
%TO.N,GND*%
X178265000Y-138176000D03*
%TO.P,C7,2*%
%TO.N,+5V*%
X180340000Y-138176000D03*
%TD*%
D27*
%TO.P,D3,1,K*%
%TO.N,Net-(D3-K)*%
X159512000Y-146812000D03*
%TO.P,D3,2,A*%
%TO.N,GND*%
X157462000Y-146812000D03*
%TD*%
D14*
%TO.P,J2,1,Pin_1*%
%TO.N,+5V*%
X129850999Y-142488999D03*
D15*
%TO.P,J2,2,Pin_2*%
%TO.N,Analog temp sensor*%
X129850999Y-139948999D03*
%TO.P,J2,3,Pin_3*%
%TO.N,Temp_Sensor_SDA*%
X129850999Y-137408999D03*
%TO.P,J2,4,Pin_4*%
%TO.N,Temp_Sensor_SLC*%
X129850999Y-134868999D03*
%TO.P,J2,5,Pin_5*%
%TO.N,unconnected-(J2-Pin_5-Pad5)*%
X129850999Y-132328999D03*
%TO.P,J2,6,Pin_6*%
%TO.N,unconnected-(J2-Pin_6-Pad6)*%
X129850999Y-129788999D03*
%TO.P,J2,7,Pin_7*%
%TO.N,/Microcontroller Interface/Plug_Detect*%
X129850999Y-127248999D03*
%TO.P,J2,8,Pin_8*%
%TO.N,/Microcontroller Interface/TX*%
X129850999Y-124708999D03*
%TO.P,J2,9,Pin_9*%
%TO.N,/Microcontroller Interface/RX*%
X129850999Y-122168999D03*
%TO.P,J2,10,Pin_10*%
%TO.N,GND*%
X129850999Y-119628999D03*
%TD*%
D26*
%TO.P,R1,1*%
%TO.N,Net-(U2-CBUS1)*%
X172720000Y-130524000D03*
%TO.P,R1,2*%
%TO.N,Net-(D1-K)*%
X172720000Y-128524000D03*
%TD*%
D19*
%TO.P,D2,1,K*%
%TO.N,Net-(D2-K)*%
X172702000Y-115316000D03*
%TO.P,D2,2,A*%
%TO.N,Vout3*%
X174752000Y-115316000D03*
%TD*%
D16*
%TO.P,C11,1*%
%TO.N,Vout3*%
X168656000Y-147188000D03*
%TO.P,C11,2*%
%TO.N,GND*%
X168656000Y-145288000D03*
%TD*%
D28*
%TO.P,U3,1,A0*%
%TO.N,GND*%
X128799583Y-111886995D03*
%TO.P,U3,2,A1*%
X128799583Y-113156998D03*
%TO.P,U3,3,A2*%
X128799583Y-114427000D03*
%TO.P,U3,4,GND*%
X128799583Y-115697003D03*
%TO.P,U3,5,SDA*%
%TO.N,/Microcontroller Interface/Eprom_SDA*%
X134344415Y-115697003D03*
%TO.P,U3,6,SCL*%
%TO.N,/Microcontroller Interface/Eprom_SLC*%
X134344415Y-114427000D03*
%TO.P,U3,7,WP*%
%TO.N,GND*%
X134344415Y-113156998D03*
%TO.P,U3,8,VCC*%
%TO.N,Vout3*%
X134344415Y-111886995D03*
%TD*%
D29*
%TO.P,BT1,1,+*%
%TO.N,/Power managment/POS_terminal*%
X175259999Y-68579999D03*
%TO.P,BT1,2,-*%
%TO.N,Net-(BT1--)*%
X92633633Y-68579999D03*
%TD*%
D17*
%TO.P,TP3,1,1*%
%TO.N,Vout3*%
X177799999Y-151383999D03*
%TD*%
D30*
%TO.P,J7,1,Pin_1*%
%TO.N,unconnected-(J7-Pin_1-Pad1)*%
X138684000Y-83820000D03*
%TO.P,J7,2,Pin_2*%
%TO.N,unconnected-(J7-Pin_2-Pad2)*%
X138684000Y-86360000D03*
%TO.P,J7,3,Pin_3*%
%TO.N,unconnected-(J7-Pin_3-Pad3)*%
X138684000Y-88900000D03*
%TO.P,J7,4,Pin_4*%
%TO.N,unconnected-(J7-Pin_4-Pad4)*%
X138684000Y-91440000D03*
%TO.P,J7,5,Pin_5*%
%TO.N,Net-(J7-Pin_5)*%
X138684000Y-93980000D03*
%TO.P,J7,6,Pin_6*%
%TO.N,Net-(J7-Pin_6)*%
X138684000Y-96520000D03*
%TO.P,J7,7,Pin_7*%
%TO.N,/Microcontroller Interface/NRST*%
X138684000Y-99060000D03*
%TO.P,J7,8,Pin_8*%
%TO.N,GND*%
X138684000Y-101600000D03*
%TO.P,J7,9,Pin_9*%
%TO.N,Vout3*%
X138684000Y-104140000D03*
%TO.P,J7,10,Pin_10*%
%TO.N,PA0*%
X138684000Y-106680000D03*
%TO.P,J7,11,Pin_11*%
%TO.N,PA1*%
X138684000Y-109220000D03*
%TO.P,J7,12,Pin_12*%
%TO.N,PA2*%
X138684000Y-111760000D03*
%TO.P,J7,13,Pin_13*%
%TO.N,PA3*%
X138684000Y-114300000D03*
%TO.P,J7,14,Pin_14*%
%TO.N,PA4*%
X138684000Y-116840000D03*
%TO.P,J7,15,Pin_15*%
%TO.N,PA5*%
X138684000Y-119380000D03*
%TO.P,J7,16,Pin_16*%
%TO.N,PA6*%
X138684000Y-121920000D03*
%TO.P,J7,17,Pin_17*%
%TO.N,unconnected-(J7-Pin_17-Pad17)*%
X138684000Y-124460000D03*
%TO.P,J7,18,Pin_18*%
%TO.N,Analog temp sensor*%
X138684000Y-127000000D03*
%TO.P,J7,19,Pin_19*%
%TO.N,PB1*%
X138684000Y-129540000D03*
%TO.P,J7,20,Pin_20*%
%TO.N,PB2*%
X138684000Y-132080000D03*
%TO.P,J7,21,Pin_21*%
%TO.N,Temp_Sensor_SLC*%
X138684000Y-134620000D03*
%TO.P,J7,22,Pin_22*%
%TO.N,Temp_Sensor_SDA*%
X138684000Y-137160000D03*
%TO.P,J7,23,Pin_23*%
%TO.N,GND*%
X138684000Y-139700000D03*
%TO.P,J7,24,Pin_24*%
%TO.N,Vout3*%
X138684000Y-142240000D03*
%TO.P,J7,25,Pin_25*%
%TO.N,PB12*%
X155194000Y-142240000D03*
%TO.P,J7,26,Pin_26*%
%TO.N,PB13*%
X155194000Y-139700000D03*
%TO.P,J7,27,Pin_27*%
%TO.N,PB14*%
X155194000Y-137160000D03*
%TO.P,J7,28,Pin_28*%
%TO.N,PB15*%
X155194000Y-134620000D03*
%TO.P,J7,29,Pin_29*%
%TO.N,PA8*%
X155194000Y-132080000D03*
%TO.P,J7,30,Pin_30*%
%TO.N,/Microcontroller Interface/RX*%
X155194000Y-129540000D03*
%TO.P,J7,31,Pin_31*%
%TO.N,/Microcontroller Interface/TX*%
X155194000Y-127000000D03*
%TO.P,J7,32,Pin_32*%
%TO.N,PA11*%
X155194000Y-124460000D03*
%TO.P,J7,33,Pin_33*%
%TO.N,PA12*%
X155194000Y-121920000D03*
%TO.P,J7,34,Pin_34*%
%TO.N,PA13*%
X155194000Y-119380000D03*
%TO.P,J7,35,Pin_35*%
%TO.N,/Microcontroller Interface/Eprom_SLC*%
X155194000Y-116840000D03*
%TO.P,J7,36,Pin_36*%
%TO.N,/Microcontroller Interface/Eprom_SDA*%
X155194000Y-114300000D03*
%TO.P,J7,37,Pin_37*%
%TO.N,PA14*%
X155194000Y-111760000D03*
%TO.P,J7,38,Pin_38*%
%TO.N,PA15*%
X155194000Y-109220000D03*
%TO.P,J7,39,Pin_39*%
%TO.N,PB3*%
X155194000Y-106680000D03*
%TO.P,J7,40,Pin_40*%
%TO.N,PB4*%
X155194000Y-104140000D03*
%TO.P,J7,41,Pin_41*%
%TO.N,PB5*%
X155194000Y-101600000D03*
%TO.P,J7,42,Pin_42*%
%TO.N,PB6*%
X155194000Y-99060000D03*
%TO.P,J7,43,Pin_43*%
%TO.N,PB7*%
X155194000Y-96520000D03*
%TO.P,J7,44,Pin_44*%
%TO.N,unconnected-(J7-Pin_44-Pad44)*%
X155194000Y-93980000D03*
%TO.P,J7,45,Pin_45*%
%TO.N,PB8*%
X155194000Y-91440000D03*
%TO.P,J7,46,Pin_46*%
%TO.N,PB9*%
X155194000Y-88900000D03*
%TO.P,J7,47,Pin_47*%
%TO.N,GND*%
X155194000Y-86360000D03*
%TO.P,J7,48,Pin_48*%
%TO.N,Vout3*%
X155194000Y-83820000D03*
%TD*%
D17*
%TO.P,TP2,1,1*%
%TO.N,GND*%
X120395999Y-90931999D03*
%TD*%
D31*
%TO.P,R7,1*%
%TO.N,/Power managment/POS_terminal*%
X134112000Y-82804000D03*
%TO.P,R7,2*%
%TO.N,Net-(U5-VCC)*%
X134112000Y-84804000D03*
%TD*%
D16*
%TO.P,C3,1*%
%TO.N,GND*%
X133129000Y-102009000D03*
%TO.P,C3,2*%
%TO.N,Net-(J7-Pin_6)*%
X133129000Y-100109000D03*
%TD*%
D32*
%TO.P,U4,1,TEMP*%
%TO.N,/Power managment/POS_terminal*%
X143903693Y-148970995D03*
%TO.P,U4,2,PROG*%
X143903693Y-150240998D03*
%TO.P,U4,3,GND*%
X143903693Y-151511000D03*
%TO.P,U4,4,VCC*%
%TO.N,GND*%
X143903693Y-152781003D03*
%TO.P,U4,5,BAT*%
%TO.N,/Power managment/POS_terminal*%
X149720305Y-152781003D03*
%TO.P,U4,6,STDBY#*%
%TO.N,Net-(U4-STDBY#)*%
X149720305Y-151511000D03*
%TO.P,U4,7,CHRG#*%
%TO.N,Net-(U4-CHRG#)*%
X149720305Y-150240998D03*
%TO.P,U4,8,CE*%
%TO.N,GND*%
X149720305Y-148970995D03*
D33*
%TO.P,U4,9,EP*%
%TO.N,unconnected-(U4-EP-Pad9)*%
X146811999Y-150875999D03*
%TD*%
D16*
%TO.P,C4,1*%
%TO.N,GND*%
X133129000Y-95979000D03*
%TO.P,C4,2*%
%TO.N,Net-(J7-Pin_5)*%
X133129000Y-94079000D03*
%TD*%
D12*
%TO.P,R6,1*%
%TO.N,Net-(U5-CS)*%
X125984000Y-82296000D03*
%TO.P,R6,2*%
%TO.N,GND*%
X123984000Y-82296000D03*
%TD*%
D34*
%TO.P,Y1,1,1*%
%TO.N,Net-(J7-Pin_5)*%
X127507999Y-93471999D03*
%TO.P,Y1,2,2*%
%TO.N,Net-(J7-Pin_6)*%
X127507999Y-105346999D03*
%TD*%
D31*
%TO.P,R3,1*%
%TO.N,Net-(D3-K)*%
X153924000Y-148368000D03*
%TO.P,R3,2*%
%TO.N,Net-(U4-CHRG#)*%
X153924000Y-150368000D03*
%TD*%
D35*
%TO.P,U2,1,TXD*%
%TO.N,/Microcontroller Interface/TX*%
X161499999Y-126838999D03*
%TO.P,U2,2,DTR*%
%TO.N,unconnected-(U2-DTR-Pad2)*%
X161499999Y-127488999D03*
%TO.P,U2,3,RTS*%
%TO.N,unconnected-(U2-RTS-Pad3)*%
X161499999Y-128138999D03*
%TO.P,U2,4,VCCIO*%
%TO.N,Vout3*%
X161499999Y-128788999D03*
%TO.P,U2,5,RXD*%
%TO.N,/Microcontroller Interface/RX*%
X161499999Y-129438999D03*
%TO.P,U2,6,RI*%
%TO.N,unconnected-(U2-RI-Pad6)*%
X161499999Y-130088999D03*
%TO.P,U2,7,GND*%
%TO.N,GND*%
X161499999Y-130738999D03*
%TO.P,U2,8*%
%TO.N,N/C*%
X161499999Y-131388999D03*
%TO.P,U2,9,DCR*%
%TO.N,unconnected-(U2-DCR-Pad9)*%
X161499999Y-132038999D03*
%TO.P,U2,10,DCD*%
%TO.N,unconnected-(U2-DCD-Pad10)*%
X161499999Y-132688999D03*
%TO.P,U2,11,CTS*%
%TO.N,unconnected-(U2-CTS-Pad11)*%
X161499999Y-133338999D03*
%TO.P,U2,12,CBUS4*%
%TO.N,unconnected-(U2-CBUS4-Pad12)*%
X161499999Y-133988999D03*
%TO.P,U2,13,CBUS2*%
%TO.N,unconnected-(U2-CBUS2-Pad13)*%
X161499999Y-134638999D03*
%TO.P,U2,14,CBUS3*%
%TO.N,unconnected-(U2-CBUS3-Pad14)*%
X161499999Y-135288999D03*
%TO.P,U2,15,USBD+*%
%TO.N,/Microcontroller Interface/D+*%
X168699999Y-135288999D03*
%TO.P,U2,16,USBD-*%
%TO.N,/Microcontroller Interface/D-*%
X168699999Y-134638999D03*
%TO.P,U2,17,3V3OUT*%
%TO.N,unconnected-(U2-3V3OUT-Pad17)*%
X168699999Y-133988999D03*
%TO.P,U2,18,GND*%
%TO.N,GND*%
X168699999Y-133338999D03*
%TO.P,U2,19,~{RESET}*%
%TO.N,unconnected-(U2-~{RESET}-Pad19)*%
X168699999Y-132688999D03*
%TO.P,U2,20,VCC*%
%TO.N,+5V*%
X168699999Y-132038999D03*
%TO.P,U2,21,GND*%
%TO.N,GND*%
X168699999Y-131388999D03*
%TO.P,U2,22,CBUS1*%
%TO.N,Net-(U2-CBUS1)*%
X168699999Y-130738999D03*
%TO.P,U2,23,CBUS0*%
%TO.N,Net-(U2-CBUS0)*%
X168699999Y-130088999D03*
%TO.P,U2,24*%
%TO.N,N/C*%
X168699999Y-129438999D03*
%TO.P,U2,25,AGND*%
%TO.N,GND*%
X168699999Y-128788999D03*
%TO.P,U2,26,TEST*%
X168699999Y-128138999D03*
%TO.P,U2,27,OSCI*%
%TO.N,unconnected-(U2-OSCI-Pad27)*%
X168699999Y-127488999D03*
%TO.P,U2,28,OSCO*%
%TO.N,unconnected-(U2-OSCO-Pad28)*%
X168699999Y-126838999D03*
%TD*%
D16*
%TO.P,C6,1*%
%TO.N,GND*%
X159004000Y-103632000D03*
%TO.P,C6,2*%
%TO.N,/Microcontroller Interface/NRST*%
X159004000Y-101732000D03*
%TD*%
D36*
%TO.N,Analog temp sensor*%
X133604000Y-132588000D03*
X133604000Y-139700000D03*
%TO.N,/Power managment/POS_terminal*%
X170180000Y-144272000D03*
X151384000Y-153416000D03*
%TO.N,Net-(BT1--)*%
X119888000Y-77216000D03*
X119888000Y-81788000D03*
%TO.N,Vout3*%
X172720000Y-152400000D03*
X172720000Y-147320000D03*
X172720000Y-110236000D03*
%TO.N,Net-(J7-Pin_5)*%
X131064000Y-93980000D03*
X131064000Y-89916000D03*
%TD*%
D37*
%TO.N,GND*%
X166116000Y-120396000D02*
X166116000Y-117877500D01*
X169700000Y-131289000D02*
X168800000Y-131289000D01*
D38*
X129032000Y-113284000D02*
X128926585Y-113284000D01*
D37*
X129851000Y-119629000D02*
X133853000Y-119629000D01*
X143581000Y-130739000D02*
X141224000Y-133096000D01*
X161544000Y-145796000D02*
X161544000Y-149860000D01*
X177292000Y-141756000D02*
X177292000Y-144780000D01*
X143776698Y-152908000D02*
X143903694Y-152781004D01*
D38*
X131064000Y-101600000D02*
X131473000Y-102009000D01*
D37*
X137597000Y-123373000D02*
X141661000Y-123373000D01*
X120135898Y-83820000D02*
X120135898Y-83572102D01*
X121412000Y-86360000D02*
X120904000Y-86868000D01*
X155956000Y-85344000D02*
X167624000Y-85344000D01*
X120135898Y-83572102D02*
X121412000Y-82296000D01*
X161036000Y-145288000D02*
X161544000Y-145796000D01*
X130080000Y-80264000D02*
X130588000Y-80772000D01*
X139700000Y-139700000D02*
X138430000Y-139700000D01*
X125476000Y-148887000D02*
X126957000Y-150368000D01*
X145554690Y-154432000D02*
X159004000Y-154432000D01*
D38*
X133129000Y-102009000D02*
X133538000Y-101600000D01*
D37*
X173228000Y-148844000D02*
X166907975Y-148844000D01*
X168600000Y-131489000D02*
X168700000Y-131389000D01*
X168700000Y-133339000D02*
X170445000Y-133339000D01*
X141224000Y-138176000D02*
X139700000Y-139700000D01*
D38*
X131473000Y-102009000D02*
X133129000Y-102009000D01*
D37*
X117856000Y-81280000D02*
X118872000Y-80264000D01*
X167557000Y-131489000D02*
X168600000Y-131489000D01*
X133129000Y-95979000D02*
X133063000Y-96045000D01*
X166120500Y-114746000D02*
X166120500Y-117830000D01*
X163576000Y-142748000D02*
X161036000Y-145288000D01*
X167255000Y-128139000D02*
X168700000Y-128139000D01*
X136144000Y-146812000D02*
X136652000Y-147320000D01*
X167375000Y-128789000D02*
X167132000Y-128546000D01*
X167132000Y-121412000D02*
X166116000Y-120396000D01*
X123444000Y-90932000D02*
X123444000Y-109728000D01*
X177292000Y-141756000D02*
X178416000Y-141756000D01*
X161500000Y-130739000D02*
X143764000Y-130739000D01*
X118872000Y-80264000D02*
X130080000Y-80264000D01*
D38*
X128799584Y-115697004D02*
X128799584Y-114427001D01*
D37*
X167132000Y-128546000D02*
X167132000Y-128016000D01*
X159512000Y-103124000D02*
X168148000Y-103124000D01*
X127767000Y-119629000D02*
X125476000Y-121920000D01*
X169222000Y-138684000D02*
X169164000Y-138684000D01*
X136652000Y-148336000D02*
X137160000Y-148336000D01*
X161036000Y-150368000D02*
X160528000Y-150876000D01*
X120904000Y-86868000D02*
X119380000Y-86868000D01*
X163576000Y-132588000D02*
X163576000Y-142748000D01*
X143764000Y-125476000D02*
X143764000Y-130739000D01*
X154940000Y-86360000D02*
X155956000Y-85344000D01*
D38*
X128926585Y-113284000D02*
X128799584Y-113156999D01*
D37*
X141661000Y-123373000D02*
X143764000Y-125476000D01*
D38*
X133096000Y-107188000D02*
X133096000Y-102042000D01*
D37*
X167132000Y-131064000D02*
X165100000Y-131064000D01*
X143903694Y-152781004D02*
X145554690Y-154432000D01*
X137160000Y-148336000D02*
X141732000Y-152908000D01*
D38*
X133096000Y-102042000D02*
X133129000Y-102009000D01*
D37*
X143764000Y-130739000D02*
X143581000Y-130739000D01*
D38*
X128524000Y-118302000D02*
X128524000Y-117348000D01*
D37*
X171196000Y-85432128D02*
X169365936Y-83602064D01*
D38*
X128799584Y-114427001D02*
X128799584Y-113156999D01*
D37*
X120904000Y-83820000D02*
X121412000Y-84328000D01*
X120396000Y-90932000D02*
X123444000Y-90932000D01*
X125602996Y-111886996D02*
X128799584Y-111886996D01*
X166907975Y-141224000D02*
X166907975Y-140940025D01*
X166116000Y-117877500D02*
X166094500Y-117856000D01*
X166120500Y-117830000D02*
X166094500Y-117856000D01*
D38*
X128524000Y-117348000D02*
X128799584Y-117072416D01*
D37*
X170688000Y-137160000D02*
X170688000Y-133096000D01*
X123444000Y-109728000D02*
X125602996Y-111886996D01*
X138430000Y-101600000D02*
X150876000Y-101600000D01*
X151963000Y-102687000D02*
X158059000Y-102687000D01*
D38*
X128799584Y-117072416D02*
X128799584Y-115697004D01*
D37*
X168148000Y-103124000D02*
X168148000Y-92456000D01*
X170445000Y-133339000D02*
X170688000Y-133096000D01*
X165100000Y-131064000D02*
X163576000Y-132588000D01*
X172294000Y-141756000D02*
X177292000Y-141756000D01*
X133853000Y-119629000D02*
X137597000Y-123373000D01*
D38*
X129851000Y-119629000D02*
X128524000Y-118302000D01*
D37*
X125476000Y-121920000D02*
X125476000Y-148887000D01*
D38*
X131539000Y-96045000D02*
X131064000Y-96520000D01*
D37*
X167132000Y-129032000D02*
X167132000Y-131064000D01*
X168656000Y-141224000D02*
X166907975Y-141224000D01*
D38*
X128799584Y-111484416D02*
X133096000Y-107188000D01*
D37*
X178265000Y-138176000D02*
X178265000Y-141557000D01*
X121412000Y-82296000D02*
X123984000Y-82296000D01*
X167132000Y-128016000D02*
X167132000Y-121412000D01*
X149720306Y-148475694D02*
X151384000Y-146812000D01*
X169164000Y-138684000D02*
X170688000Y-137160000D01*
X117856000Y-85344000D02*
X117856000Y-81280000D01*
X167624000Y-85344000D02*
X169365936Y-83602064D01*
X168800000Y-131289000D02*
X168700000Y-131389000D01*
X149720306Y-148970996D02*
X149720306Y-148475694D01*
X151384000Y-146812000D02*
X157462000Y-146812000D01*
X126957000Y-150368000D02*
X129032000Y-150368000D01*
D38*
X129159001Y-113156999D02*
X129032000Y-113284000D01*
D37*
X160528000Y-150876000D02*
X159512000Y-150876000D01*
X166907975Y-148844000D02*
X166907975Y-145288000D01*
X170688000Y-132277000D02*
X169700000Y-131289000D01*
X178265000Y-141557000D02*
X178440000Y-141732000D01*
X168700000Y-128789000D02*
X167375000Y-128789000D01*
X121412000Y-84328000D02*
X121412000Y-86360000D01*
X178416000Y-141756000D02*
X178440000Y-141732000D01*
X136144000Y-141986000D02*
X136144000Y-146812000D01*
X157462000Y-146322000D02*
X158496000Y-145288000D01*
X141732000Y-152908000D02*
X143776698Y-152908000D01*
X119380000Y-86868000D02*
X117856000Y-85344000D01*
D38*
X131064000Y-96520000D02*
X131064000Y-101600000D01*
D37*
X159004000Y-103632000D02*
X159512000Y-103124000D01*
X170688000Y-133096000D02*
X170688000Y-132277000D01*
X166907975Y-151051827D02*
X166907975Y-148844000D01*
X167132000Y-128016000D02*
X167255000Y-128139000D01*
X166907975Y-140940025D02*
X169164000Y-138684000D01*
X168148000Y-92456000D02*
X171196000Y-89408000D01*
X150876000Y-101600000D02*
X151963000Y-102687000D01*
X161544000Y-149860000D02*
X161036000Y-150368000D01*
X141224000Y-133096000D02*
X141224000Y-138176000D01*
X120904000Y-86868000D02*
X123444000Y-89408000D01*
X171196000Y-89408000D02*
X171196000Y-85432128D01*
X158059000Y-102687000D02*
X159004000Y-103632000D01*
X138430000Y-139700000D02*
X136144000Y-141986000D01*
X168656000Y-145288000D02*
X166907975Y-145288000D01*
D38*
X128799584Y-111886996D02*
X128799584Y-111484416D01*
D37*
X177292000Y-144780000D02*
X173228000Y-148844000D01*
X159004000Y-106304000D02*
X159004000Y-103632000D01*
X167375000Y-128789000D02*
X167132000Y-129032000D01*
X166907975Y-145288000D02*
X166907975Y-141224000D01*
X158496000Y-145288000D02*
X161036000Y-145288000D01*
D38*
X134344416Y-113156999D02*
X129159001Y-113156999D01*
D37*
X129851000Y-119629000D02*
X127767000Y-119629000D01*
X159512000Y-153924000D02*
X159512000Y-150876000D01*
X159004000Y-154432000D02*
X159512000Y-153924000D01*
D38*
X133538000Y-101600000D02*
X138430000Y-101600000D01*
X133063000Y-96045000D02*
X131539000Y-96045000D01*
D37*
X157462000Y-146812000D02*
X157462000Y-146322000D01*
X167132000Y-131064000D02*
X167557000Y-131489000D01*
X123444000Y-89408000D02*
X123444000Y-90932000D01*
X136652000Y-147320000D02*
X136652000Y-148336000D01*
X120135898Y-83820000D02*
X120904000Y-83820000D01*
D38*
X128799584Y-113156999D02*
X128799584Y-111886996D01*
D37*
%TO.N,+5V*%
X129032000Y-146812000D02*
X130556000Y-145288000D01*
X161036000Y-152400000D02*
X161036000Y-153416000D01*
X168148000Y-152908000D02*
X170180000Y-150876000D01*
X170180000Y-150876000D02*
X173228000Y-150876000D01*
X164592000Y-152400000D02*
X161036000Y-152400000D01*
X164308025Y-132871975D02*
X164308025Y-151051827D01*
X164846000Y-152654000D02*
X164592000Y-152400000D01*
X165141000Y-132039000D02*
X164308025Y-132871975D01*
X165100000Y-152908000D02*
X168148000Y-152908000D01*
X164846000Y-152654000D02*
X165100000Y-152908000D01*
X129851000Y-144075000D02*
X131064000Y-145288000D01*
X129851000Y-142489000D02*
X129851000Y-144075000D01*
X130556000Y-145288000D02*
X131064000Y-145288000D01*
X159004000Y-155448000D02*
X139700000Y-155448000D01*
X168700000Y-132039000D02*
X165141000Y-132039000D01*
X173228000Y-150876000D02*
X180340000Y-143764000D01*
X139700000Y-155448000D02*
X134112000Y-149860000D01*
X134112000Y-149860000D02*
X134112000Y-148336000D01*
X164308025Y-151051827D02*
X164308025Y-152116025D01*
X161036000Y-153416000D02*
X159004000Y-155448000D01*
X131064000Y-145288000D02*
X134112000Y-148336000D01*
X164308025Y-152116025D02*
X164846000Y-152654000D01*
X180340000Y-143764000D02*
X180340000Y-141732000D01*
X180340000Y-141732000D02*
X180340000Y-138176000D01*
%TO.N,Net-(D1-K)*%
X172720000Y-120396000D02*
X172720000Y-118890000D01*
X172720000Y-128524000D02*
X174752000Y-126492000D01*
X174752000Y-126492000D02*
X174752000Y-122428000D01*
X172720000Y-118890000D02*
X172702000Y-118872000D01*
X174752000Y-122428000D02*
X172720000Y-120396000D01*
%TO.N,Net-(D2-K)*%
X171196000Y-116822000D02*
X172702000Y-115316000D01*
X172720000Y-123444000D02*
X172720000Y-122936000D01*
X171196000Y-121412000D02*
X171196000Y-116822000D01*
X172720000Y-122936000D02*
X171196000Y-121412000D01*
%TO.N,Analog temp sensor*%
X133355000Y-139949000D02*
X133604000Y-139700000D01*
X133604000Y-132588000D02*
X133604000Y-129540000D01*
X133604000Y-129540000D02*
X136144000Y-127000000D01*
X136144000Y-127000000D02*
X138430000Y-127000000D01*
X129851000Y-139949000D02*
X133355000Y-139949000D01*
%TO.N,Temp_Sensor_SDA*%
X129851000Y-137409000D02*
X138181000Y-137409000D01*
X138181000Y-137409000D02*
X138430000Y-137160000D01*
%TO.N,Temp_Sensor_SLC*%
X129851000Y-134869000D02*
X138181000Y-134869000D01*
X138181000Y-134869000D02*
X138430000Y-134620000D01*
%TO.N,/Microcontroller Interface/TX*%
X155101000Y-126839000D02*
X154940000Y-127000000D01*
X161500000Y-126839000D02*
X155101000Y-126839000D01*
%TO.N,/Microcontroller Interface/RX*%
X154940000Y-129540000D02*
X155041000Y-129439000D01*
X155041000Y-129439000D02*
X161500000Y-129439000D01*
%TO.N,Net-(U2-CBUS1)*%
X172505000Y-130739000D02*
X172720000Y-130524000D01*
X168700000Y-130739000D02*
X172505000Y-130739000D01*
%TO.N,Net-(U2-CBUS0)*%
X171196000Y-127000000D02*
X172720000Y-125476000D01*
X168700000Y-130089000D02*
X169825000Y-130089000D01*
X169825000Y-130089000D02*
X171196000Y-128718000D01*
X171196000Y-128718000D02*
X171196000Y-127000000D01*
X172720000Y-125476000D02*
X172720000Y-125444000D01*
%TO.N,/Microcontroller Interface/Eprom_SLC*%
X152908000Y-116840000D02*
X154940000Y-116840000D01*
X132151000Y-117927000D02*
X151821000Y-117927000D01*
X134344416Y-114427001D02*
X132460999Y-114427001D01*
X151821000Y-117927000D02*
X152908000Y-116840000D01*
X132080000Y-114808000D02*
X132080000Y-117856000D01*
X132460999Y-114427001D02*
X132080000Y-114808000D01*
X132080000Y-117856000D02*
X132151000Y-117927000D01*
%TO.N,/Microcontroller Interface/Eprom_SDA*%
X134344416Y-115697004D02*
X151510996Y-115697004D01*
X151510996Y-115697004D02*
X152908000Y-114300000D01*
X152908000Y-114300000D02*
X154940000Y-114300000D01*
D39*
%TO.N,/Microcontroller Interface/D+*%
X165608000Y-135636000D02*
X165608000Y-151051827D01*
X168700000Y-135289000D02*
X165955000Y-135289000D01*
X165955000Y-135289000D02*
X165608000Y-135636000D01*
%TO.N,/Microcontroller Interface/D-*%
X164958013Y-135777987D02*
X164958013Y-151051827D01*
X165100000Y-135578314D02*
X165100000Y-135636000D01*
X168700000Y-134639000D02*
X166039314Y-134639000D01*
X166039314Y-134639000D02*
X165100000Y-135578314D01*
X165100000Y-135636000D02*
X164958013Y-135777987D01*
D37*
%TO.N,/Power managment/POS_terminal*%
X145767004Y-153331004D02*
X149170306Y-153331004D01*
X134112000Y-82804000D02*
X132588000Y-81280000D01*
X172720000Y-80772000D02*
X174752000Y-80772000D01*
X176784000Y-70104000D02*
X175260000Y-68580000D01*
X179013000Y-130297000D02*
X176017000Y-130297000D01*
X170180000Y-144272000D02*
X170180000Y-143124000D01*
X175768000Y-130048000D02*
X175768000Y-121412000D01*
X143903694Y-151511001D02*
X143903694Y-150240999D01*
X174752000Y-80772000D02*
X176784000Y-80772000D01*
X172249500Y-143124000D02*
X172381500Y-143256000D01*
X170180000Y-143124000D02*
X170688000Y-143124000D01*
X144203694Y-151511001D02*
X145287000Y-152594307D01*
X170688000Y-143124000D02*
X172249500Y-143124000D01*
X143903694Y-151511001D02*
X144203694Y-151511001D01*
X171196000Y-79248000D02*
X172720000Y-80772000D01*
X145287000Y-152851000D02*
X145767004Y-153331004D01*
X168656000Y-143124000D02*
X170180000Y-143124000D01*
X176784000Y-80772000D02*
X176784000Y-70104000D01*
X134112000Y-82804000D02*
X134620000Y-82296000D01*
X170688000Y-139700000D02*
X175768000Y-134620000D01*
X137160000Y-79248000D02*
X171196000Y-79248000D01*
X176017000Y-130297000D02*
X175768000Y-130048000D01*
X145287000Y-152594307D02*
X145287000Y-152851000D01*
X134620000Y-81788000D02*
X137160000Y-79248000D01*
X150749004Y-152781004D02*
X151384000Y-153416000D01*
X134620000Y-82296000D02*
X134620000Y-81788000D01*
X143903694Y-150240999D02*
X143903694Y-148970996D01*
X132588000Y-81280000D02*
X132588000Y-80772000D01*
X176784000Y-120396000D02*
X176784000Y-80772000D01*
X149170306Y-153331004D02*
X149720306Y-152781004D01*
X175768000Y-121412000D02*
X176784000Y-120396000D01*
X170688000Y-143124000D02*
X170688000Y-139700000D01*
X175768000Y-134620000D02*
X175768000Y-130048000D01*
X149720306Y-152781004D02*
X150749004Y-152781004D01*
%TO.N,Net-(BT1--)*%
X99568000Y-75514366D02*
X99568000Y-75692000D01*
X118872000Y-81280000D02*
X118872000Y-85344000D01*
X118872000Y-85344000D02*
X119247924Y-85719924D01*
X173228000Y-75692000D02*
X174752000Y-77216000D01*
X174752000Y-77216000D02*
X174752000Y-78872000D01*
X119888000Y-77216000D02*
X119888000Y-75692000D01*
X131130038Y-83886038D02*
X128016000Y-80772000D01*
X128016000Y-80772000D02*
X119380000Y-80772000D01*
X119888000Y-75692000D02*
X173228000Y-75692000D01*
X119247924Y-85719924D02*
X120135898Y-85719924D01*
X131448051Y-83886038D02*
X131130038Y-83886038D01*
X119380000Y-80772000D02*
X118872000Y-81280000D01*
X92633634Y-68580000D02*
X99568000Y-75514366D01*
X99568000Y-75692000D02*
X119888000Y-75692000D01*
X119888000Y-81788000D02*
X118872000Y-81788000D01*
%TO.N,Net-(D3-K)*%
X158972000Y-148368000D02*
X159512000Y-147828000D01*
X153924000Y-148368000D02*
X158972000Y-148368000D01*
X159512000Y-147828000D02*
X159512000Y-146812000D01*
%TO.N,Net-(D4-K)*%
X155430000Y-152908000D02*
X157462000Y-150876000D01*
X154940000Y-152908000D02*
X155430000Y-152908000D01*
%TO.N,Net-(U5-CS)*%
X125984000Y-83312000D02*
X125984000Y-82296000D01*
X127508000Y-84836000D02*
X125984000Y-83312000D01*
X128647949Y-84836000D02*
X127508000Y-84836000D01*
%TO.N,Net-(U5-VCC)*%
X131448051Y-84836000D02*
X134080000Y-84836000D01*
X134080000Y-84836000D02*
X134112000Y-84804000D01*
%TO.N,/Power managment/OD*%
X130048000Y-86360000D02*
X130048000Y-84536089D01*
X129032000Y-87376000D02*
X130048000Y-86360000D01*
X123311924Y-85719924D02*
X124968000Y-87376000D01*
X124968000Y-87376000D02*
X129032000Y-87376000D01*
X130048000Y-84536089D02*
X129397949Y-83886038D01*
X122936000Y-85719924D02*
X123311924Y-85719924D01*
X129397949Y-83886038D02*
X128647949Y-83886038D01*
%TO.N,/Power managment/OC*%
X126425962Y-85785962D02*
X128647949Y-85785962D01*
X122936000Y-83820000D02*
X125476000Y-83820000D01*
X125984000Y-84328000D02*
X125984000Y-85344000D01*
X125984000Y-85344000D02*
X126425962Y-85785962D01*
X125476000Y-83820000D02*
X125984000Y-84328000D01*
%TO.N,Net-(U4-CHRG#)*%
X149720306Y-150240999D02*
X153796999Y-150240999D01*
X153796999Y-150240999D02*
X153924000Y-150368000D01*
%TO.N,Net-(U4-STDBY#)*%
X149720306Y-151511001D02*
X151543001Y-151511001D01*
X151543001Y-151511001D02*
X152940000Y-152908000D01*
%TO.N,Vout3*%
X160528000Y-144272000D02*
X142240000Y-144272000D01*
X172294000Y-145714000D02*
X172294000Y-144756000D01*
X174752000Y-115316000D02*
X174752000Y-113792000D01*
X163068000Y-112268000D02*
X163068000Y-128789000D01*
X159004000Y-110307000D02*
X161107000Y-110307000D01*
X157480000Y-81280000D02*
X154940000Y-83820000D01*
X142240000Y-144272000D02*
X140208000Y-142240000D01*
X174244000Y-113284000D02*
X168148000Y-113284000D01*
X174752000Y-113792000D02*
X174244000Y-113284000D01*
X167640000Y-112268000D02*
X168148000Y-112776000D01*
D38*
X137160000Y-104140000D02*
X134344416Y-106955584D01*
D37*
X170180000Y-81280000D02*
X157480000Y-81280000D01*
X168148000Y-112776000D02*
X168148000Y-113284000D01*
X167640000Y-108204000D02*
X169672000Y-106172000D01*
D38*
X134344416Y-110236000D02*
X134344416Y-111886996D01*
D37*
X171704000Y-89916000D02*
X171704000Y-82804000D01*
X169672000Y-91948000D02*
X171704000Y-89916000D01*
X140208000Y-142240000D02*
X138430000Y-142240000D01*
X161500000Y-128789000D02*
X163068000Y-128789000D01*
X168148000Y-114618500D02*
X168020500Y-114746000D01*
X172720000Y-147320000D02*
X171704000Y-146304000D01*
X159004000Y-108204000D02*
X159004000Y-110307000D01*
X171704000Y-82804000D02*
X170180000Y-81280000D01*
X174752000Y-118872000D02*
X174752000Y-115316000D01*
D38*
X138430000Y-104140000D02*
X137160000Y-104140000D01*
D37*
X161107000Y-110307000D02*
X163068000Y-112268000D01*
X172720000Y-110236000D02*
X172720000Y-113284000D01*
X134415416Y-110307000D02*
X159004000Y-110307000D01*
X168169500Y-117856000D02*
X168169500Y-114895000D01*
X168148000Y-113284000D02*
X168148000Y-114618500D01*
X171704000Y-146304000D02*
X172294000Y-145714000D01*
X173736000Y-151384000D02*
X177800000Y-151384000D01*
X163068000Y-141732000D02*
X160528000Y-144272000D01*
X134344416Y-110236000D02*
X134415416Y-110307000D01*
X170820000Y-147188000D02*
X171704000Y-146304000D01*
D38*
X134344416Y-106955584D02*
X134344416Y-110236000D01*
D37*
X172720000Y-152400000D02*
X173736000Y-151384000D01*
X159004000Y-108204000D02*
X167640000Y-108204000D01*
X163068000Y-112268000D02*
X167640000Y-112268000D01*
X169672000Y-106172000D02*
X169672000Y-91948000D01*
X163068000Y-128789000D02*
X163068000Y-141732000D01*
X168169500Y-114895000D02*
X168020500Y-114746000D01*
X168656000Y-147188000D02*
X170820000Y-147188000D01*
D38*
%TO.N,Net-(J7-Pin_6)*%
X130048000Y-93472000D02*
X130048000Y-102807000D01*
X133129000Y-100043000D02*
X136652000Y-96520000D01*
X135636000Y-95504000D02*
X135636000Y-92964000D01*
X130048000Y-102807000D02*
X127508000Y-105347000D01*
X136652000Y-96520000D02*
X138430000Y-96520000D01*
X135636000Y-92964000D02*
X135128000Y-92456000D01*
X135128000Y-92456000D02*
X131064000Y-92456000D01*
X131064000Y-92456000D02*
X130048000Y-93472000D01*
X136652000Y-96520000D02*
X135636000Y-95504000D01*
X133129000Y-100109000D02*
X133129000Y-100043000D01*
D37*
%TO.N,Net-(J7-Pin_5)*%
X131064000Y-89916000D02*
X131064000Y-90932000D01*
D38*
X138176000Y-93980000D02*
X138430000Y-93980000D01*
X131064000Y-90932000D02*
X135128000Y-90932000D01*
X130048000Y-90932000D02*
X131064000Y-90932000D01*
X135128000Y-90932000D02*
X138176000Y-93980000D01*
X127508000Y-93472000D02*
X130048000Y-90932000D01*
D37*
X133030000Y-93980000D02*
X133129000Y-94079000D01*
X131064000Y-93980000D02*
X133030000Y-93980000D01*
%TO.N,/Microcontroller Interface/NRST*%
X160528000Y-86360000D02*
X159004000Y-87884000D01*
X167624000Y-86360000D02*
X160528000Y-86360000D01*
X138430000Y-99060000D02*
X151892000Y-99060000D01*
X152979000Y-100147000D02*
X158933000Y-100147000D01*
X159004000Y-87884000D02*
X159004000Y-101732000D01*
X159004000Y-100076000D02*
X159004000Y-100584000D01*
X151892000Y-99060000D02*
X152979000Y-100147000D01*
X169365936Y-88101936D02*
X167624000Y-86360000D01*
X158933000Y-100147000D02*
X159004000Y-100076000D01*
%TD*%
M02*
