%TF.GenerationSoftware,KiCad,Pcbnew,(7.0.0)*%
%TF.CreationDate,2023-03-21T11:28:41+02:00*%
%TF.ProjectId,EEE3088_design_project,45454533-3038-4385-9f64-657369676e5f,1.0*%
%TF.SameCoordinates,Original*%
%TF.FileFunction,Soldermask,Bot*%
%TF.FilePolarity,Negative*%
%FSLAX46Y46*%
G04 Gerber Fmt 4.6, Leading zero omitted, Abs format (unit mm)*
G04 Created by KiCad (PCBNEW (7.0.0)) date 2023-03-21 11:28:41*
%MOMM*%
%LPD*%
G01*
G04 APERTURE LIST*
%ADD10R,1.700000X1.700000*%
%ADD11O,1.700000X1.700000*%
%ADD12C,1.800000*%
%ADD13C,1.300000*%
%ADD14O,1.300000X2.200000*%
%ADD15C,2.400000*%
%ADD16C,1.524000*%
G04 APERTURE END LIST*
D10*
%TO.C,J3*%
X136651999Y-148335999D03*
D11*
X134111999Y-148335999D03*
%TD*%
D12*
%TO.C,S1*%
X162866064Y-83602064D03*
X169365936Y-83602064D03*
X162866064Y-88101936D03*
X169365936Y-88101936D03*
%TD*%
D10*
%TO.C,J1*%
X179012999Y-130296999D03*
D11*
X179012999Y-132836999D03*
%TD*%
D13*
%TO.C,USB1*%
X168032943Y-151424446D03*
D14*
X169207948Y-154094498D03*
X162008050Y-154094498D03*
D13*
X163183057Y-151424446D03*
%TD*%
D10*
%TO.C,J2*%
X129850999Y-142488999D03*
D11*
X129850999Y-139948999D03*
X129850999Y-137408999D03*
X129850999Y-134868999D03*
X129850999Y-132328999D03*
X129850999Y-129788999D03*
X129850999Y-127248999D03*
X129850999Y-124708999D03*
X129850999Y-122168999D03*
X129850999Y-119628999D03*
%TD*%
D15*
%TO.C,BT1*%
X98106837Y-60580000D03*
%TD*%
D16*
%TO.C,J7*%
X138684000Y-83820000D03*
X138684000Y-86360000D03*
X138684000Y-88900000D03*
X138684000Y-91440000D03*
X138684000Y-93980000D03*
X138684000Y-96520000D03*
X138684000Y-99060000D03*
X138684000Y-101600000D03*
X138684000Y-104140000D03*
X138684000Y-106680000D03*
X138684000Y-109220000D03*
X138684000Y-111760000D03*
X138684000Y-114300000D03*
X138684000Y-116840000D03*
X138684000Y-119380000D03*
X138684000Y-121920000D03*
X138684000Y-124460000D03*
X138684000Y-127000000D03*
X138684000Y-129540000D03*
X138684000Y-132080000D03*
X138684000Y-134620000D03*
X138684000Y-137160000D03*
X138684000Y-139700000D03*
X138684000Y-142240000D03*
X155194000Y-142240000D03*
X155194000Y-139700000D03*
X155194000Y-137160000D03*
X155194000Y-134620000D03*
X155194000Y-132080000D03*
X155194000Y-129540000D03*
X155194000Y-127000000D03*
X155194000Y-124460000D03*
X155194000Y-121920000D03*
X155194000Y-119380000D03*
X155194000Y-116840000D03*
X155194000Y-114300000D03*
X155194000Y-111760000D03*
X155194000Y-109220000D03*
X155194000Y-106680000D03*
X155194000Y-104140000D03*
X155194000Y-101600000D03*
X155194000Y-99060000D03*
X155194000Y-96520000D03*
X155194000Y-93980000D03*
X155194000Y-91440000D03*
X155194000Y-88900000D03*
X155194000Y-86360000D03*
X155194000Y-83820000D03*
%TD*%
M02*
