%TF.GenerationSoftware,KiCad,Pcbnew,(7.0.0)*%
%TF.CreationDate,2023-04-13T19:44:05+02:00*%
%TF.ProjectId,EEE3088_design_project,45454533-3038-4385-9f64-657369676e5f,1.0*%
%TF.SameCoordinates,Original*%
%TF.FileFunction,Paste,Top*%
%TF.FilePolarity,Positive*%
%FSLAX46Y46*%
G04 Gerber Fmt 4.6, Leading zero omitted, Abs format (unit mm)*
G04 Created by KiCad (PCBNEW (7.0.0)) date 2023-04-13 19:44:05*
%MOMM*%
%LPD*%
G01*
G04 APERTURE LIST*
G04 Aperture macros list*
%AMRoundRect*
0 Rectangle with rounded corners*
0 $1 Rounding radius*
0 $2 $3 $4 $5 $6 $7 $8 $9 X,Y pos of 4 corners*
0 Add a 4 corners polygon primitive as box body*
4,1,4,$2,$3,$4,$5,$6,$7,$8,$9,$2,$3,0*
0 Add four circle primitives for the rounded corners*
1,1,$1+$1,$2,$3*
1,1,$1+$1,$4,$5*
1,1,$1+$1,$6,$7*
1,1,$1+$1,$8,$9*
0 Add four rect primitives between the rounded corners*
20,1,$1+$1,$2,$3,$4,$5,0*
20,1,$1+$1,$4,$5,$6,$7,0*
20,1,$1+$1,$6,$7,$8,$9,0*
20,1,$1+$1,$8,$9,$2,$3,0*%
%AMFreePoly0*
4,1,9,3.862500,-0.866500,0.737500,-0.866500,0.737500,-0.450000,-0.737500,-0.450000,-0.737500,0.450000,0.737500,0.450000,0.737500,0.866500,3.862500,0.866500,3.862500,-0.866500,3.862500,-0.866500,$1*%
G04 Aperture macros list end*
%ADD10R,1.300000X0.900000*%
%ADD11FreePoly0,0.000000*%
%ADD12RoundRect,0.250000X0.450000X-0.350000X0.450000X0.350000X-0.450000X0.350000X-0.450000X-0.350000X0*%
%ADD13RoundRect,0.250000X0.350000X0.450000X-0.350000X0.450000X-0.350000X-0.450000X0.350000X-0.450000X0*%
%ADD14RoundRect,0.250000X-0.250000X-0.475000X0.250000X-0.475000X0.250000X0.475000X-0.250000X0.475000X0*%
%ADD15RoundRect,0.250000X0.475000X-0.250000X0.475000X0.250000X-0.475000X0.250000X-0.475000X-0.250000X0*%
%ADD16RoundRect,0.250000X-0.337500X-0.475000X0.337500X-0.475000X0.337500X0.475000X-0.337500X0.475000X0*%
%ADD17RoundRect,0.250000X-0.325000X-0.450000X0.325000X-0.450000X0.325000X0.450000X-0.325000X0.450000X0*%
%ADD18R,1.000000X0.550013*%
%ADD19RoundRect,0.250000X-0.450000X0.350000X-0.450000X-0.350000X0.450000X-0.350000X0.450000X0.350000X0*%
%ADD20RoundRect,0.250000X-0.475000X0.250000X-0.475000X-0.250000X0.475000X-0.250000X0.475000X0.250000X0*%
%ADD21R,0.400000X1.400000*%
%ADD22RoundRect,0.250000X-0.475000X0.337500X-0.475000X-0.337500X0.475000X-0.337500X0.475000X0.337500X0*%
%ADD23RoundRect,0.250000X0.325000X0.450000X-0.325000X0.450000X-0.325000X-0.450000X0.325000X-0.450000X0*%
%ADD24O,2.045009X0.588011*%
%ADD25R,5.080010X7.620015*%
%ADD26R,1.200000X0.600000*%
%ADD27R,2.400000X3.300000*%
%ADD28R,2.000000X7.875000*%
%ADD29R,1.750000X0.450000*%
G04 APERTURE END LIST*
D10*
%TO.C,U7*%
X172293999Y-141755999D03*
D11*
X172381500Y-143256000D03*
D10*
X172293999Y-144755999D03*
%TD*%
D12*
%TO.C,R9*%
X148844000Y-114300000D03*
X148844000Y-112300000D03*
%TD*%
D13*
%TO.C,R4*%
X154940000Y-152908000D03*
X152940000Y-152908000D03*
%TD*%
D14*
%TO.C,C8*%
X178440000Y-141732000D03*
X180340000Y-141732000D03*
%TD*%
D12*
%TO.C,R11*%
X118872000Y-105648000D03*
X118872000Y-103648000D03*
%TD*%
D15*
%TO.C,C10*%
X168656000Y-143124000D03*
X168656000Y-141224000D03*
%TD*%
D14*
%TO.C,C1*%
X166120500Y-114746000D03*
X168020500Y-114746000D03*
%TD*%
%TO.C,C13*%
X116972000Y-118364000D03*
X118872000Y-118364000D03*
%TD*%
D16*
%TO.C,C2*%
X166094500Y-117856000D03*
X168169500Y-117856000D03*
%TD*%
D17*
%TO.C,D1*%
X172702000Y-118872000D03*
X174752000Y-118872000D03*
%TD*%
D12*
%TO.C,R5*%
X140716000Y-148812000D03*
X140716000Y-146812000D03*
%TD*%
D15*
%TO.C,C12*%
X174752000Y-80772000D03*
X174752000Y-78872000D03*
%TD*%
D18*
%TO.C,U5*%
X128647948Y-83886037D03*
X128647948Y-84835999D03*
X128647948Y-85785961D03*
X131448050Y-85785961D03*
X131448050Y-84835999D03*
X131448050Y-83886037D03*
%TD*%
D19*
%TO.C,R12*%
X114808000Y-134144000D03*
X114808000Y-136144000D03*
%TD*%
D20*
%TO.C,C5*%
X159004000Y-106304000D03*
X159004000Y-108204000D03*
%TD*%
D18*
%TO.C,U6*%
X120135897Y-83819999D03*
X120135897Y-84769961D03*
X120135897Y-85719923D03*
X122935999Y-85719923D03*
X122935999Y-84769961D03*
X122935999Y-83819999D03*
%TD*%
D17*
%TO.C,D4*%
X157462000Y-150876000D03*
X159512000Y-150876000D03*
%TD*%
D12*
%TO.C,R8*%
X144272000Y-114300000D03*
X144272000Y-112300000D03*
%TD*%
D21*
%TO.C,USB1*%
X164308024Y-151051826D03*
X164958012Y-151051826D03*
X165607999Y-151051826D03*
X166257986Y-151051826D03*
X166907974Y-151051826D03*
%TD*%
D22*
%TO.C,C9*%
X129032000Y-150346500D03*
X129032000Y-152421500D03*
%TD*%
D12*
%TO.C,R2*%
X172720000Y-125444000D03*
X172720000Y-123444000D03*
%TD*%
D16*
%TO.C,C7*%
X178265000Y-138176000D03*
X180340000Y-138176000D03*
%TD*%
D23*
%TO.C,D3*%
X159512000Y-146812000D03*
X157462000Y-146812000D03*
%TD*%
D12*
%TO.C,R1*%
X172720000Y-130524000D03*
X172720000Y-128524000D03*
%TD*%
D17*
%TO.C,D2*%
X172702000Y-115316000D03*
X174752000Y-115316000D03*
%TD*%
D15*
%TO.C,C11*%
X168656000Y-147188000D03*
X168656000Y-145288000D03*
%TD*%
D24*
%TO.C,U3*%
X128799583Y-111886995D03*
X128799583Y-113156998D03*
X128799583Y-114427000D03*
X128799583Y-115697003D03*
X134344415Y-115697003D03*
X134344415Y-114427000D03*
X134344415Y-113156998D03*
X134344415Y-111886995D03*
%TD*%
D25*
%TO.C,BT1*%
X175259999Y-68579999D03*
X92633633Y-68579999D03*
%TD*%
D19*
%TO.C,R7*%
X134112000Y-82804000D03*
X134112000Y-84804000D03*
%TD*%
D15*
%TO.C,C3*%
X133129000Y-102009000D03*
X133129000Y-100109000D03*
%TD*%
D26*
%TO.C,U4*%
X143903693Y-148970995D03*
X143903693Y-150240998D03*
X143903693Y-151511000D03*
X143903693Y-152781003D03*
X149720305Y-152781003D03*
X149720305Y-151511000D03*
X149720305Y-150240998D03*
X149720305Y-148970995D03*
D27*
X146811999Y-150875999D03*
%TD*%
D15*
%TO.C,C4*%
X133129000Y-95979000D03*
X133129000Y-94079000D03*
%TD*%
D13*
%TO.C,R6*%
X125984000Y-82296000D03*
X123984000Y-82296000D03*
%TD*%
D28*
%TO.C,Y1*%
X127507999Y-93471999D03*
X127507999Y-105346999D03*
%TD*%
D12*
%TO.C,R10*%
X114808000Y-105632000D03*
X114808000Y-103632000D03*
%TD*%
D19*
%TO.C,R3*%
X153924000Y-148368000D03*
X153924000Y-150368000D03*
%TD*%
D29*
%TO.C,U2*%
X161499999Y-126838999D03*
X161499999Y-127488999D03*
X161499999Y-128138999D03*
X161499999Y-128788999D03*
X161499999Y-129438999D03*
X161499999Y-130088999D03*
X161499999Y-130738999D03*
X161499999Y-131388999D03*
X161499999Y-132038999D03*
X161499999Y-132688999D03*
X161499999Y-133338999D03*
X161499999Y-133988999D03*
X161499999Y-134638999D03*
X161499999Y-135288999D03*
X168699999Y-135288999D03*
X168699999Y-134638999D03*
X168699999Y-133988999D03*
X168699999Y-133338999D03*
X168699999Y-132688999D03*
X168699999Y-132038999D03*
X168699999Y-131388999D03*
X168699999Y-130738999D03*
X168699999Y-130088999D03*
X168699999Y-129438999D03*
X168699999Y-128788999D03*
X168699999Y-128138999D03*
X168699999Y-127488999D03*
X168699999Y-126838999D03*
%TD*%
D15*
%TO.C,C6*%
X159004000Y-103632000D03*
X159004000Y-101732000D03*
%TD*%
M02*
