M48
; DRILL file {KiCad (7.0.0)} date Thu Apr 13 19:45:11 2023
; FORMAT={-:-/ absolute / inch / decimal}
; #@! TF.CreationDate,2023-04-13T19:45:11+02:00
; #@! TF.GenerationSoftware,Kicad,Pcbnew,(7.0.0)
; #@! TF.FileFunction,Plated,1,2,PTH
FMAT,2
INCH
; #@! TA.AperFunction,Plated,PTH,ViaDrill
T1C0.0157
; #@! TA.AperFunction,Plated,PTH,ComponentDrill
T2C0.0197
; #@! TA.AperFunction,Plated,PTH,ComponentDrill
T3C0.0276
; #@! TA.AperFunction,Plated,PTH,ComponentDrill
T4C0.0300
; #@! TA.AperFunction,Plated,PTH,ComponentDrill
T5C0.0354
; #@! TA.AperFunction,Plated,PTH,ComponentDrill
T6C0.0394
; #@! TA.AperFunction,Plated,PTH,ComponentDrill
T7C0.0472
%
G90
G05
T1
X4.64Y-3.86
X4.72Y-3.04
X4.72Y-3.22
X5.16Y-3.54
X5.16Y-3.7
X5.26Y-5.22
X5.26Y-5.5
X5.3Y-4.1
X5.6Y-4.5
X5.6Y-4.6
X5.76Y-4.28
X5.76Y-4.38
X5.96Y-6.04
X6.26Y-3.26
X6.26Y-3.44
X6.44Y-3.94
X6.44Y-4.14
X6.7Y-5.68
X6.8Y-4.34
X6.8Y-5.8
X6.8Y-6.0
T2
X4.26Y-4.16
X4.26Y-4.36
X4.26Y-4.6
X4.6Y-4.42
X4.82Y-4.66
X6.3Y-4.5
X6.3Y-4.66
T3
X6.4245Y-5.9616
X6.6155Y-5.9616
T4
X5.46Y-3.3
X5.46Y-3.4
X5.46Y-3.5
X5.46Y-3.6
X5.46Y-3.7
X5.46Y-3.8
X5.46Y-3.9
X5.46Y-4.0
X5.46Y-4.1
X5.46Y-4.2
X5.46Y-4.3
X5.46Y-4.4
X5.46Y-4.5
X5.46Y-4.6
X5.46Y-4.7
X5.46Y-4.8
X5.46Y-4.9
X5.46Y-5.0
X5.46Y-5.1
X5.46Y-5.2
X5.46Y-5.3
X5.46Y-5.4
X5.46Y-5.5
X5.46Y-5.6
X6.11Y-3.3
X6.11Y-3.4
X6.11Y-3.5
X6.11Y-3.6
X6.11Y-3.7
X6.11Y-3.8
X6.11Y-3.9
X6.11Y-4.0
X6.11Y-4.1
X6.11Y-4.2
X6.11Y-4.3
X6.11Y-4.4
X6.11Y-4.5
X6.11Y-4.6
X6.11Y-4.7
X6.11Y-4.8
X6.11Y-4.9
X6.11Y-5.0
X6.11Y-5.1
X6.11Y-5.2
X6.11Y-5.3
X6.11Y-5.4
X6.11Y-5.5
X6.11Y-5.6
T5
X4.3Y-3.54
X4.3Y-3.64
X4.3Y-3.74
X4.3Y-3.84
T6
X4.18Y-4.82
X4.18Y-4.92
X4.18Y-5.02
X4.18Y-5.12
X4.18Y-5.22
X4.18Y-5.32
X4.18Y-5.42
X4.18Y-5.52
X4.54Y-3.54
X4.54Y-3.64
X4.54Y-3.74
X4.54Y-3.84
X4.82Y-5.6698
X4.82Y-5.7698
X5.1122Y-4.7098
X5.1122Y-4.8098
X5.1122Y-4.9098
X5.1122Y-5.0098
X5.1122Y-5.1098
X5.1122Y-5.2098
X5.1122Y-5.3098
X5.1122Y-5.4098
X5.1122Y-5.5098
X5.1122Y-5.6098
X5.28Y-5.84
X5.38Y-5.84
X6.42Y-3.6406
X6.42Y-3.7406
X6.42Y-3.8406
X7.0478Y-5.1298
X7.0478Y-5.2298
T7
X4.52Y-5.5724
X4.52Y-5.8676
X6.412Y-3.2914
X6.412Y-3.4686
X6.668Y-3.2914
X6.668Y-3.4686
T3
G00X6.3783Y-6.051
M15
G01X6.3783Y-6.0825
M16
G05
G00X6.6617Y-6.051
M15
G01X6.6617Y-6.0825
M16
G05
T0
M30
