%TF.GenerationSoftware,KiCad,Pcbnew,(7.0.0)*%
%TF.CreationDate,2023-04-13T19:44:05+02:00*%
%TF.ProjectId,EEE3088_design_project,45454533-3038-4385-9f64-657369676e5f,1.0*%
%TF.SameCoordinates,Original*%
%TF.FileFunction,Copper,L2,Bot*%
%TF.FilePolarity,Positive*%
%FSLAX46Y46*%
G04 Gerber Fmt 4.6, Leading zero omitted, Abs format (unit mm)*
G04 Created by KiCad (PCBNEW (7.0.0)) date 2023-04-13 19:44:05*
%MOMM*%
%LPD*%
G01*
G04 APERTURE LIST*
%TA.AperFunction,ComponentPad*%
%ADD10R,1.700000X1.700000*%
%TD*%
%TA.AperFunction,ComponentPad*%
%ADD11O,1.700000X1.700000*%
%TD*%
%TA.AperFunction,ComponentPad*%
%ADD12R,1.000000X1.000000*%
%TD*%
%TA.AperFunction,ComponentPad*%
%ADD13R,1.500000X1.500000*%
%TD*%
%TA.AperFunction,ComponentPad*%
%ADD14C,1.500000*%
%TD*%
%TA.AperFunction,ComponentPad*%
%ADD15C,1.800000*%
%TD*%
%TA.AperFunction,ComponentPad*%
%ADD16C,1.300000*%
%TD*%
%TA.AperFunction,ComponentPad*%
%ADD17O,1.300000X2.200000*%
%TD*%
%TA.AperFunction,ComponentPad*%
%ADD18C,1.524000*%
%TD*%
%TA.AperFunction,ViaPad*%
%ADD19C,0.800000*%
%TD*%
%TA.AperFunction,Conductor*%
%ADD20C,0.250000*%
%TD*%
G04 APERTURE END LIST*
D10*
%TO.P,J3,1,Pin_1*%
%TO.N,GND*%
X136651999Y-148335999D03*
D11*
%TO.P,J3,2,Pin_2*%
%TO.N,5V*%
X134111999Y-148335999D03*
%TD*%
D10*
%TO.P,J5,1,Pin_1*%
%TO.N,Analog temp sensor*%
X122427999Y-144012999D03*
D11*
%TO.P,J5,2,Pin_2*%
%TO.N,GND*%
X122427999Y-146552999D03*
%TD*%
D12*
%TO.P,TP10,1,1*%
%TO.N,/Microcontroller Interface/Eprom_SLC*%
X160019999Y-118363999D03*
%TD*%
D13*
%TO.P,U8,1,VDD*%
%TO.N,Vout3*%
X109219999Y-97536015D03*
D14*
%TO.P,U8,2,SDA*%
%TO.N,Temp_Sensor_SDA*%
X109220000Y-94996011D03*
%TO.P,U8,3,SCK*%
%TO.N,Temp_Sensor_SLC*%
X109220000Y-92456005D03*
%TO.P,U8,4,GND*%
%TO.N,GND*%
X109220000Y-89916000D03*
%TD*%
D12*
%TO.P,TP5,1,1*%
%TO.N,Temp_Sensor_SDA*%
X108203999Y-105663999D03*
%TD*%
D15*
%TO.P,S1,1,1*%
%TO.N,unconnected-(S1-Pad1)*%
X162866064Y-83602064D03*
%TO.P,S1,2,2*%
%TO.N,GND*%
X169365936Y-83602064D03*
%TO.P,S1,3,3*%
%TO.N,unconnected-(S1-Pad3)*%
X162866064Y-88101936D03*
%TO.P,S1,4,4*%
%TO.N,/Microcontroller Interface/NRST*%
X169365936Y-88101936D03*
%TD*%
D10*
%TO.P,J1,1,Pin_1*%
%TO.N,/Power managment/POS_terminal*%
X179012999Y-130296999D03*
D11*
%TO.P,J1,2,Pin_2*%
%TO.N,Vout3*%
X179012999Y-132836999D03*
%TD*%
D15*
%TO.P,TH1,1*%
%TO.N,Analog temp sensor*%
X114808000Y-141537936D03*
%TO.P,TH1,2*%
%TO.N,GND*%
X114808000Y-149038064D03*
%TD*%
D12*
%TO.P,TP9,1,1*%
%TO.N,/Microcontroller Interface/Eprom_SDA*%
X160019999Y-114299999D03*
%TD*%
D10*
%TO.P,J8,1,Pin_1*%
%TO.N,PA7*%
X106171999Y-140207999D03*
D11*
%TO.P,J8,2,Pin_2*%
%TO.N,PA6*%
X106171999Y-137667999D03*
%TO.P,J8,3,Pin_3*%
%TO.N,PA5*%
X106171999Y-135127999D03*
%TO.P,J8,4,Pin_4*%
%TO.N,PA4*%
X106171999Y-132587999D03*
%TO.P,J8,5,Pin_5*%
%TO.N,PA3*%
X106171999Y-130047999D03*
%TO.P,J8,6,Pin_6*%
%TO.N,PA2*%
X106171999Y-127507999D03*
%TO.P,J8,7,Pin_7*%
%TO.N,PA1*%
X106171999Y-124967999D03*
%TO.P,J8,8,Pin_8*%
%TO.N,PA0*%
X106171999Y-122427999D03*
%TD*%
D16*
%TO.P,USB1,6,SH1*%
%TO.N,GND*%
X168032943Y-151424446D03*
D17*
%TO.P,USB1,7,SH2*%
X169207948Y-154094498D03*
%TO.P,USB1,8,SH3*%
X162008050Y-154094498D03*
D16*
%TO.P,USB1,9,SH4*%
X163183057Y-151424446D03*
%TD*%
D10*
%TO.P,J6,1,Pin_1*%
%TO.N,Vout3*%
X163067999Y-92470999D03*
D11*
%TO.P,J6,2,Pin_2*%
%TO.N,Net-(J6-Pin_2)*%
X163067999Y-95010999D03*
%TO.P,J6,3,Pin_3*%
%TO.N,GND*%
X163067999Y-97550999D03*
%TD*%
D10*
%TO.P,J2,1,Pin_1*%
%TO.N,5V*%
X129850999Y-142488999D03*
D11*
%TO.P,J2,2,Pin_2*%
%TO.N,Analog temp sensor*%
X129850999Y-139948999D03*
%TO.P,J2,3,Pin_3*%
%TO.N,Temp_Sensor_SDA*%
X129850999Y-137408999D03*
%TO.P,J2,4,Pin_4*%
%TO.N,Temp_Sensor_SLC*%
X129850999Y-134868999D03*
%TO.P,J2,5,Pin_5*%
%TO.N,unconnected-(J2-Pin_5-Pad5)*%
X129850999Y-132328999D03*
%TO.P,J2,6,Pin_6*%
%TO.N,unconnected-(J2-Pin_6-Pad6)*%
X129850999Y-129788999D03*
%TO.P,J2,7,Pin_7*%
%TO.N,/Microcontroller Interface/Plug_Detect*%
X129850999Y-127248999D03*
%TO.P,J2,8,Pin_8*%
%TO.N,/Microcontroller Interface/TX*%
X129850999Y-124708999D03*
%TO.P,J2,9,Pin_9*%
%TO.N,/Microcontroller Interface/RX*%
X129850999Y-122168999D03*
%TO.P,J2,10,Pin_10*%
%TO.N,GND*%
X129850999Y-119628999D03*
%TD*%
D12*
%TO.P,TP6,1,1*%
%TO.N,Temp_Sensor_SLC*%
X108203999Y-110743999D03*
%TD*%
%TO.P,TP7,1,1*%
%TO.N,Vout3*%
X122427999Y-118363999D03*
%TD*%
D18*
%TO.P,J7,1,Pin_1*%
%TO.N,unconnected-(J7-Pin_1-Pad1)*%
X138684000Y-83820000D03*
%TO.P,J7,2,Pin_2*%
%TO.N,unconnected-(J7-Pin_2-Pad2)*%
X138684000Y-86360000D03*
%TO.P,J7,3,Pin_3*%
%TO.N,unconnected-(J7-Pin_3-Pad3)*%
X138684000Y-88900000D03*
%TO.P,J7,4,Pin_4*%
%TO.N,unconnected-(J7-Pin_4-Pad4)*%
X138684000Y-91440000D03*
%TO.P,J7,5,Pin_5*%
%TO.N,Net-(J7-Pin_5)*%
X138684000Y-93980000D03*
%TO.P,J7,6,Pin_6*%
%TO.N,Net-(J7-Pin_6)*%
X138684000Y-96520000D03*
%TO.P,J7,7,Pin_7*%
%TO.N,/Microcontroller Interface/NRST*%
X138684000Y-99060000D03*
%TO.P,J7,8,Pin_8*%
%TO.N,GND*%
X138684000Y-101600000D03*
%TO.P,J7,9,Pin_9*%
%TO.N,Vout3*%
X138684000Y-104140000D03*
%TO.P,J7,10,Pin_10*%
%TO.N,PA0*%
X138684000Y-106680000D03*
%TO.P,J7,11,Pin_11*%
%TO.N,PA1*%
X138684000Y-109220000D03*
%TO.P,J7,12,Pin_12*%
%TO.N,PA2*%
X138684000Y-111760000D03*
%TO.P,J7,13,Pin_13*%
%TO.N,PA3*%
X138684000Y-114300000D03*
%TO.P,J7,14,Pin_14*%
%TO.N,PA4*%
X138684000Y-116840000D03*
%TO.P,J7,15,Pin_15*%
%TO.N,PA5*%
X138684000Y-119380000D03*
%TO.P,J7,16,Pin_16*%
%TO.N,PA6*%
X138684000Y-121920000D03*
%TO.P,J7,17,Pin_17*%
%TO.N,PA7*%
X138684000Y-124460000D03*
%TO.P,J7,18,Pin_18*%
%TO.N,Analog temp sensor*%
X138684000Y-127000000D03*
%TO.P,J7,19,Pin_19*%
%TO.N,PB1*%
X138684000Y-129540000D03*
%TO.P,J7,20,Pin_20*%
%TO.N,PB2*%
X138684000Y-132080000D03*
%TO.P,J7,21,Pin_21*%
%TO.N,Temp_Sensor_SLC*%
X138684000Y-134620000D03*
%TO.P,J7,22,Pin_22*%
%TO.N,Temp_Sensor_SDA*%
X138684000Y-137160000D03*
%TO.P,J7,23,Pin_23*%
%TO.N,GND*%
X138684000Y-139700000D03*
%TO.P,J7,24,Pin_24*%
%TO.N,Vout3*%
X138684000Y-142240000D03*
%TO.P,J7,25,Pin_25*%
%TO.N,PB12*%
X155194000Y-142240000D03*
%TO.P,J7,26,Pin_26*%
%TO.N,PB13*%
X155194000Y-139700000D03*
%TO.P,J7,27,Pin_27*%
%TO.N,PB14*%
X155194000Y-137160000D03*
%TO.P,J7,28,Pin_28*%
%TO.N,PB15*%
X155194000Y-134620000D03*
%TO.P,J7,29,Pin_29*%
%TO.N,PA8*%
X155194000Y-132080000D03*
%TO.P,J7,30,Pin_30*%
%TO.N,/Microcontroller Interface/RX*%
X155194000Y-129540000D03*
%TO.P,J7,31,Pin_31*%
%TO.N,/Microcontroller Interface/TX*%
X155194000Y-127000000D03*
%TO.P,J7,32,Pin_32*%
%TO.N,PA11*%
X155194000Y-124460000D03*
%TO.P,J7,33,Pin_33*%
%TO.N,PA12*%
X155194000Y-121920000D03*
%TO.P,J7,34,Pin_34*%
%TO.N,PA13*%
X155194000Y-119380000D03*
%TO.P,J7,35,Pin_35*%
%TO.N,/Microcontroller Interface/Eprom_SLC*%
X155194000Y-116840000D03*
%TO.P,J7,36,Pin_36*%
%TO.N,/Microcontroller Interface/Eprom_SDA*%
X155194000Y-114300000D03*
%TO.P,J7,37,Pin_37*%
%TO.N,PA14*%
X155194000Y-111760000D03*
%TO.P,J7,38,Pin_38*%
%TO.N,PA15*%
X155194000Y-109220000D03*
%TO.P,J7,39,Pin_39*%
%TO.N,PB3*%
X155194000Y-106680000D03*
%TO.P,J7,40,Pin_40*%
%TO.N,PB4*%
X155194000Y-104140000D03*
%TO.P,J7,41,Pin_41*%
%TO.N,PB5*%
X155194000Y-101600000D03*
%TO.P,J7,42,Pin_42*%
%TO.N,PB6*%
X155194000Y-99060000D03*
%TO.P,J7,43,Pin_43*%
%TO.N,PB7*%
X155194000Y-96520000D03*
%TO.P,J7,44,Pin_44*%
%TO.N,Net-(J6-Pin_2)*%
X155194000Y-93980000D03*
%TO.P,J7,45,Pin_45*%
%TO.N,PB8*%
X155194000Y-91440000D03*
%TO.P,J7,46,Pin_46*%
%TO.N,PB9*%
X155194000Y-88900000D03*
%TO.P,J7,47,Pin_47*%
%TO.N,GND*%
X155194000Y-86360000D03*
%TO.P,J7,48,Pin_48*%
%TO.N,Vout3*%
X155194000Y-83820000D03*
%TD*%
D10*
%TO.P,J4,1,Pin_1*%
%TO.N,Vout3*%
X115315999Y-97535999D03*
D11*
%TO.P,J4,2,Pin_2*%
%TO.N,Temp_Sensor_SDA*%
X115315999Y-94995999D03*
%TO.P,J4,3,Pin_3*%
%TO.N,Temp_Sensor_SLC*%
X115315999Y-92455999D03*
%TO.P,J4,4,Pin_4*%
%TO.N,GND*%
X115315999Y-89915999D03*
%TD*%
D12*
%TO.P,TP4,1,1*%
%TO.N,Vout3*%
X116839999Y-112267999D03*
%TD*%
%TO.P,TP8,1,1*%
%TO.N,Analog temp sensor*%
X108203999Y-116839999D03*
%TD*%
D19*
%TO.N,GND*%
X163576000Y-100076000D03*
X163576000Y-105156000D03*
%TO.N,Analog temp sensor*%
X133604000Y-132588000D03*
X133604000Y-139700000D03*
%TO.N,/Microcontroller Interface/Eprom_SLC*%
X142240000Y-114300000D03*
X142240000Y-116840000D03*
%TO.N,/Power managment/POS_terminal*%
X170180000Y-144272000D03*
X151384000Y-153416000D03*
%TO.N,Net-(BT1--)*%
X119888000Y-77216000D03*
X119888000Y-81788000D03*
%TO.N,Vout3*%
X172720000Y-152400000D03*
X172720000Y-147320000D03*
X134620000Y-104140000D03*
X159004000Y-87376000D03*
X146304000Y-108712000D03*
X159004000Y-82804000D03*
X146304000Y-111252000D03*
X172720000Y-110236000D03*
X117856000Y-98044000D03*
%TO.N,Net-(J7-Pin_5)*%
X131064000Y-93980000D03*
X131064000Y-89916000D03*
%TD*%
D20*
%TO.N,GND*%
X168032943Y-151424446D02*
X168032943Y-152919493D01*
X168032943Y-152919493D02*
X169207949Y-154094499D01*
X163576000Y-100076000D02*
X163576000Y-105156000D01*
%TO.N,Analog temp sensor*%
X133604000Y-139700000D02*
X133604000Y-132588000D01*
%TO.N,/Microcontroller Interface/TX*%
X147828000Y-127000000D02*
X154940000Y-127000000D01*
X129851000Y-124709000D02*
X133853000Y-124709000D01*
X135128000Y-125984000D02*
X135128000Y-143256000D01*
X133853000Y-124709000D02*
X135128000Y-125984000D01*
X146304000Y-128524000D02*
X147828000Y-127000000D01*
X146304000Y-142748000D02*
X146304000Y-128524000D01*
X135128000Y-143256000D02*
X137160000Y-145288000D01*
X137160000Y-145288000D02*
X143764000Y-145288000D01*
X143764000Y-145288000D02*
X146304000Y-142748000D01*
%TO.N,/Microcontroller Interface/RX*%
X150368000Y-129540000D02*
X154940000Y-129540000D01*
X136144000Y-146304000D02*
X144272000Y-146304000D01*
X127000000Y-122936000D02*
X127000000Y-144272000D01*
X129851000Y-122169000D02*
X127767000Y-122169000D01*
X128016000Y-145288000D02*
X135128000Y-145288000D01*
X147320000Y-132588000D02*
X150368000Y-129540000D01*
X135128000Y-145288000D02*
X136144000Y-146304000D01*
X127767000Y-122169000D02*
X127000000Y-122936000D01*
X144272000Y-146304000D02*
X147320000Y-143256000D01*
X147320000Y-143256000D02*
X147320000Y-132588000D01*
X127000000Y-144272000D02*
X128016000Y-145288000D01*
%TO.N,PA0*%
X110236000Y-108712000D02*
X110236000Y-120396000D01*
X110236000Y-120396000D02*
X108204000Y-122428000D01*
X138684000Y-106680000D02*
X112268000Y-106680000D01*
X108204000Y-122428000D02*
X106172000Y-122428000D01*
X112268000Y-106680000D02*
X110236000Y-108712000D01*
%TO.N,PA1*%
X111760000Y-122936000D02*
X109728000Y-124968000D01*
X114300000Y-109220000D02*
X111760000Y-111760000D01*
X138684000Y-109220000D02*
X114300000Y-109220000D01*
X111760000Y-111760000D02*
X111760000Y-122936000D01*
X109728000Y-124968000D02*
X106172000Y-124968000D01*
%TO.N,PA2*%
X110236000Y-127508000D02*
X106172000Y-127508000D01*
X113284000Y-111760000D02*
X113284000Y-124460000D01*
X114808000Y-110236000D02*
X113284000Y-111760000D01*
X138684000Y-111760000D02*
X135636000Y-111760000D01*
X135636000Y-111760000D02*
X134112000Y-110236000D01*
X134112000Y-110236000D02*
X114808000Y-110236000D01*
X113284000Y-124460000D02*
X110236000Y-127508000D01*
%TO.N,PA3*%
X106172000Y-130048000D02*
X109728000Y-130048000D01*
X123952000Y-119888000D02*
X123952000Y-116332000D01*
X118364000Y-121412000D02*
X122428000Y-121412000D01*
X109728000Y-130048000D02*
X118364000Y-121412000D01*
X138684000Y-114300000D02*
X134112000Y-114300000D01*
X123952000Y-116332000D02*
X125984000Y-114300000D01*
X126492000Y-113792000D02*
X125984000Y-114300000D01*
X134112000Y-114300000D02*
X133604000Y-113792000D01*
X133604000Y-113792000D02*
X126492000Y-113792000D01*
X122428000Y-121412000D02*
X123952000Y-119888000D01*
%TO.N,PA4*%
X134748396Y-116840000D02*
X132716396Y-114808000D01*
X132716396Y-114808000D02*
X127000000Y-114808000D01*
X109220000Y-132588000D02*
X106172000Y-132588000D01*
X124968000Y-120396000D02*
X122936000Y-122428000D01*
X119380000Y-122428000D02*
X109220000Y-132588000D01*
X124968000Y-116840000D02*
X124968000Y-120396000D01*
X127000000Y-114808000D02*
X124968000Y-116840000D01*
X122936000Y-122428000D02*
X119380000Y-122428000D01*
X138684000Y-116840000D02*
X134748396Y-116840000D01*
%TO.N,PA5*%
X108204000Y-135128000D02*
X106172000Y-135128000D01*
X132588000Y-115824000D02*
X127508000Y-115824000D01*
X127508000Y-115824000D02*
X125984000Y-117348000D01*
X122936000Y-123444000D02*
X119888000Y-123444000D01*
X138684000Y-119380000D02*
X136144000Y-119380000D01*
X136144000Y-119380000D02*
X132588000Y-115824000D01*
X125984000Y-117348000D02*
X125984000Y-120396000D01*
X119888000Y-123444000D02*
X108204000Y-135128000D01*
X125984000Y-120396000D02*
X122936000Y-123444000D01*
%TO.N,PA6*%
X120904000Y-124460000D02*
X107696000Y-137668000D01*
X128016000Y-116840000D02*
X127000000Y-117856000D01*
X138684000Y-121920000D02*
X137668000Y-121920000D01*
X107696000Y-137668000D02*
X106172000Y-137668000D01*
X127000000Y-117856000D02*
X127000000Y-120396000D01*
X127000000Y-120396000D02*
X122936000Y-124460000D01*
X122936000Y-124460000D02*
X120904000Y-124460000D01*
X137668000Y-121920000D02*
X132588000Y-116840000D01*
X132588000Y-116840000D02*
X128016000Y-116840000D01*
%TO.N,/Microcontroller Interface/Eprom_SLC*%
X142240000Y-116840000D02*
X142240000Y-114300000D01*
%TO.N,PA7*%
X121666000Y-125476000D02*
X106934000Y-140208000D01*
X138684000Y-124460000D02*
X132080000Y-117856000D01*
X122936000Y-125476000D02*
X121666000Y-125476000D01*
X128016000Y-118364000D02*
X128016000Y-120396000D01*
X128016000Y-120396000D02*
X122936000Y-125476000D01*
X132080000Y-117856000D02*
X128524000Y-117856000D01*
X128524000Y-117856000D02*
X128016000Y-118364000D01*
X106934000Y-140208000D02*
X106172000Y-140208000D01*
%TO.N,/Power managment/POS_terminal*%
X160528000Y-144272000D02*
X170180000Y-144272000D01*
X151384000Y-153416000D02*
X160528000Y-144272000D01*
%TO.N,Net-(BT1--)*%
X119888000Y-77216000D02*
X119888000Y-81788000D01*
%TO.N,Vout3*%
X123952000Y-104140000D02*
X117856000Y-98044000D01*
X119888000Y-112268000D02*
X122428000Y-114808000D01*
X146304000Y-108712000D02*
X146304000Y-111252000D01*
X122428000Y-114808000D02*
X122428000Y-118364000D01*
X175260000Y-144780000D02*
X175260000Y-132588000D01*
X134620000Y-104140000D02*
X123952000Y-104140000D01*
X174244000Y-110236000D02*
X172720000Y-110236000D01*
X175260000Y-111252000D02*
X174244000Y-110236000D01*
X175509000Y-132837000D02*
X175260000Y-132588000D01*
X179013000Y-132837000D02*
X175509000Y-132837000D01*
X116840000Y-112268000D02*
X119888000Y-112268000D01*
X172720000Y-147320000D02*
X175260000Y-144780000D01*
X175260000Y-132588000D02*
X175260000Y-111252000D01*
X172720000Y-147320000D02*
X172720000Y-152400000D01*
X159004000Y-82804000D02*
X159004000Y-87376000D01*
%TO.N,Net-(J7-Pin_5)*%
X131064000Y-89916000D02*
X131064000Y-93980000D01*
%TD*%
M02*
