%TF.GenerationSoftware,KiCad,Pcbnew,(7.0.0)*%
%TF.CreationDate,2023-04-03T20:33:43+02:00*%
%TF.ProjectId,EEE3088_design_project,45454533-3038-4385-9f64-657369676e5f,1.0*%
%TF.SameCoordinates,Original*%
%TF.FileFunction,Legend,Top*%
%TF.FilePolarity,Positive*%
%FSLAX46Y46*%
G04 Gerber Fmt 4.6, Leading zero omitted, Abs format (unit mm)*
G04 Created by KiCad (PCBNEW (7.0.0)) date 2023-04-03 20:33:43*
%MOMM*%
%LPD*%
G01*
G04 APERTURE LIST*
%ADD10C,2.107000*%
%ADD11C,0.400000*%
%ADD12C,0.150000*%
%ADD13C,1.000000*%
%ADD14C,0.120000*%
%ADD15C,0.254000*%
%ADD16C,0.203200*%
%ADD17C,0.059995*%
%ADD18C,0.152400*%
%ADD19C,0.300000*%
G04 APERTURE END LIST*
D10*
X139737500Y-79756000D02*
G75*
G03*
X139737500Y-79756000I-1053500J0D01*
G01*
X162813373Y-68148203D02*
G75*
G03*
X162813373Y-68148203I-1053500J0D01*
G01*
X107187261Y-68148203D02*
G75*
G03*
X107187261Y-68148203I-1053500J0D01*
G01*
D11*
X100039952Y-108807428D02*
X100039952Y-109759809D01*
X100039952Y-109759809D02*
X97539952Y-109759809D01*
X99920904Y-107378856D02*
X100039952Y-107569332D01*
X100039952Y-107569332D02*
X100039952Y-107950285D01*
X100039952Y-107950285D02*
X99920904Y-108140761D01*
X99920904Y-108140761D02*
X99682809Y-108235999D01*
X99682809Y-108235999D02*
X98730428Y-108235999D01*
X98730428Y-108235999D02*
X98492333Y-108140761D01*
X98492333Y-108140761D02*
X98373285Y-107950285D01*
X98373285Y-107950285D02*
X98373285Y-107569332D01*
X98373285Y-107569332D02*
X98492333Y-107378856D01*
X98492333Y-107378856D02*
X98730428Y-107283618D01*
X98730428Y-107283618D02*
X98968523Y-107283618D01*
X98968523Y-107283618D02*
X99206619Y-108235999D01*
X98373285Y-106712189D02*
X98373285Y-105950285D01*
X97539952Y-106426475D02*
X99682809Y-106426475D01*
X99682809Y-106426475D02*
X99920904Y-106331237D01*
X99920904Y-106331237D02*
X100039952Y-106140761D01*
X100039952Y-106140761D02*
X100039952Y-105950285D01*
X99920904Y-105378856D02*
X100039952Y-105188380D01*
X100039952Y-105188380D02*
X100039952Y-104807428D01*
X100039952Y-104807428D02*
X99920904Y-104616951D01*
X99920904Y-104616951D02*
X99682809Y-104521713D01*
X99682809Y-104521713D02*
X99563761Y-104521713D01*
X99563761Y-104521713D02*
X99325666Y-104616951D01*
X99325666Y-104616951D02*
X99206619Y-104807428D01*
X99206619Y-104807428D02*
X99206619Y-105093142D01*
X99206619Y-105093142D02*
X99087571Y-105283618D01*
X99087571Y-105283618D02*
X98849476Y-105378856D01*
X98849476Y-105378856D02*
X98730428Y-105378856D01*
X98730428Y-105378856D02*
X98492333Y-105283618D01*
X98492333Y-105283618D02*
X98373285Y-105093142D01*
X98373285Y-105093142D02*
X98373285Y-104807428D01*
X98373285Y-104807428D02*
X98492333Y-104616951D01*
X100039952Y-103378856D02*
X99920904Y-103569332D01*
X99920904Y-103569332D02*
X99801857Y-103664570D01*
X99801857Y-103664570D02*
X99563761Y-103759808D01*
X99563761Y-103759808D02*
X98849476Y-103759808D01*
X98849476Y-103759808D02*
X98611380Y-103664570D01*
X98611380Y-103664570D02*
X98492333Y-103569332D01*
X98492333Y-103569332D02*
X98373285Y-103378856D01*
X98373285Y-103378856D02*
X98373285Y-103093141D01*
X98373285Y-103093141D02*
X98492333Y-102902665D01*
X98492333Y-102902665D02*
X98611380Y-102807427D01*
X98611380Y-102807427D02*
X98849476Y-102712189D01*
X98849476Y-102712189D02*
X99563761Y-102712189D01*
X99563761Y-102712189D02*
X99801857Y-102807427D01*
X99801857Y-102807427D02*
X99920904Y-102902665D01*
X99920904Y-102902665D02*
X100039952Y-103093141D01*
X100039952Y-103093141D02*
X100039952Y-103378856D01*
X100039952Y-101569332D02*
X99920904Y-101759808D01*
X99920904Y-101759808D02*
X99682809Y-101855046D01*
X99682809Y-101855046D02*
X97539952Y-101855046D01*
X100039952Y-100521713D02*
X99920904Y-100712189D01*
X99920904Y-100712189D02*
X99801857Y-100807427D01*
X99801857Y-100807427D02*
X99563761Y-100902665D01*
X99563761Y-100902665D02*
X98849476Y-100902665D01*
X98849476Y-100902665D02*
X98611380Y-100807427D01*
X98611380Y-100807427D02*
X98492333Y-100712189D01*
X98492333Y-100712189D02*
X98373285Y-100521713D01*
X98373285Y-100521713D02*
X98373285Y-100235998D01*
X98373285Y-100235998D02*
X98492333Y-100045522D01*
X98492333Y-100045522D02*
X98611380Y-99950284D01*
X98611380Y-99950284D02*
X98849476Y-99855046D01*
X98849476Y-99855046D02*
X99563761Y-99855046D01*
X99563761Y-99855046D02*
X99801857Y-99950284D01*
X99801857Y-99950284D02*
X99920904Y-100045522D01*
X99920904Y-100045522D02*
X100039952Y-100235998D01*
X100039952Y-100235998D02*
X100039952Y-100521713D01*
X100039952Y-96845522D02*
X100039952Y-97797903D01*
X100039952Y-97797903D02*
X97539952Y-97797903D01*
X99920904Y-95416950D02*
X100039952Y-95607426D01*
X100039952Y-95607426D02*
X100039952Y-95988379D01*
X100039952Y-95988379D02*
X99920904Y-96178855D01*
X99920904Y-96178855D02*
X99682809Y-96274093D01*
X99682809Y-96274093D02*
X98730428Y-96274093D01*
X98730428Y-96274093D02*
X98492333Y-96178855D01*
X98492333Y-96178855D02*
X98373285Y-95988379D01*
X98373285Y-95988379D02*
X98373285Y-95607426D01*
X98373285Y-95607426D02*
X98492333Y-95416950D01*
X98492333Y-95416950D02*
X98730428Y-95321712D01*
X98730428Y-95321712D02*
X98968523Y-95321712D01*
X98968523Y-95321712D02*
X99206619Y-96274093D01*
X100039952Y-94178855D02*
X99920904Y-94369331D01*
X99920904Y-94369331D02*
X99801857Y-94464569D01*
X99801857Y-94464569D02*
X99563761Y-94559807D01*
X99563761Y-94559807D02*
X98849476Y-94559807D01*
X98849476Y-94559807D02*
X98611380Y-94464569D01*
X98611380Y-94464569D02*
X98492333Y-94369331D01*
X98492333Y-94369331D02*
X98373285Y-94178855D01*
X98373285Y-94178855D02*
X98373285Y-93893140D01*
X98373285Y-93893140D02*
X98492333Y-93702664D01*
X98492333Y-93702664D02*
X98611380Y-93607426D01*
X98611380Y-93607426D02*
X98849476Y-93512188D01*
X98849476Y-93512188D02*
X99563761Y-93512188D01*
X99563761Y-93512188D02*
X99801857Y-93607426D01*
X99801857Y-93607426D02*
X99920904Y-93702664D01*
X99920904Y-93702664D02*
X100039952Y-93893140D01*
X100039952Y-93893140D02*
X100039952Y-94178855D01*
X100039952Y-92655045D02*
X98373285Y-92655045D01*
X98611380Y-92655045D02*
X98492333Y-92559807D01*
X98492333Y-92559807D02*
X98373285Y-92369331D01*
X98373285Y-92369331D02*
X98373285Y-92083616D01*
X98373285Y-92083616D02*
X98492333Y-91893140D01*
X98492333Y-91893140D02*
X98730428Y-91797902D01*
X98730428Y-91797902D02*
X100039952Y-91797902D01*
X98730428Y-91797902D02*
X98492333Y-91702664D01*
X98492333Y-91702664D02*
X98373285Y-91512188D01*
X98373285Y-91512188D02*
X98373285Y-91226474D01*
X98373285Y-91226474D02*
X98492333Y-91035997D01*
X98492333Y-91035997D02*
X98730428Y-90940759D01*
X98730428Y-90940759D02*
X100039952Y-90940759D01*
X100039952Y-89131235D02*
X98730428Y-89131235D01*
X98730428Y-89131235D02*
X98492333Y-89226473D01*
X98492333Y-89226473D02*
X98373285Y-89416949D01*
X98373285Y-89416949D02*
X98373285Y-89797902D01*
X98373285Y-89797902D02*
X98492333Y-89988378D01*
X99920904Y-89131235D02*
X100039952Y-89321711D01*
X100039952Y-89321711D02*
X100039952Y-89797902D01*
X100039952Y-89797902D02*
X99920904Y-89988378D01*
X99920904Y-89988378D02*
X99682809Y-90083616D01*
X99682809Y-90083616D02*
X99444714Y-90083616D01*
X99444714Y-90083616D02*
X99206619Y-89988378D01*
X99206619Y-89988378D02*
X99087571Y-89797902D01*
X99087571Y-89797902D02*
X99087571Y-89321711D01*
X99087571Y-89321711D02*
X98968523Y-89131235D01*
D12*
X101790476Y-122432666D02*
X102266666Y-122432666D01*
X101695238Y-122718380D02*
X102028571Y-121718380D01*
X102028571Y-121718380D02*
X102361904Y-122718380D01*
X102885714Y-121718380D02*
X102980952Y-121718380D01*
X102980952Y-121718380D02*
X103076190Y-121766000D01*
X103076190Y-121766000D02*
X103123809Y-121813619D01*
X103123809Y-121813619D02*
X103171428Y-121908857D01*
X103171428Y-121908857D02*
X103219047Y-122099333D01*
X103219047Y-122099333D02*
X103219047Y-122337428D01*
X103219047Y-122337428D02*
X103171428Y-122527904D01*
X103171428Y-122527904D02*
X103123809Y-122623142D01*
X103123809Y-122623142D02*
X103076190Y-122670761D01*
X103076190Y-122670761D02*
X102980952Y-122718380D01*
X102980952Y-122718380D02*
X102885714Y-122718380D01*
X102885714Y-122718380D02*
X102790476Y-122670761D01*
X102790476Y-122670761D02*
X102742857Y-122623142D01*
X102742857Y-122623142D02*
X102695238Y-122527904D01*
X102695238Y-122527904D02*
X102647619Y-122337428D01*
X102647619Y-122337428D02*
X102647619Y-122099333D01*
X102647619Y-122099333D02*
X102695238Y-121908857D01*
X102695238Y-121908857D02*
X102742857Y-121813619D01*
X102742857Y-121813619D02*
X102790476Y-121766000D01*
X102790476Y-121766000D02*
X102885714Y-121718380D01*
X101790476Y-135132666D02*
X102266666Y-135132666D01*
X101695238Y-135418380D02*
X102028571Y-134418380D01*
X102028571Y-134418380D02*
X102361904Y-135418380D01*
X103171428Y-134418380D02*
X102695238Y-134418380D01*
X102695238Y-134418380D02*
X102647619Y-134894571D01*
X102647619Y-134894571D02*
X102695238Y-134846952D01*
X102695238Y-134846952D02*
X102790476Y-134799333D01*
X102790476Y-134799333D02*
X103028571Y-134799333D01*
X103028571Y-134799333D02*
X103123809Y-134846952D01*
X103123809Y-134846952D02*
X103171428Y-134894571D01*
X103171428Y-134894571D02*
X103219047Y-134989809D01*
X103219047Y-134989809D02*
X103219047Y-135227904D01*
X103219047Y-135227904D02*
X103171428Y-135323142D01*
X103171428Y-135323142D02*
X103123809Y-135370761D01*
X103123809Y-135370761D02*
X103028571Y-135418380D01*
X103028571Y-135418380D02*
X102790476Y-135418380D01*
X102790476Y-135418380D02*
X102695238Y-135370761D01*
X102695238Y-135370761D02*
X102647619Y-135323142D01*
X101790476Y-140212666D02*
X102266666Y-140212666D01*
X101695238Y-140498380D02*
X102028571Y-139498380D01*
X102028571Y-139498380D02*
X102361904Y-140498380D01*
X102600000Y-139498380D02*
X103266666Y-139498380D01*
X103266666Y-139498380D02*
X102838095Y-140498380D01*
D13*
X178482476Y-61523142D02*
X182292000Y-61523142D01*
X180387238Y-63427904D02*
X180387238Y-59618380D01*
X88058476Y-61015142D02*
X91868000Y-61015142D01*
D12*
X101790476Y-130052666D02*
X102266666Y-130052666D01*
X101695238Y-130338380D02*
X102028571Y-129338380D01*
X102028571Y-129338380D02*
X102361904Y-130338380D01*
X102600000Y-129338380D02*
X103219047Y-129338380D01*
X103219047Y-129338380D02*
X102885714Y-129719333D01*
X102885714Y-129719333D02*
X103028571Y-129719333D01*
X103028571Y-129719333D02*
X103123809Y-129766952D01*
X103123809Y-129766952D02*
X103171428Y-129814571D01*
X103171428Y-129814571D02*
X103219047Y-129909809D01*
X103219047Y-129909809D02*
X103219047Y-130147904D01*
X103219047Y-130147904D02*
X103171428Y-130243142D01*
X103171428Y-130243142D02*
X103123809Y-130290761D01*
X103123809Y-130290761D02*
X103028571Y-130338380D01*
X103028571Y-130338380D02*
X102742857Y-130338380D01*
X102742857Y-130338380D02*
X102647619Y-130290761D01*
X102647619Y-130290761D02*
X102600000Y-130243142D01*
X101790476Y-137672666D02*
X102266666Y-137672666D01*
X101695238Y-137958380D02*
X102028571Y-136958380D01*
X102028571Y-136958380D02*
X102361904Y-137958380D01*
X103123809Y-136958380D02*
X102933333Y-136958380D01*
X102933333Y-136958380D02*
X102838095Y-137006000D01*
X102838095Y-137006000D02*
X102790476Y-137053619D01*
X102790476Y-137053619D02*
X102695238Y-137196476D01*
X102695238Y-137196476D02*
X102647619Y-137386952D01*
X102647619Y-137386952D02*
X102647619Y-137767904D01*
X102647619Y-137767904D02*
X102695238Y-137863142D01*
X102695238Y-137863142D02*
X102742857Y-137910761D01*
X102742857Y-137910761D02*
X102838095Y-137958380D01*
X102838095Y-137958380D02*
X103028571Y-137958380D01*
X103028571Y-137958380D02*
X103123809Y-137910761D01*
X103123809Y-137910761D02*
X103171428Y-137863142D01*
X103171428Y-137863142D02*
X103219047Y-137767904D01*
X103219047Y-137767904D02*
X103219047Y-137529809D01*
X103219047Y-137529809D02*
X103171428Y-137434571D01*
X103171428Y-137434571D02*
X103123809Y-137386952D01*
X103123809Y-137386952D02*
X103028571Y-137339333D01*
X103028571Y-137339333D02*
X102838095Y-137339333D01*
X102838095Y-137339333D02*
X102742857Y-137386952D01*
X102742857Y-137386952D02*
X102695238Y-137434571D01*
X102695238Y-137434571D02*
X102647619Y-137529809D01*
D11*
X94959952Y-109759809D02*
X92459952Y-109759809D01*
X92459952Y-109759809D02*
X94959952Y-108616952D01*
X94959952Y-108616952D02*
X92459952Y-108616952D01*
X93293285Y-107950285D02*
X93293285Y-107188381D01*
X92459952Y-107664571D02*
X94602809Y-107664571D01*
X94602809Y-107664571D02*
X94840904Y-107569333D01*
X94840904Y-107569333D02*
X94959952Y-107378857D01*
X94959952Y-107378857D02*
X94959952Y-107188381D01*
X94959952Y-106236000D02*
X94840904Y-106426476D01*
X94840904Y-106426476D02*
X94721857Y-106521714D01*
X94721857Y-106521714D02*
X94483761Y-106616952D01*
X94483761Y-106616952D02*
X93769476Y-106616952D01*
X93769476Y-106616952D02*
X93531380Y-106521714D01*
X93531380Y-106521714D02*
X93412333Y-106426476D01*
X93412333Y-106426476D02*
X93293285Y-106236000D01*
X93293285Y-106236000D02*
X93293285Y-105950285D01*
X93293285Y-105950285D02*
X93412333Y-105759809D01*
X93412333Y-105759809D02*
X93531380Y-105664571D01*
X93531380Y-105664571D02*
X93769476Y-105569333D01*
X93769476Y-105569333D02*
X94483761Y-105569333D01*
X94483761Y-105569333D02*
X94721857Y-105664571D01*
X94721857Y-105664571D02*
X94840904Y-105759809D01*
X94840904Y-105759809D02*
X94959952Y-105950285D01*
X94959952Y-105950285D02*
X94959952Y-106236000D01*
X94959952Y-104712190D02*
X92459952Y-104712190D01*
X94007571Y-104521714D02*
X94959952Y-103950285D01*
X93293285Y-103950285D02*
X94245666Y-104712190D01*
X94959952Y-102807428D02*
X94840904Y-102997904D01*
X94840904Y-102997904D02*
X94721857Y-103093142D01*
X94721857Y-103093142D02*
X94483761Y-103188380D01*
X94483761Y-103188380D02*
X93769476Y-103188380D01*
X93769476Y-103188380D02*
X93531380Y-103093142D01*
X93531380Y-103093142D02*
X93412333Y-102997904D01*
X93412333Y-102997904D02*
X93293285Y-102807428D01*
X93293285Y-102807428D02*
X93293285Y-102521713D01*
X93293285Y-102521713D02*
X93412333Y-102331237D01*
X93412333Y-102331237D02*
X93531380Y-102235999D01*
X93531380Y-102235999D02*
X93769476Y-102140761D01*
X93769476Y-102140761D02*
X94483761Y-102140761D01*
X94483761Y-102140761D02*
X94721857Y-102235999D01*
X94721857Y-102235999D02*
X94840904Y-102331237D01*
X94840904Y-102331237D02*
X94959952Y-102521713D01*
X94959952Y-102521713D02*
X94959952Y-102807428D01*
X93293285Y-101474094D02*
X93293285Y-100426475D01*
X93293285Y-100426475D02*
X94959952Y-101474094D01*
X94959952Y-101474094D02*
X94959952Y-100426475D01*
X94959952Y-99378856D02*
X94840904Y-99569332D01*
X94840904Y-99569332D02*
X94721857Y-99664570D01*
X94721857Y-99664570D02*
X94483761Y-99759808D01*
X94483761Y-99759808D02*
X93769476Y-99759808D01*
X93769476Y-99759808D02*
X93531380Y-99664570D01*
X93531380Y-99664570D02*
X93412333Y-99569332D01*
X93412333Y-99569332D02*
X93293285Y-99378856D01*
X93293285Y-99378856D02*
X93293285Y-99093141D01*
X93293285Y-99093141D02*
X93412333Y-98902665D01*
X93412333Y-98902665D02*
X93531380Y-98807427D01*
X93531380Y-98807427D02*
X93769476Y-98712189D01*
X93769476Y-98712189D02*
X94483761Y-98712189D01*
X94483761Y-98712189D02*
X94721857Y-98807427D01*
X94721857Y-98807427D02*
X94840904Y-98902665D01*
X94840904Y-98902665D02*
X94959952Y-99093141D01*
X94959952Y-99093141D02*
X94959952Y-99378856D01*
X94959952Y-95512189D02*
X93769476Y-96178856D01*
X94959952Y-96655046D02*
X92459952Y-96655046D01*
X92459952Y-96655046D02*
X92459952Y-95893141D01*
X92459952Y-95893141D02*
X92579000Y-95702665D01*
X92579000Y-95702665D02*
X92698047Y-95607427D01*
X92698047Y-95607427D02*
X92936142Y-95512189D01*
X92936142Y-95512189D02*
X93293285Y-95512189D01*
X93293285Y-95512189D02*
X93531380Y-95607427D01*
X93531380Y-95607427D02*
X93650428Y-95702665D01*
X93650428Y-95702665D02*
X93769476Y-95893141D01*
X93769476Y-95893141D02*
X93769476Y-96655046D01*
X94959952Y-93797903D02*
X93650428Y-93797903D01*
X93650428Y-93797903D02*
X93412333Y-93893141D01*
X93412333Y-93893141D02*
X93293285Y-94083617D01*
X93293285Y-94083617D02*
X93293285Y-94464570D01*
X93293285Y-94464570D02*
X93412333Y-94655046D01*
X94840904Y-93797903D02*
X94959952Y-93988379D01*
X94959952Y-93988379D02*
X94959952Y-94464570D01*
X94959952Y-94464570D02*
X94840904Y-94655046D01*
X94840904Y-94655046D02*
X94602809Y-94750284D01*
X94602809Y-94750284D02*
X94364714Y-94750284D01*
X94364714Y-94750284D02*
X94126619Y-94655046D01*
X94126619Y-94655046D02*
X94007571Y-94464570D01*
X94007571Y-94464570D02*
X94007571Y-93988379D01*
X94007571Y-93988379D02*
X93888523Y-93797903D01*
X94959952Y-91988379D02*
X92459952Y-91988379D01*
X94840904Y-91988379D02*
X94959952Y-92178855D01*
X94959952Y-92178855D02*
X94959952Y-92559808D01*
X94959952Y-92559808D02*
X94840904Y-92750284D01*
X94840904Y-92750284D02*
X94721857Y-92845522D01*
X94721857Y-92845522D02*
X94483761Y-92940760D01*
X94483761Y-92940760D02*
X93769476Y-92940760D01*
X93769476Y-92940760D02*
X93531380Y-92845522D01*
X93531380Y-92845522D02*
X93412333Y-92750284D01*
X93412333Y-92750284D02*
X93293285Y-92559808D01*
X93293285Y-92559808D02*
X93293285Y-92178855D01*
X93293285Y-92178855D02*
X93412333Y-91988379D01*
X94840904Y-90274093D02*
X94959952Y-90464569D01*
X94959952Y-90464569D02*
X94959952Y-90845522D01*
X94959952Y-90845522D02*
X94840904Y-91035998D01*
X94840904Y-91035998D02*
X94602809Y-91131236D01*
X94602809Y-91131236D02*
X93650428Y-91131236D01*
X93650428Y-91131236D02*
X93412333Y-91035998D01*
X93412333Y-91035998D02*
X93293285Y-90845522D01*
X93293285Y-90845522D02*
X93293285Y-90464569D01*
X93293285Y-90464569D02*
X93412333Y-90274093D01*
X93412333Y-90274093D02*
X93650428Y-90178855D01*
X93650428Y-90178855D02*
X93888523Y-90178855D01*
X93888523Y-90178855D02*
X94126619Y-91131236D01*
X94959952Y-89321712D02*
X92459952Y-89321712D01*
X93412333Y-89321712D02*
X93293285Y-89131236D01*
X93293285Y-89131236D02*
X93293285Y-88750283D01*
X93293285Y-88750283D02*
X93412333Y-88559807D01*
X93412333Y-88559807D02*
X93531380Y-88464569D01*
X93531380Y-88464569D02*
X93769476Y-88369331D01*
X93769476Y-88369331D02*
X94483761Y-88369331D01*
X94483761Y-88369331D02*
X94721857Y-88464569D01*
X94721857Y-88464569D02*
X94840904Y-88559807D01*
X94840904Y-88559807D02*
X94959952Y-88750283D01*
X94959952Y-88750283D02*
X94959952Y-89131236D01*
X94959952Y-89131236D02*
X94840904Y-89321712D01*
X94840904Y-86750283D02*
X94959952Y-86940759D01*
X94959952Y-86940759D02*
X94959952Y-87321712D01*
X94959952Y-87321712D02*
X94840904Y-87512188D01*
X94840904Y-87512188D02*
X94602809Y-87607426D01*
X94602809Y-87607426D02*
X93650428Y-87607426D01*
X93650428Y-87607426D02*
X93412333Y-87512188D01*
X93412333Y-87512188D02*
X93293285Y-87321712D01*
X93293285Y-87321712D02*
X93293285Y-86940759D01*
X93293285Y-86940759D02*
X93412333Y-86750283D01*
X93412333Y-86750283D02*
X93650428Y-86655045D01*
X93650428Y-86655045D02*
X93888523Y-86655045D01*
X93888523Y-86655045D02*
X94126619Y-87607426D01*
D12*
X101790476Y-127512666D02*
X102266666Y-127512666D01*
X101695238Y-127798380D02*
X102028571Y-126798380D01*
X102028571Y-126798380D02*
X102361904Y-127798380D01*
X102647619Y-126893619D02*
X102695238Y-126846000D01*
X102695238Y-126846000D02*
X102790476Y-126798380D01*
X102790476Y-126798380D02*
X103028571Y-126798380D01*
X103028571Y-126798380D02*
X103123809Y-126846000D01*
X103123809Y-126846000D02*
X103171428Y-126893619D01*
X103171428Y-126893619D02*
X103219047Y-126988857D01*
X103219047Y-126988857D02*
X103219047Y-127084095D01*
X103219047Y-127084095D02*
X103171428Y-127226952D01*
X103171428Y-127226952D02*
X102600000Y-127798380D01*
X102600000Y-127798380D02*
X103219047Y-127798380D01*
D11*
X98697523Y-152304952D02*
X96792761Y-152971619D01*
X98697523Y-153447809D02*
X94697523Y-153447809D01*
X94697523Y-153447809D02*
X94697523Y-152685904D01*
X94697523Y-152685904D02*
X94888000Y-152495428D01*
X94888000Y-152495428D02*
X95078476Y-152400190D01*
X95078476Y-152400190D02*
X95459428Y-152304952D01*
X95459428Y-152304952D02*
X96030857Y-152304952D01*
X96030857Y-152304952D02*
X96411809Y-152400190D01*
X96411809Y-152400190D02*
X96602285Y-152495428D01*
X96602285Y-152495428D02*
X96792761Y-152685904D01*
X96792761Y-152685904D02*
X96792761Y-153447809D01*
X98507047Y-150685904D02*
X98697523Y-150876380D01*
X98697523Y-150876380D02*
X98697523Y-151257333D01*
X98697523Y-151257333D02*
X98507047Y-151447809D01*
X98507047Y-151447809D02*
X98126095Y-151543047D01*
X98126095Y-151543047D02*
X96602285Y-151543047D01*
X96602285Y-151543047D02*
X96221333Y-151447809D01*
X96221333Y-151447809D02*
X96030857Y-151257333D01*
X96030857Y-151257333D02*
X96030857Y-150876380D01*
X96030857Y-150876380D02*
X96221333Y-150685904D01*
X96221333Y-150685904D02*
X96602285Y-150590666D01*
X96602285Y-150590666D02*
X96983238Y-150590666D01*
X96983238Y-150590666D02*
X97364190Y-151543047D01*
X96030857Y-149923999D02*
X98697523Y-149447809D01*
X98697523Y-149447809D02*
X96030857Y-148971618D01*
X98697523Y-145962094D02*
X98697523Y-147104951D01*
X98697523Y-146533523D02*
X94697523Y-146533523D01*
X94697523Y-146533523D02*
X95268952Y-146723999D01*
X95268952Y-146723999D02*
X95649904Y-146914475D01*
X95649904Y-146914475D02*
X95840380Y-147104951D01*
X98316571Y-145104951D02*
X98507047Y-145009713D01*
X98507047Y-145009713D02*
X98697523Y-145104951D01*
X98697523Y-145104951D02*
X98507047Y-145200189D01*
X98507047Y-145200189D02*
X98316571Y-145104951D01*
X98316571Y-145104951D02*
X98697523Y-145104951D01*
X94697523Y-143771618D02*
X94697523Y-143581141D01*
X94697523Y-143581141D02*
X94888000Y-143390665D01*
X94888000Y-143390665D02*
X95078476Y-143295427D01*
X95078476Y-143295427D02*
X95459428Y-143200189D01*
X95459428Y-143200189D02*
X96221333Y-143104951D01*
X96221333Y-143104951D02*
X97173714Y-143104951D01*
X97173714Y-143104951D02*
X97935619Y-143200189D01*
X97935619Y-143200189D02*
X98316571Y-143295427D01*
X98316571Y-143295427D02*
X98507047Y-143390665D01*
X98507047Y-143390665D02*
X98697523Y-143581141D01*
X98697523Y-143581141D02*
X98697523Y-143771618D01*
X98697523Y-143771618D02*
X98507047Y-143962094D01*
X98507047Y-143962094D02*
X98316571Y-144057332D01*
X98316571Y-144057332D02*
X97935619Y-144152570D01*
X97935619Y-144152570D02*
X97173714Y-144247808D01*
X97173714Y-144247808D02*
X96221333Y-144247808D01*
X96221333Y-144247808D02*
X95459428Y-144152570D01*
X95459428Y-144152570D02*
X95078476Y-144057332D01*
X95078476Y-144057332D02*
X94888000Y-143962094D01*
X94888000Y-143962094D02*
X94697523Y-143771618D01*
X89879952Y-109759809D02*
X87379952Y-109759809D01*
X87379952Y-109759809D02*
X89165666Y-109093142D01*
X89165666Y-109093142D02*
X87379952Y-108426476D01*
X87379952Y-108426476D02*
X89879952Y-108426476D01*
X89879952Y-106616952D02*
X88570428Y-106616952D01*
X88570428Y-106616952D02*
X88332333Y-106712190D01*
X88332333Y-106712190D02*
X88213285Y-106902666D01*
X88213285Y-106902666D02*
X88213285Y-107283619D01*
X88213285Y-107283619D02*
X88332333Y-107474095D01*
X89760904Y-106616952D02*
X89879952Y-106807428D01*
X89879952Y-106807428D02*
X89879952Y-107283619D01*
X89879952Y-107283619D02*
X89760904Y-107474095D01*
X89760904Y-107474095D02*
X89522809Y-107569333D01*
X89522809Y-107569333D02*
X89284714Y-107569333D01*
X89284714Y-107569333D02*
X89046619Y-107474095D01*
X89046619Y-107474095D02*
X88927571Y-107283619D01*
X88927571Y-107283619D02*
X88927571Y-106807428D01*
X88927571Y-106807428D02*
X88808523Y-106616952D01*
X88213285Y-105950285D02*
X88213285Y-105188381D01*
X87379952Y-105664571D02*
X89522809Y-105664571D01*
X89522809Y-105664571D02*
X89760904Y-105569333D01*
X89760904Y-105569333D02*
X89879952Y-105378857D01*
X89879952Y-105378857D02*
X89879952Y-105188381D01*
X88213285Y-104807428D02*
X88213285Y-104045524D01*
X87379952Y-104521714D02*
X89522809Y-104521714D01*
X89522809Y-104521714D02*
X89760904Y-104426476D01*
X89760904Y-104426476D02*
X89879952Y-104236000D01*
X89879952Y-104236000D02*
X89879952Y-104045524D01*
X89879952Y-103378857D02*
X87379952Y-103378857D01*
X89879952Y-102521714D02*
X88570428Y-102521714D01*
X88570428Y-102521714D02*
X88332333Y-102616952D01*
X88332333Y-102616952D02*
X88213285Y-102807428D01*
X88213285Y-102807428D02*
X88213285Y-103093143D01*
X88213285Y-103093143D02*
X88332333Y-103283619D01*
X88332333Y-103283619D02*
X88451380Y-103378857D01*
X89760904Y-100807428D02*
X89879952Y-100997904D01*
X89879952Y-100997904D02*
X89879952Y-101378857D01*
X89879952Y-101378857D02*
X89760904Y-101569333D01*
X89760904Y-101569333D02*
X89522809Y-101664571D01*
X89522809Y-101664571D02*
X88570428Y-101664571D01*
X88570428Y-101664571D02*
X88332333Y-101569333D01*
X88332333Y-101569333D02*
X88213285Y-101378857D01*
X88213285Y-101378857D02*
X88213285Y-100997904D01*
X88213285Y-100997904D02*
X88332333Y-100807428D01*
X88332333Y-100807428D02*
X88570428Y-100712190D01*
X88570428Y-100712190D02*
X88808523Y-100712190D01*
X88808523Y-100712190D02*
X89046619Y-101664571D01*
X88213285Y-100045523D02*
X89879952Y-99664571D01*
X89879952Y-99664571D02*
X88689476Y-99283618D01*
X88689476Y-99283618D02*
X89879952Y-98902666D01*
X89879952Y-98902666D02*
X88213285Y-98521714D01*
X89879952Y-95416952D02*
X88689476Y-96083619D01*
X89879952Y-96559809D02*
X87379952Y-96559809D01*
X87379952Y-96559809D02*
X87379952Y-95797904D01*
X87379952Y-95797904D02*
X87499000Y-95607428D01*
X87499000Y-95607428D02*
X87618047Y-95512190D01*
X87618047Y-95512190D02*
X87856142Y-95416952D01*
X87856142Y-95416952D02*
X88213285Y-95416952D01*
X88213285Y-95416952D02*
X88451380Y-95512190D01*
X88451380Y-95512190D02*
X88570428Y-95607428D01*
X88570428Y-95607428D02*
X88689476Y-95797904D01*
X88689476Y-95797904D02*
X88689476Y-96559809D01*
X89879952Y-94274095D02*
X89760904Y-94464571D01*
X89760904Y-94464571D02*
X89641857Y-94559809D01*
X89641857Y-94559809D02*
X89403761Y-94655047D01*
X89403761Y-94655047D02*
X88689476Y-94655047D01*
X88689476Y-94655047D02*
X88451380Y-94559809D01*
X88451380Y-94559809D02*
X88332333Y-94464571D01*
X88332333Y-94464571D02*
X88213285Y-94274095D01*
X88213285Y-94274095D02*
X88213285Y-93988380D01*
X88213285Y-93988380D02*
X88332333Y-93797904D01*
X88332333Y-93797904D02*
X88451380Y-93702666D01*
X88451380Y-93702666D02*
X88689476Y-93607428D01*
X88689476Y-93607428D02*
X89403761Y-93607428D01*
X89403761Y-93607428D02*
X89641857Y-93702666D01*
X89641857Y-93702666D02*
X89760904Y-93797904D01*
X89760904Y-93797904D02*
X89879952Y-93988380D01*
X89879952Y-93988380D02*
X89879952Y-94274095D01*
X89760904Y-92845523D02*
X89879952Y-92655047D01*
X89879952Y-92655047D02*
X89879952Y-92274095D01*
X89879952Y-92274095D02*
X89760904Y-92083618D01*
X89760904Y-92083618D02*
X89522809Y-91988380D01*
X89522809Y-91988380D02*
X89403761Y-91988380D01*
X89403761Y-91988380D02*
X89165666Y-92083618D01*
X89165666Y-92083618D02*
X89046619Y-92274095D01*
X89046619Y-92274095D02*
X89046619Y-92559809D01*
X89046619Y-92559809D02*
X88927571Y-92750285D01*
X88927571Y-92750285D02*
X88689476Y-92845523D01*
X88689476Y-92845523D02*
X88570428Y-92845523D01*
X88570428Y-92845523D02*
X88332333Y-92750285D01*
X88332333Y-92750285D02*
X88213285Y-92559809D01*
X88213285Y-92559809D02*
X88213285Y-92274095D01*
X88213285Y-92274095D02*
X88332333Y-92083618D01*
X89760904Y-90369332D02*
X89879952Y-90559808D01*
X89879952Y-90559808D02*
X89879952Y-90940761D01*
X89879952Y-90940761D02*
X89760904Y-91131237D01*
X89760904Y-91131237D02*
X89522809Y-91226475D01*
X89522809Y-91226475D02*
X88570428Y-91226475D01*
X88570428Y-91226475D02*
X88332333Y-91131237D01*
X88332333Y-91131237D02*
X88213285Y-90940761D01*
X88213285Y-90940761D02*
X88213285Y-90559808D01*
X88213285Y-90559808D02*
X88332333Y-90369332D01*
X88332333Y-90369332D02*
X88570428Y-90274094D01*
X88570428Y-90274094D02*
X88808523Y-90274094D01*
X88808523Y-90274094D02*
X89046619Y-91226475D01*
X88927571Y-89416951D02*
X88927571Y-87893142D01*
X89879952Y-86940761D02*
X87379952Y-86940761D01*
X88213285Y-85988380D02*
X89879952Y-85988380D01*
X88451380Y-85988380D02*
X88332333Y-85893142D01*
X88332333Y-85893142D02*
X88213285Y-85702666D01*
X88213285Y-85702666D02*
X88213285Y-85416951D01*
X88213285Y-85416951D02*
X88332333Y-85226475D01*
X88332333Y-85226475D02*
X88570428Y-85131237D01*
X88570428Y-85131237D02*
X89879952Y-85131237D01*
X88213285Y-84178856D02*
X89879952Y-84178856D01*
X88451380Y-84178856D02*
X88332333Y-84083618D01*
X88332333Y-84083618D02*
X88213285Y-83893142D01*
X88213285Y-83893142D02*
X88213285Y-83607427D01*
X88213285Y-83607427D02*
X88332333Y-83416951D01*
X88332333Y-83416951D02*
X88570428Y-83321713D01*
X88570428Y-83321713D02*
X89879952Y-83321713D01*
X89760904Y-81607427D02*
X89879952Y-81797903D01*
X89879952Y-81797903D02*
X89879952Y-82178856D01*
X89879952Y-82178856D02*
X89760904Y-82369332D01*
X89760904Y-82369332D02*
X89522809Y-82464570D01*
X89522809Y-82464570D02*
X88570428Y-82464570D01*
X88570428Y-82464570D02*
X88332333Y-82369332D01*
X88332333Y-82369332D02*
X88213285Y-82178856D01*
X88213285Y-82178856D02*
X88213285Y-81797903D01*
X88213285Y-81797903D02*
X88332333Y-81607427D01*
X88332333Y-81607427D02*
X88570428Y-81512189D01*
X88570428Y-81512189D02*
X88808523Y-81512189D01*
X88808523Y-81512189D02*
X89046619Y-82464570D01*
X89760904Y-80750284D02*
X89879952Y-80559808D01*
X89879952Y-80559808D02*
X89879952Y-80178856D01*
X89879952Y-80178856D02*
X89760904Y-79988379D01*
X89760904Y-79988379D02*
X89522809Y-79893141D01*
X89522809Y-79893141D02*
X89403761Y-79893141D01*
X89403761Y-79893141D02*
X89165666Y-79988379D01*
X89165666Y-79988379D02*
X89046619Y-80178856D01*
X89046619Y-80178856D02*
X89046619Y-80464570D01*
X89046619Y-80464570D02*
X88927571Y-80655046D01*
X88927571Y-80655046D02*
X88689476Y-80750284D01*
X88689476Y-80750284D02*
X88570428Y-80750284D01*
X88570428Y-80750284D02*
X88332333Y-80655046D01*
X88332333Y-80655046D02*
X88213285Y-80464570D01*
X88213285Y-80464570D02*
X88213285Y-80178856D01*
X88213285Y-80178856D02*
X88332333Y-79988379D01*
D12*
X101790476Y-132592666D02*
X102266666Y-132592666D01*
X101695238Y-132878380D02*
X102028571Y-131878380D01*
X102028571Y-131878380D02*
X102361904Y-132878380D01*
X103123809Y-132211714D02*
X103123809Y-132878380D01*
X102885714Y-131830761D02*
X102647619Y-132545047D01*
X102647619Y-132545047D02*
X103266666Y-132545047D01*
X101790476Y-124972666D02*
X102266666Y-124972666D01*
X101695238Y-125258380D02*
X102028571Y-124258380D01*
X102028571Y-124258380D02*
X102361904Y-125258380D01*
X103219047Y-125258380D02*
X102647619Y-125258380D01*
X102933333Y-125258380D02*
X102933333Y-124258380D01*
X102933333Y-124258380D02*
X102838095Y-124401238D01*
X102838095Y-124401238D02*
X102742857Y-124496476D01*
X102742857Y-124496476D02*
X102647619Y-124544095D01*
D11*
X87776000Y-152400190D02*
X87585523Y-152590666D01*
X87585523Y-152590666D02*
X87585523Y-152876380D01*
X87585523Y-152876380D02*
X87776000Y-153162095D01*
X87776000Y-153162095D02*
X88156952Y-153352571D01*
X88156952Y-153352571D02*
X88537904Y-153447809D01*
X88537904Y-153447809D02*
X89299809Y-153543047D01*
X89299809Y-153543047D02*
X89871238Y-153543047D01*
X89871238Y-153543047D02*
X90633142Y-153447809D01*
X90633142Y-153447809D02*
X91014095Y-153352571D01*
X91014095Y-153352571D02*
X91395047Y-153162095D01*
X91395047Y-153162095D02*
X91585523Y-152876380D01*
X91585523Y-152876380D02*
X91585523Y-152685904D01*
X91585523Y-152685904D02*
X91395047Y-152400190D01*
X91395047Y-152400190D02*
X91204571Y-152304952D01*
X91204571Y-152304952D02*
X89871238Y-152304952D01*
X89871238Y-152304952D02*
X89871238Y-152685904D01*
X91585523Y-151447809D02*
X88918857Y-151447809D01*
X89680761Y-151447809D02*
X89299809Y-151352571D01*
X89299809Y-151352571D02*
X89109333Y-151257333D01*
X89109333Y-151257333D02*
X88918857Y-151066857D01*
X88918857Y-151066857D02*
X88918857Y-150876380D01*
X91585523Y-149924000D02*
X91395047Y-150114476D01*
X91395047Y-150114476D02*
X91204571Y-150209714D01*
X91204571Y-150209714D02*
X90823619Y-150304952D01*
X90823619Y-150304952D02*
X89680761Y-150304952D01*
X89680761Y-150304952D02*
X89299809Y-150209714D01*
X89299809Y-150209714D02*
X89109333Y-150114476D01*
X89109333Y-150114476D02*
X88918857Y-149924000D01*
X88918857Y-149924000D02*
X88918857Y-149638285D01*
X88918857Y-149638285D02*
X89109333Y-149447809D01*
X89109333Y-149447809D02*
X89299809Y-149352571D01*
X89299809Y-149352571D02*
X89680761Y-149257333D01*
X89680761Y-149257333D02*
X90823619Y-149257333D01*
X90823619Y-149257333D02*
X91204571Y-149352571D01*
X91204571Y-149352571D02*
X91395047Y-149447809D01*
X91395047Y-149447809D02*
X91585523Y-149638285D01*
X91585523Y-149638285D02*
X91585523Y-149924000D01*
X88918857Y-147543047D02*
X91585523Y-147543047D01*
X88918857Y-148400190D02*
X91014095Y-148400190D01*
X91014095Y-148400190D02*
X91395047Y-148304952D01*
X91395047Y-148304952D02*
X91585523Y-148114476D01*
X91585523Y-148114476D02*
X91585523Y-147828761D01*
X91585523Y-147828761D02*
X91395047Y-147638285D01*
X91395047Y-147638285D02*
X91204571Y-147543047D01*
X88918857Y-146590666D02*
X92918857Y-146590666D01*
X89109333Y-146590666D02*
X88918857Y-146400190D01*
X88918857Y-146400190D02*
X88918857Y-146019237D01*
X88918857Y-146019237D02*
X89109333Y-145828761D01*
X89109333Y-145828761D02*
X89299809Y-145733523D01*
X89299809Y-145733523D02*
X89680761Y-145638285D01*
X89680761Y-145638285D02*
X90823619Y-145638285D01*
X90823619Y-145638285D02*
X91204571Y-145733523D01*
X91204571Y-145733523D02*
X91395047Y-145828761D01*
X91395047Y-145828761D02*
X91585523Y-146019237D01*
X91585523Y-146019237D02*
X91585523Y-146400190D01*
X91585523Y-146400190D02*
X91395047Y-146590666D01*
X87585523Y-143771618D02*
X87585523Y-142533523D01*
X87585523Y-142533523D02*
X89109333Y-143200190D01*
X89109333Y-143200190D02*
X89109333Y-142914475D01*
X89109333Y-142914475D02*
X89299809Y-142723999D01*
X89299809Y-142723999D02*
X89490285Y-142628761D01*
X89490285Y-142628761D02*
X89871238Y-142533523D01*
X89871238Y-142533523D02*
X90823619Y-142533523D01*
X90823619Y-142533523D02*
X91204571Y-142628761D01*
X91204571Y-142628761D02*
X91395047Y-142723999D01*
X91395047Y-142723999D02*
X91585523Y-142914475D01*
X91585523Y-142914475D02*
X91585523Y-143485904D01*
X91585523Y-143485904D02*
X91395047Y-143676380D01*
X91395047Y-143676380D02*
X91204571Y-143771618D01*
X87966476Y-141771618D02*
X87776000Y-141676380D01*
X87776000Y-141676380D02*
X87585523Y-141485904D01*
X87585523Y-141485904D02*
X87585523Y-141009713D01*
X87585523Y-141009713D02*
X87776000Y-140819237D01*
X87776000Y-140819237D02*
X87966476Y-140723999D01*
X87966476Y-140723999D02*
X88347428Y-140628761D01*
X88347428Y-140628761D02*
X88728380Y-140628761D01*
X88728380Y-140628761D02*
X89299809Y-140723999D01*
X89299809Y-140723999D02*
X91585523Y-141866856D01*
X91585523Y-141866856D02*
X91585523Y-140628761D01*
X91585523Y-138571618D02*
X87585523Y-138571618D01*
X87585523Y-138571618D02*
X87585523Y-138095428D01*
X87585523Y-138095428D02*
X87776000Y-137809713D01*
X87776000Y-137809713D02*
X88156952Y-137619237D01*
X88156952Y-137619237D02*
X88537904Y-137523999D01*
X88537904Y-137523999D02*
X89299809Y-137428761D01*
X89299809Y-137428761D02*
X89871238Y-137428761D01*
X89871238Y-137428761D02*
X90633142Y-137523999D01*
X90633142Y-137523999D02*
X91014095Y-137619237D01*
X91014095Y-137619237D02*
X91395047Y-137809713D01*
X91395047Y-137809713D02*
X91585523Y-138095428D01*
X91585523Y-138095428D02*
X91585523Y-138571618D01*
X91585523Y-135714475D02*
X89490285Y-135714475D01*
X89490285Y-135714475D02*
X89109333Y-135809713D01*
X89109333Y-135809713D02*
X88918857Y-136000189D01*
X88918857Y-136000189D02*
X88918857Y-136381142D01*
X88918857Y-136381142D02*
X89109333Y-136571618D01*
X91395047Y-135714475D02*
X91585523Y-135904951D01*
X91585523Y-135904951D02*
X91585523Y-136381142D01*
X91585523Y-136381142D02*
X91395047Y-136571618D01*
X91395047Y-136571618D02*
X91014095Y-136666856D01*
X91014095Y-136666856D02*
X90633142Y-136666856D01*
X90633142Y-136666856D02*
X90252190Y-136571618D01*
X90252190Y-136571618D02*
X90061714Y-136381142D01*
X90061714Y-136381142D02*
X90061714Y-135904951D01*
X90061714Y-135904951D02*
X89871238Y-135714475D01*
X88918857Y-135047808D02*
X88918857Y-134285904D01*
X87585523Y-134762094D02*
X91014095Y-134762094D01*
X91014095Y-134762094D02*
X91395047Y-134666856D01*
X91395047Y-134666856D02*
X91585523Y-134476380D01*
X91585523Y-134476380D02*
X91585523Y-134285904D01*
X91585523Y-132762094D02*
X89490285Y-132762094D01*
X89490285Y-132762094D02*
X89109333Y-132857332D01*
X89109333Y-132857332D02*
X88918857Y-133047808D01*
X88918857Y-133047808D02*
X88918857Y-133428761D01*
X88918857Y-133428761D02*
X89109333Y-133619237D01*
X91395047Y-132762094D02*
X91585523Y-132952570D01*
X91585523Y-132952570D02*
X91585523Y-133428761D01*
X91585523Y-133428761D02*
X91395047Y-133619237D01*
X91395047Y-133619237D02*
X91014095Y-133714475D01*
X91014095Y-133714475D02*
X90633142Y-133714475D01*
X90633142Y-133714475D02*
X90252190Y-133619237D01*
X90252190Y-133619237D02*
X90061714Y-133428761D01*
X90061714Y-133428761D02*
X90061714Y-132952570D01*
X90061714Y-132952570D02*
X89871238Y-132762094D01*
X91585523Y-130323999D02*
X91395047Y-130514475D01*
X91395047Y-130514475D02*
X91014095Y-130609713D01*
X91014095Y-130609713D02*
X87585523Y-130609713D01*
X91585523Y-129276380D02*
X91395047Y-129466856D01*
X91395047Y-129466856D02*
X91204571Y-129562094D01*
X91204571Y-129562094D02*
X90823619Y-129657332D01*
X90823619Y-129657332D02*
X89680761Y-129657332D01*
X89680761Y-129657332D02*
X89299809Y-129562094D01*
X89299809Y-129562094D02*
X89109333Y-129466856D01*
X89109333Y-129466856D02*
X88918857Y-129276380D01*
X88918857Y-129276380D02*
X88918857Y-128990665D01*
X88918857Y-128990665D02*
X89109333Y-128800189D01*
X89109333Y-128800189D02*
X89299809Y-128704951D01*
X89299809Y-128704951D02*
X89680761Y-128609713D01*
X89680761Y-128609713D02*
X90823619Y-128609713D01*
X90823619Y-128609713D02*
X91204571Y-128704951D01*
X91204571Y-128704951D02*
X91395047Y-128800189D01*
X91395047Y-128800189D02*
X91585523Y-128990665D01*
X91585523Y-128990665D02*
X91585523Y-129276380D01*
X88918857Y-126895427D02*
X92156952Y-126895427D01*
X92156952Y-126895427D02*
X92537904Y-126990665D01*
X92537904Y-126990665D02*
X92728380Y-127085903D01*
X92728380Y-127085903D02*
X92918857Y-127276380D01*
X92918857Y-127276380D02*
X92918857Y-127562094D01*
X92918857Y-127562094D02*
X92728380Y-127752570D01*
X91395047Y-126895427D02*
X91585523Y-127085903D01*
X91585523Y-127085903D02*
X91585523Y-127466856D01*
X91585523Y-127466856D02*
X91395047Y-127657332D01*
X91395047Y-127657332D02*
X91204571Y-127752570D01*
X91204571Y-127752570D02*
X90823619Y-127847808D01*
X90823619Y-127847808D02*
X89680761Y-127847808D01*
X89680761Y-127847808D02*
X89299809Y-127752570D01*
X89299809Y-127752570D02*
X89109333Y-127657332D01*
X89109333Y-127657332D02*
X88918857Y-127466856D01*
X88918857Y-127466856D02*
X88918857Y-127085903D01*
X88918857Y-127085903D02*
X89109333Y-126895427D01*
X88918857Y-125085903D02*
X92156952Y-125085903D01*
X92156952Y-125085903D02*
X92537904Y-125181141D01*
X92537904Y-125181141D02*
X92728380Y-125276379D01*
X92728380Y-125276379D02*
X92918857Y-125466856D01*
X92918857Y-125466856D02*
X92918857Y-125752570D01*
X92918857Y-125752570D02*
X92728380Y-125943046D01*
X91395047Y-125085903D02*
X91585523Y-125276379D01*
X91585523Y-125276379D02*
X91585523Y-125657332D01*
X91585523Y-125657332D02*
X91395047Y-125847808D01*
X91395047Y-125847808D02*
X91204571Y-125943046D01*
X91204571Y-125943046D02*
X90823619Y-126038284D01*
X90823619Y-126038284D02*
X89680761Y-126038284D01*
X89680761Y-126038284D02*
X89299809Y-125943046D01*
X89299809Y-125943046D02*
X89109333Y-125847808D01*
X89109333Y-125847808D02*
X88918857Y-125657332D01*
X88918857Y-125657332D02*
X88918857Y-125276379D01*
X88918857Y-125276379D02*
X89109333Y-125085903D01*
X91395047Y-123371617D02*
X91585523Y-123562093D01*
X91585523Y-123562093D02*
X91585523Y-123943046D01*
X91585523Y-123943046D02*
X91395047Y-124133522D01*
X91395047Y-124133522D02*
X91014095Y-124228760D01*
X91014095Y-124228760D02*
X89490285Y-124228760D01*
X89490285Y-124228760D02*
X89109333Y-124133522D01*
X89109333Y-124133522D02*
X88918857Y-123943046D01*
X88918857Y-123943046D02*
X88918857Y-123562093D01*
X88918857Y-123562093D02*
X89109333Y-123371617D01*
X89109333Y-123371617D02*
X89490285Y-123276379D01*
X89490285Y-123276379D02*
X89871238Y-123276379D01*
X89871238Y-123276379D02*
X90252190Y-124228760D01*
X91585523Y-122419236D02*
X88918857Y-122419236D01*
X89680761Y-122419236D02*
X89299809Y-122323998D01*
X89299809Y-122323998D02*
X89109333Y-122228760D01*
X89109333Y-122228760D02*
X88918857Y-122038284D01*
X88918857Y-122038284D02*
X88918857Y-121847807D01*
D12*
%TO.C,U7*%
X173482095Y-139123380D02*
X173482095Y-139932904D01*
X173482095Y-139932904D02*
X173529714Y-140028142D01*
X173529714Y-140028142D02*
X173577333Y-140075761D01*
X173577333Y-140075761D02*
X173672571Y-140123380D01*
X173672571Y-140123380D02*
X173863047Y-140123380D01*
X173863047Y-140123380D02*
X173958285Y-140075761D01*
X173958285Y-140075761D02*
X174005904Y-140028142D01*
X174005904Y-140028142D02*
X174053523Y-139932904D01*
X174053523Y-139932904D02*
X174053523Y-139123380D01*
X174434476Y-139123380D02*
X175101142Y-139123380D01*
X175101142Y-139123380D02*
X174672571Y-140123380D01*
%TO.C,R9*%
X149211380Y-116498666D02*
X148735190Y-116831999D01*
X149211380Y-117070094D02*
X148211380Y-117070094D01*
X148211380Y-117070094D02*
X148211380Y-116689142D01*
X148211380Y-116689142D02*
X148259000Y-116593904D01*
X148259000Y-116593904D02*
X148306619Y-116546285D01*
X148306619Y-116546285D02*
X148401857Y-116498666D01*
X148401857Y-116498666D02*
X148544714Y-116498666D01*
X148544714Y-116498666D02*
X148639952Y-116546285D01*
X148639952Y-116546285D02*
X148687571Y-116593904D01*
X148687571Y-116593904D02*
X148735190Y-116689142D01*
X148735190Y-116689142D02*
X148735190Y-117070094D01*
X149211380Y-116022475D02*
X149211380Y-115831999D01*
X149211380Y-115831999D02*
X149163761Y-115736761D01*
X149163761Y-115736761D02*
X149116142Y-115689142D01*
X149116142Y-115689142D02*
X148973285Y-115593904D01*
X148973285Y-115593904D02*
X148782809Y-115546285D01*
X148782809Y-115546285D02*
X148401857Y-115546285D01*
X148401857Y-115546285D02*
X148306619Y-115593904D01*
X148306619Y-115593904D02*
X148259000Y-115641523D01*
X148259000Y-115641523D02*
X148211380Y-115736761D01*
X148211380Y-115736761D02*
X148211380Y-115927237D01*
X148211380Y-115927237D02*
X148259000Y-116022475D01*
X148259000Y-116022475D02*
X148306619Y-116070094D01*
X148306619Y-116070094D02*
X148401857Y-116117713D01*
X148401857Y-116117713D02*
X148639952Y-116117713D01*
X148639952Y-116117713D02*
X148735190Y-116070094D01*
X148735190Y-116070094D02*
X148782809Y-116022475D01*
X148782809Y-116022475D02*
X148830428Y-115927237D01*
X148830428Y-115927237D02*
X148830428Y-115736761D01*
X148830428Y-115736761D02*
X148782809Y-115641523D01*
X148782809Y-115641523D02*
X148735190Y-115593904D01*
X148735190Y-115593904D02*
X148639952Y-115546285D01*
%TO.C,R4*%
X153757333Y-154925380D02*
X153424000Y-154449190D01*
X153185905Y-154925380D02*
X153185905Y-153925380D01*
X153185905Y-153925380D02*
X153566857Y-153925380D01*
X153566857Y-153925380D02*
X153662095Y-153973000D01*
X153662095Y-153973000D02*
X153709714Y-154020619D01*
X153709714Y-154020619D02*
X153757333Y-154115857D01*
X153757333Y-154115857D02*
X153757333Y-154258714D01*
X153757333Y-154258714D02*
X153709714Y-154353952D01*
X153709714Y-154353952D02*
X153662095Y-154401571D01*
X153662095Y-154401571D02*
X153566857Y-154449190D01*
X153566857Y-154449190D02*
X153185905Y-154449190D01*
X154614476Y-154258714D02*
X154614476Y-154925380D01*
X154376381Y-153877761D02*
X154138286Y-154592047D01*
X154138286Y-154592047D02*
X154757333Y-154592047D01*
%TO.C,C8*%
X182205333Y-142004142D02*
X182157714Y-142051761D01*
X182157714Y-142051761D02*
X182014857Y-142099380D01*
X182014857Y-142099380D02*
X181919619Y-142099380D01*
X181919619Y-142099380D02*
X181776762Y-142051761D01*
X181776762Y-142051761D02*
X181681524Y-141956523D01*
X181681524Y-141956523D02*
X181633905Y-141861285D01*
X181633905Y-141861285D02*
X181586286Y-141670809D01*
X181586286Y-141670809D02*
X181586286Y-141527952D01*
X181586286Y-141527952D02*
X181633905Y-141337476D01*
X181633905Y-141337476D02*
X181681524Y-141242238D01*
X181681524Y-141242238D02*
X181776762Y-141147000D01*
X181776762Y-141147000D02*
X181919619Y-141099380D01*
X181919619Y-141099380D02*
X182014857Y-141099380D01*
X182014857Y-141099380D02*
X182157714Y-141147000D01*
X182157714Y-141147000D02*
X182205333Y-141194619D01*
X182776762Y-141527952D02*
X182681524Y-141480333D01*
X182681524Y-141480333D02*
X182633905Y-141432714D01*
X182633905Y-141432714D02*
X182586286Y-141337476D01*
X182586286Y-141337476D02*
X182586286Y-141289857D01*
X182586286Y-141289857D02*
X182633905Y-141194619D01*
X182633905Y-141194619D02*
X182681524Y-141147000D01*
X182681524Y-141147000D02*
X182776762Y-141099380D01*
X182776762Y-141099380D02*
X182967238Y-141099380D01*
X182967238Y-141099380D02*
X183062476Y-141147000D01*
X183062476Y-141147000D02*
X183110095Y-141194619D01*
X183110095Y-141194619D02*
X183157714Y-141289857D01*
X183157714Y-141289857D02*
X183157714Y-141337476D01*
X183157714Y-141337476D02*
X183110095Y-141432714D01*
X183110095Y-141432714D02*
X183062476Y-141480333D01*
X183062476Y-141480333D02*
X182967238Y-141527952D01*
X182967238Y-141527952D02*
X182776762Y-141527952D01*
X182776762Y-141527952D02*
X182681524Y-141575571D01*
X182681524Y-141575571D02*
X182633905Y-141623190D01*
X182633905Y-141623190D02*
X182586286Y-141718428D01*
X182586286Y-141718428D02*
X182586286Y-141908904D01*
X182586286Y-141908904D02*
X182633905Y-142004142D01*
X182633905Y-142004142D02*
X182681524Y-142051761D01*
X182681524Y-142051761D02*
X182776762Y-142099380D01*
X182776762Y-142099380D02*
X182967238Y-142099380D01*
X182967238Y-142099380D02*
X183062476Y-142051761D01*
X183062476Y-142051761D02*
X183110095Y-142004142D01*
X183110095Y-142004142D02*
X183157714Y-141908904D01*
X183157714Y-141908904D02*
X183157714Y-141718428D01*
X183157714Y-141718428D02*
X183110095Y-141623190D01*
X183110095Y-141623190D02*
X183062476Y-141575571D01*
X183062476Y-141575571D02*
X182967238Y-141527952D01*
%TO.C,J3*%
X138349380Y-148669333D02*
X139063666Y-148669333D01*
X139063666Y-148669333D02*
X139206523Y-148716952D01*
X139206523Y-148716952D02*
X139301761Y-148812190D01*
X139301761Y-148812190D02*
X139349380Y-148955047D01*
X139349380Y-148955047D02*
X139349380Y-149050285D01*
X138349380Y-148288380D02*
X138349380Y-147669333D01*
X138349380Y-147669333D02*
X138730333Y-148002666D01*
X138730333Y-148002666D02*
X138730333Y-147859809D01*
X138730333Y-147859809D02*
X138777952Y-147764571D01*
X138777952Y-147764571D02*
X138825571Y-147716952D01*
X138825571Y-147716952D02*
X138920809Y-147669333D01*
X138920809Y-147669333D02*
X139158904Y-147669333D01*
X139158904Y-147669333D02*
X139254142Y-147716952D01*
X139254142Y-147716952D02*
X139301761Y-147764571D01*
X139301761Y-147764571D02*
X139349380Y-147859809D01*
X139349380Y-147859809D02*
X139349380Y-148145523D01*
X139349380Y-148145523D02*
X139301761Y-148240761D01*
X139301761Y-148240761D02*
X139254142Y-148288380D01*
%TO.C,R11*%
X119239380Y-108830857D02*
X118763190Y-109164190D01*
X119239380Y-109402285D02*
X118239380Y-109402285D01*
X118239380Y-109402285D02*
X118239380Y-109021333D01*
X118239380Y-109021333D02*
X118287000Y-108926095D01*
X118287000Y-108926095D02*
X118334619Y-108878476D01*
X118334619Y-108878476D02*
X118429857Y-108830857D01*
X118429857Y-108830857D02*
X118572714Y-108830857D01*
X118572714Y-108830857D02*
X118667952Y-108878476D01*
X118667952Y-108878476D02*
X118715571Y-108926095D01*
X118715571Y-108926095D02*
X118763190Y-109021333D01*
X118763190Y-109021333D02*
X118763190Y-109402285D01*
X119239380Y-107878476D02*
X119239380Y-108449904D01*
X119239380Y-108164190D02*
X118239380Y-108164190D01*
X118239380Y-108164190D02*
X118382238Y-108259428D01*
X118382238Y-108259428D02*
X118477476Y-108354666D01*
X118477476Y-108354666D02*
X118525095Y-108449904D01*
X119239380Y-106926095D02*
X119239380Y-107497523D01*
X119239380Y-107211809D02*
X118239380Y-107211809D01*
X118239380Y-107211809D02*
X118382238Y-107307047D01*
X118382238Y-107307047D02*
X118477476Y-107402285D01*
X118477476Y-107402285D02*
X118525095Y-107497523D01*
%TO.C,C10*%
X167248142Y-142816857D02*
X167295761Y-142864476D01*
X167295761Y-142864476D02*
X167343380Y-143007333D01*
X167343380Y-143007333D02*
X167343380Y-143102571D01*
X167343380Y-143102571D02*
X167295761Y-143245428D01*
X167295761Y-143245428D02*
X167200523Y-143340666D01*
X167200523Y-143340666D02*
X167105285Y-143388285D01*
X167105285Y-143388285D02*
X166914809Y-143435904D01*
X166914809Y-143435904D02*
X166771952Y-143435904D01*
X166771952Y-143435904D02*
X166581476Y-143388285D01*
X166581476Y-143388285D02*
X166486238Y-143340666D01*
X166486238Y-143340666D02*
X166391000Y-143245428D01*
X166391000Y-143245428D02*
X166343380Y-143102571D01*
X166343380Y-143102571D02*
X166343380Y-143007333D01*
X166343380Y-143007333D02*
X166391000Y-142864476D01*
X166391000Y-142864476D02*
X166438619Y-142816857D01*
X167343380Y-141864476D02*
X167343380Y-142435904D01*
X167343380Y-142150190D02*
X166343380Y-142150190D01*
X166343380Y-142150190D02*
X166486238Y-142245428D01*
X166486238Y-142245428D02*
X166581476Y-142340666D01*
X166581476Y-142340666D02*
X166629095Y-142435904D01*
X166343380Y-141245428D02*
X166343380Y-141150190D01*
X166343380Y-141150190D02*
X166391000Y-141054952D01*
X166391000Y-141054952D02*
X166438619Y-141007333D01*
X166438619Y-141007333D02*
X166533857Y-140959714D01*
X166533857Y-140959714D02*
X166724333Y-140912095D01*
X166724333Y-140912095D02*
X166962428Y-140912095D01*
X166962428Y-140912095D02*
X167152904Y-140959714D01*
X167152904Y-140959714D02*
X167248142Y-141007333D01*
X167248142Y-141007333D02*
X167295761Y-141054952D01*
X167295761Y-141054952D02*
X167343380Y-141150190D01*
X167343380Y-141150190D02*
X167343380Y-141245428D01*
X167343380Y-141245428D02*
X167295761Y-141340666D01*
X167295761Y-141340666D02*
X167248142Y-141388285D01*
X167248142Y-141388285D02*
X167152904Y-141435904D01*
X167152904Y-141435904D02*
X166962428Y-141483523D01*
X166962428Y-141483523D02*
X166724333Y-141483523D01*
X166724333Y-141483523D02*
X166533857Y-141435904D01*
X166533857Y-141435904D02*
X166438619Y-141388285D01*
X166438619Y-141388285D02*
X166391000Y-141340666D01*
X166391000Y-141340666D02*
X166343380Y-141245428D01*
%TO.C,C1*%
X169505333Y-115080142D02*
X169457714Y-115127761D01*
X169457714Y-115127761D02*
X169314857Y-115175380D01*
X169314857Y-115175380D02*
X169219619Y-115175380D01*
X169219619Y-115175380D02*
X169076762Y-115127761D01*
X169076762Y-115127761D02*
X168981524Y-115032523D01*
X168981524Y-115032523D02*
X168933905Y-114937285D01*
X168933905Y-114937285D02*
X168886286Y-114746809D01*
X168886286Y-114746809D02*
X168886286Y-114603952D01*
X168886286Y-114603952D02*
X168933905Y-114413476D01*
X168933905Y-114413476D02*
X168981524Y-114318238D01*
X168981524Y-114318238D02*
X169076762Y-114223000D01*
X169076762Y-114223000D02*
X169219619Y-114175380D01*
X169219619Y-114175380D02*
X169314857Y-114175380D01*
X169314857Y-114175380D02*
X169457714Y-114223000D01*
X169457714Y-114223000D02*
X169505333Y-114270619D01*
X170457714Y-115175380D02*
X169886286Y-115175380D01*
X170172000Y-115175380D02*
X170172000Y-114175380D01*
X170172000Y-114175380D02*
X170076762Y-114318238D01*
X170076762Y-114318238D02*
X169981524Y-114413476D01*
X169981524Y-114413476D02*
X169886286Y-114461095D01*
%TO.C,C13*%
X117279142Y-116956142D02*
X117231523Y-117003761D01*
X117231523Y-117003761D02*
X117088666Y-117051380D01*
X117088666Y-117051380D02*
X116993428Y-117051380D01*
X116993428Y-117051380D02*
X116850571Y-117003761D01*
X116850571Y-117003761D02*
X116755333Y-116908523D01*
X116755333Y-116908523D02*
X116707714Y-116813285D01*
X116707714Y-116813285D02*
X116660095Y-116622809D01*
X116660095Y-116622809D02*
X116660095Y-116479952D01*
X116660095Y-116479952D02*
X116707714Y-116289476D01*
X116707714Y-116289476D02*
X116755333Y-116194238D01*
X116755333Y-116194238D02*
X116850571Y-116099000D01*
X116850571Y-116099000D02*
X116993428Y-116051380D01*
X116993428Y-116051380D02*
X117088666Y-116051380D01*
X117088666Y-116051380D02*
X117231523Y-116099000D01*
X117231523Y-116099000D02*
X117279142Y-116146619D01*
X118231523Y-117051380D02*
X117660095Y-117051380D01*
X117945809Y-117051380D02*
X117945809Y-116051380D01*
X117945809Y-116051380D02*
X117850571Y-116194238D01*
X117850571Y-116194238D02*
X117755333Y-116289476D01*
X117755333Y-116289476D02*
X117660095Y-116337095D01*
X118564857Y-116051380D02*
X119183904Y-116051380D01*
X119183904Y-116051380D02*
X118850571Y-116432333D01*
X118850571Y-116432333D02*
X118993428Y-116432333D01*
X118993428Y-116432333D02*
X119088666Y-116479952D01*
X119088666Y-116479952D02*
X119136285Y-116527571D01*
X119136285Y-116527571D02*
X119183904Y-116622809D01*
X119183904Y-116622809D02*
X119183904Y-116860904D01*
X119183904Y-116860904D02*
X119136285Y-116956142D01*
X119136285Y-116956142D02*
X119088666Y-117003761D01*
X119088666Y-117003761D02*
X118993428Y-117051380D01*
X118993428Y-117051380D02*
X118707714Y-117051380D01*
X118707714Y-117051380D02*
X118612476Y-117003761D01*
X118612476Y-117003761D02*
X118564857Y-116956142D01*
%TO.C,J5*%
X119255380Y-145621333D02*
X119969666Y-145621333D01*
X119969666Y-145621333D02*
X120112523Y-145668952D01*
X120112523Y-145668952D02*
X120207761Y-145764190D01*
X120207761Y-145764190D02*
X120255380Y-145907047D01*
X120255380Y-145907047D02*
X120255380Y-146002285D01*
X119255380Y-144668952D02*
X119255380Y-145145142D01*
X119255380Y-145145142D02*
X119731571Y-145192761D01*
X119731571Y-145192761D02*
X119683952Y-145145142D01*
X119683952Y-145145142D02*
X119636333Y-145049904D01*
X119636333Y-145049904D02*
X119636333Y-144811809D01*
X119636333Y-144811809D02*
X119683952Y-144716571D01*
X119683952Y-144716571D02*
X119731571Y-144668952D01*
X119731571Y-144668952D02*
X119826809Y-144621333D01*
X119826809Y-144621333D02*
X120064904Y-144621333D01*
X120064904Y-144621333D02*
X120160142Y-144668952D01*
X120160142Y-144668952D02*
X120207761Y-144716571D01*
X120207761Y-144716571D02*
X120255380Y-144811809D01*
X120255380Y-144811809D02*
X120255380Y-145049904D01*
X120255380Y-145049904D02*
X120207761Y-145145142D01*
X120207761Y-145145142D02*
X120160142Y-145192761D01*
%TO.C,TP1*%
X125230095Y-146179380D02*
X125801523Y-146179380D01*
X125515809Y-147179380D02*
X125515809Y-146179380D01*
X126134857Y-147179380D02*
X126134857Y-146179380D01*
X126134857Y-146179380D02*
X126515809Y-146179380D01*
X126515809Y-146179380D02*
X126611047Y-146227000D01*
X126611047Y-146227000D02*
X126658666Y-146274619D01*
X126658666Y-146274619D02*
X126706285Y-146369857D01*
X126706285Y-146369857D02*
X126706285Y-146512714D01*
X126706285Y-146512714D02*
X126658666Y-146607952D01*
X126658666Y-146607952D02*
X126611047Y-146655571D01*
X126611047Y-146655571D02*
X126515809Y-146703190D01*
X126515809Y-146703190D02*
X126134857Y-146703190D01*
X127658666Y-147179380D02*
X127087238Y-147179380D01*
X127372952Y-147179380D02*
X127372952Y-146179380D01*
X127372952Y-146179380D02*
X127277714Y-146322238D01*
X127277714Y-146322238D02*
X127182476Y-146417476D01*
X127182476Y-146417476D02*
X127087238Y-146465095D01*
%TO.C,TP10*%
X158281905Y-116283380D02*
X158853333Y-116283380D01*
X158567619Y-117283380D02*
X158567619Y-116283380D01*
X159186667Y-117283380D02*
X159186667Y-116283380D01*
X159186667Y-116283380D02*
X159567619Y-116283380D01*
X159567619Y-116283380D02*
X159662857Y-116331000D01*
X159662857Y-116331000D02*
X159710476Y-116378619D01*
X159710476Y-116378619D02*
X159758095Y-116473857D01*
X159758095Y-116473857D02*
X159758095Y-116616714D01*
X159758095Y-116616714D02*
X159710476Y-116711952D01*
X159710476Y-116711952D02*
X159662857Y-116759571D01*
X159662857Y-116759571D02*
X159567619Y-116807190D01*
X159567619Y-116807190D02*
X159186667Y-116807190D01*
X160710476Y-117283380D02*
X160139048Y-117283380D01*
X160424762Y-117283380D02*
X160424762Y-116283380D01*
X160424762Y-116283380D02*
X160329524Y-116426238D01*
X160329524Y-116426238D02*
X160234286Y-116521476D01*
X160234286Y-116521476D02*
X160139048Y-116569095D01*
X161329524Y-116283380D02*
X161424762Y-116283380D01*
X161424762Y-116283380D02*
X161520000Y-116331000D01*
X161520000Y-116331000D02*
X161567619Y-116378619D01*
X161567619Y-116378619D02*
X161615238Y-116473857D01*
X161615238Y-116473857D02*
X161662857Y-116664333D01*
X161662857Y-116664333D02*
X161662857Y-116902428D01*
X161662857Y-116902428D02*
X161615238Y-117092904D01*
X161615238Y-117092904D02*
X161567619Y-117188142D01*
X161567619Y-117188142D02*
X161520000Y-117235761D01*
X161520000Y-117235761D02*
X161424762Y-117283380D01*
X161424762Y-117283380D02*
X161329524Y-117283380D01*
X161329524Y-117283380D02*
X161234286Y-117235761D01*
X161234286Y-117235761D02*
X161186667Y-117188142D01*
X161186667Y-117188142D02*
X161139048Y-117092904D01*
X161139048Y-117092904D02*
X161091429Y-116902428D01*
X161091429Y-116902428D02*
X161091429Y-116664333D01*
X161091429Y-116664333D02*
X161139048Y-116473857D01*
X161139048Y-116473857D02*
X161186667Y-116378619D01*
X161186667Y-116378619D02*
X161234286Y-116331000D01*
X161234286Y-116331000D02*
X161329524Y-116283380D01*
%TO.C,C2*%
X170013333Y-118128142D02*
X169965714Y-118175761D01*
X169965714Y-118175761D02*
X169822857Y-118223380D01*
X169822857Y-118223380D02*
X169727619Y-118223380D01*
X169727619Y-118223380D02*
X169584762Y-118175761D01*
X169584762Y-118175761D02*
X169489524Y-118080523D01*
X169489524Y-118080523D02*
X169441905Y-117985285D01*
X169441905Y-117985285D02*
X169394286Y-117794809D01*
X169394286Y-117794809D02*
X169394286Y-117651952D01*
X169394286Y-117651952D02*
X169441905Y-117461476D01*
X169441905Y-117461476D02*
X169489524Y-117366238D01*
X169489524Y-117366238D02*
X169584762Y-117271000D01*
X169584762Y-117271000D02*
X169727619Y-117223380D01*
X169727619Y-117223380D02*
X169822857Y-117223380D01*
X169822857Y-117223380D02*
X169965714Y-117271000D01*
X169965714Y-117271000D02*
X170013333Y-117318619D01*
X170394286Y-117318619D02*
X170441905Y-117271000D01*
X170441905Y-117271000D02*
X170537143Y-117223380D01*
X170537143Y-117223380D02*
X170775238Y-117223380D01*
X170775238Y-117223380D02*
X170870476Y-117271000D01*
X170870476Y-117271000D02*
X170918095Y-117318619D01*
X170918095Y-117318619D02*
X170965714Y-117413857D01*
X170965714Y-117413857D02*
X170965714Y-117509095D01*
X170965714Y-117509095D02*
X170918095Y-117651952D01*
X170918095Y-117651952D02*
X170346667Y-118223380D01*
X170346667Y-118223380D02*
X170965714Y-118223380D01*
%TO.C,D1*%
X172988905Y-117589380D02*
X172988905Y-116589380D01*
X172988905Y-116589380D02*
X173227000Y-116589380D01*
X173227000Y-116589380D02*
X173369857Y-116637000D01*
X173369857Y-116637000D02*
X173465095Y-116732238D01*
X173465095Y-116732238D02*
X173512714Y-116827476D01*
X173512714Y-116827476D02*
X173560333Y-117017952D01*
X173560333Y-117017952D02*
X173560333Y-117160809D01*
X173560333Y-117160809D02*
X173512714Y-117351285D01*
X173512714Y-117351285D02*
X173465095Y-117446523D01*
X173465095Y-117446523D02*
X173369857Y-117541761D01*
X173369857Y-117541761D02*
X173227000Y-117589380D01*
X173227000Y-117589380D02*
X172988905Y-117589380D01*
X174512714Y-117589380D02*
X173941286Y-117589380D01*
X174227000Y-117589380D02*
X174227000Y-116589380D01*
X174227000Y-116589380D02*
X174131762Y-116732238D01*
X174131762Y-116732238D02*
X174036524Y-116827476D01*
X174036524Y-116827476D02*
X173941286Y-116875095D01*
%TO.C,U8*%
X104015380Y-94741904D02*
X104824904Y-94741904D01*
X104824904Y-94741904D02*
X104920142Y-94694285D01*
X104920142Y-94694285D02*
X104967761Y-94646666D01*
X104967761Y-94646666D02*
X105015380Y-94551428D01*
X105015380Y-94551428D02*
X105015380Y-94360952D01*
X105015380Y-94360952D02*
X104967761Y-94265714D01*
X104967761Y-94265714D02*
X104920142Y-94218095D01*
X104920142Y-94218095D02*
X104824904Y-94170476D01*
X104824904Y-94170476D02*
X104015380Y-94170476D01*
X104443952Y-93551428D02*
X104396333Y-93646666D01*
X104396333Y-93646666D02*
X104348714Y-93694285D01*
X104348714Y-93694285D02*
X104253476Y-93741904D01*
X104253476Y-93741904D02*
X104205857Y-93741904D01*
X104205857Y-93741904D02*
X104110619Y-93694285D01*
X104110619Y-93694285D02*
X104063000Y-93646666D01*
X104063000Y-93646666D02*
X104015380Y-93551428D01*
X104015380Y-93551428D02*
X104015380Y-93360952D01*
X104015380Y-93360952D02*
X104063000Y-93265714D01*
X104063000Y-93265714D02*
X104110619Y-93218095D01*
X104110619Y-93218095D02*
X104205857Y-93170476D01*
X104205857Y-93170476D02*
X104253476Y-93170476D01*
X104253476Y-93170476D02*
X104348714Y-93218095D01*
X104348714Y-93218095D02*
X104396333Y-93265714D01*
X104396333Y-93265714D02*
X104443952Y-93360952D01*
X104443952Y-93360952D02*
X104443952Y-93551428D01*
X104443952Y-93551428D02*
X104491571Y-93646666D01*
X104491571Y-93646666D02*
X104539190Y-93694285D01*
X104539190Y-93694285D02*
X104634428Y-93741904D01*
X104634428Y-93741904D02*
X104824904Y-93741904D01*
X104824904Y-93741904D02*
X104920142Y-93694285D01*
X104920142Y-93694285D02*
X104967761Y-93646666D01*
X104967761Y-93646666D02*
X105015380Y-93551428D01*
X105015380Y-93551428D02*
X105015380Y-93360952D01*
X105015380Y-93360952D02*
X104967761Y-93265714D01*
X104967761Y-93265714D02*
X104920142Y-93218095D01*
X104920142Y-93218095D02*
X104824904Y-93170476D01*
X104824904Y-93170476D02*
X104634428Y-93170476D01*
X104634428Y-93170476D02*
X104539190Y-93218095D01*
X104539190Y-93218095D02*
X104491571Y-93265714D01*
X104491571Y-93265714D02*
X104443952Y-93360952D01*
%TO.C,R5*%
X128357333Y-81139380D02*
X128024000Y-80663190D01*
X127785905Y-81139380D02*
X127785905Y-80139380D01*
X127785905Y-80139380D02*
X128166857Y-80139380D01*
X128166857Y-80139380D02*
X128262095Y-80187000D01*
X128262095Y-80187000D02*
X128309714Y-80234619D01*
X128309714Y-80234619D02*
X128357333Y-80329857D01*
X128357333Y-80329857D02*
X128357333Y-80472714D01*
X128357333Y-80472714D02*
X128309714Y-80567952D01*
X128309714Y-80567952D02*
X128262095Y-80615571D01*
X128262095Y-80615571D02*
X128166857Y-80663190D01*
X128166857Y-80663190D02*
X127785905Y-80663190D01*
X129262095Y-80139380D02*
X128785905Y-80139380D01*
X128785905Y-80139380D02*
X128738286Y-80615571D01*
X128738286Y-80615571D02*
X128785905Y-80567952D01*
X128785905Y-80567952D02*
X128881143Y-80520333D01*
X128881143Y-80520333D02*
X129119238Y-80520333D01*
X129119238Y-80520333D02*
X129214476Y-80567952D01*
X129214476Y-80567952D02*
X129262095Y-80615571D01*
X129262095Y-80615571D02*
X129309714Y-80710809D01*
X129309714Y-80710809D02*
X129309714Y-80948904D01*
X129309714Y-80948904D02*
X129262095Y-81044142D01*
X129262095Y-81044142D02*
X129214476Y-81091761D01*
X129214476Y-81091761D02*
X129119238Y-81139380D01*
X129119238Y-81139380D02*
X128881143Y-81139380D01*
X128881143Y-81139380D02*
X128785905Y-81091761D01*
X128785905Y-81091761D02*
X128738286Y-81044142D01*
%TO.C,C12*%
X175024142Y-83954857D02*
X175071761Y-84002476D01*
X175071761Y-84002476D02*
X175119380Y-84145333D01*
X175119380Y-84145333D02*
X175119380Y-84240571D01*
X175119380Y-84240571D02*
X175071761Y-84383428D01*
X175071761Y-84383428D02*
X174976523Y-84478666D01*
X174976523Y-84478666D02*
X174881285Y-84526285D01*
X174881285Y-84526285D02*
X174690809Y-84573904D01*
X174690809Y-84573904D02*
X174547952Y-84573904D01*
X174547952Y-84573904D02*
X174357476Y-84526285D01*
X174357476Y-84526285D02*
X174262238Y-84478666D01*
X174262238Y-84478666D02*
X174167000Y-84383428D01*
X174167000Y-84383428D02*
X174119380Y-84240571D01*
X174119380Y-84240571D02*
X174119380Y-84145333D01*
X174119380Y-84145333D02*
X174167000Y-84002476D01*
X174167000Y-84002476D02*
X174214619Y-83954857D01*
X175119380Y-83002476D02*
X175119380Y-83573904D01*
X175119380Y-83288190D02*
X174119380Y-83288190D01*
X174119380Y-83288190D02*
X174262238Y-83383428D01*
X174262238Y-83383428D02*
X174357476Y-83478666D01*
X174357476Y-83478666D02*
X174405095Y-83573904D01*
X174214619Y-82621523D02*
X174167000Y-82573904D01*
X174167000Y-82573904D02*
X174119380Y-82478666D01*
X174119380Y-82478666D02*
X174119380Y-82240571D01*
X174119380Y-82240571D02*
X174167000Y-82145333D01*
X174167000Y-82145333D02*
X174214619Y-82097714D01*
X174214619Y-82097714D02*
X174309857Y-82050095D01*
X174309857Y-82050095D02*
X174405095Y-82050095D01*
X174405095Y-82050095D02*
X174547952Y-82097714D01*
X174547952Y-82097714D02*
X175119380Y-82669142D01*
X175119380Y-82669142D02*
X175119380Y-82050095D01*
%TO.C,U5*%
X129286095Y-86743380D02*
X129286095Y-87552904D01*
X129286095Y-87552904D02*
X129333714Y-87648142D01*
X129333714Y-87648142D02*
X129381333Y-87695761D01*
X129381333Y-87695761D02*
X129476571Y-87743380D01*
X129476571Y-87743380D02*
X129667047Y-87743380D01*
X129667047Y-87743380D02*
X129762285Y-87695761D01*
X129762285Y-87695761D02*
X129809904Y-87648142D01*
X129809904Y-87648142D02*
X129857523Y-87552904D01*
X129857523Y-87552904D02*
X129857523Y-86743380D01*
X130809904Y-86743380D02*
X130333714Y-86743380D01*
X130333714Y-86743380D02*
X130286095Y-87219571D01*
X130286095Y-87219571D02*
X130333714Y-87171952D01*
X130333714Y-87171952D02*
X130428952Y-87124333D01*
X130428952Y-87124333D02*
X130667047Y-87124333D01*
X130667047Y-87124333D02*
X130762285Y-87171952D01*
X130762285Y-87171952D02*
X130809904Y-87219571D01*
X130809904Y-87219571D02*
X130857523Y-87314809D01*
X130857523Y-87314809D02*
X130857523Y-87552904D01*
X130857523Y-87552904D02*
X130809904Y-87648142D01*
X130809904Y-87648142D02*
X130762285Y-87695761D01*
X130762285Y-87695761D02*
X130667047Y-87743380D01*
X130667047Y-87743380D02*
X130428952Y-87743380D01*
X130428952Y-87743380D02*
X130333714Y-87695761D01*
X130333714Y-87695761D02*
X130286095Y-87648142D01*
%TO.C,TP5*%
X106942095Y-103583380D02*
X107513523Y-103583380D01*
X107227809Y-104583380D02*
X107227809Y-103583380D01*
X107846857Y-104583380D02*
X107846857Y-103583380D01*
X107846857Y-103583380D02*
X108227809Y-103583380D01*
X108227809Y-103583380D02*
X108323047Y-103631000D01*
X108323047Y-103631000D02*
X108370666Y-103678619D01*
X108370666Y-103678619D02*
X108418285Y-103773857D01*
X108418285Y-103773857D02*
X108418285Y-103916714D01*
X108418285Y-103916714D02*
X108370666Y-104011952D01*
X108370666Y-104011952D02*
X108323047Y-104059571D01*
X108323047Y-104059571D02*
X108227809Y-104107190D01*
X108227809Y-104107190D02*
X107846857Y-104107190D01*
X109323047Y-103583380D02*
X108846857Y-103583380D01*
X108846857Y-103583380D02*
X108799238Y-104059571D01*
X108799238Y-104059571D02*
X108846857Y-104011952D01*
X108846857Y-104011952D02*
X108942095Y-103964333D01*
X108942095Y-103964333D02*
X109180190Y-103964333D01*
X109180190Y-103964333D02*
X109275428Y-104011952D01*
X109275428Y-104011952D02*
X109323047Y-104059571D01*
X109323047Y-104059571D02*
X109370666Y-104154809D01*
X109370666Y-104154809D02*
X109370666Y-104392904D01*
X109370666Y-104392904D02*
X109323047Y-104488142D01*
X109323047Y-104488142D02*
X109275428Y-104535761D01*
X109275428Y-104535761D02*
X109180190Y-104583380D01*
X109180190Y-104583380D02*
X108942095Y-104583380D01*
X108942095Y-104583380D02*
X108846857Y-104535761D01*
X108846857Y-104535761D02*
X108799238Y-104488142D01*
%TO.C,S1*%
X165354095Y-82107761D02*
X165496952Y-82155380D01*
X165496952Y-82155380D02*
X165735047Y-82155380D01*
X165735047Y-82155380D02*
X165830285Y-82107761D01*
X165830285Y-82107761D02*
X165877904Y-82060142D01*
X165877904Y-82060142D02*
X165925523Y-81964904D01*
X165925523Y-81964904D02*
X165925523Y-81869666D01*
X165925523Y-81869666D02*
X165877904Y-81774428D01*
X165877904Y-81774428D02*
X165830285Y-81726809D01*
X165830285Y-81726809D02*
X165735047Y-81679190D01*
X165735047Y-81679190D02*
X165544571Y-81631571D01*
X165544571Y-81631571D02*
X165449333Y-81583952D01*
X165449333Y-81583952D02*
X165401714Y-81536333D01*
X165401714Y-81536333D02*
X165354095Y-81441095D01*
X165354095Y-81441095D02*
X165354095Y-81345857D01*
X165354095Y-81345857D02*
X165401714Y-81250619D01*
X165401714Y-81250619D02*
X165449333Y-81203000D01*
X165449333Y-81203000D02*
X165544571Y-81155380D01*
X165544571Y-81155380D02*
X165782666Y-81155380D01*
X165782666Y-81155380D02*
X165925523Y-81203000D01*
X166877904Y-82155380D02*
X166306476Y-82155380D01*
X166592190Y-82155380D02*
X166592190Y-81155380D01*
X166592190Y-81155380D02*
X166496952Y-81298238D01*
X166496952Y-81298238D02*
X166401714Y-81393476D01*
X166401714Y-81393476D02*
X166306476Y-81441095D01*
%TO.C,R12*%
X116825380Y-135786857D02*
X116349190Y-136120190D01*
X116825380Y-136358285D02*
X115825380Y-136358285D01*
X115825380Y-136358285D02*
X115825380Y-135977333D01*
X115825380Y-135977333D02*
X115873000Y-135882095D01*
X115873000Y-135882095D02*
X115920619Y-135834476D01*
X115920619Y-135834476D02*
X116015857Y-135786857D01*
X116015857Y-135786857D02*
X116158714Y-135786857D01*
X116158714Y-135786857D02*
X116253952Y-135834476D01*
X116253952Y-135834476D02*
X116301571Y-135882095D01*
X116301571Y-135882095D02*
X116349190Y-135977333D01*
X116349190Y-135977333D02*
X116349190Y-136358285D01*
X116825380Y-134834476D02*
X116825380Y-135405904D01*
X116825380Y-135120190D02*
X115825380Y-135120190D01*
X115825380Y-135120190D02*
X115968238Y-135215428D01*
X115968238Y-135215428D02*
X116063476Y-135310666D01*
X116063476Y-135310666D02*
X116111095Y-135405904D01*
X115920619Y-134453523D02*
X115873000Y-134405904D01*
X115873000Y-134405904D02*
X115825380Y-134310666D01*
X115825380Y-134310666D02*
X115825380Y-134072571D01*
X115825380Y-134072571D02*
X115873000Y-133977333D01*
X115873000Y-133977333D02*
X115920619Y-133929714D01*
X115920619Y-133929714D02*
X116015857Y-133882095D01*
X116015857Y-133882095D02*
X116111095Y-133882095D01*
X116111095Y-133882095D02*
X116253952Y-133929714D01*
X116253952Y-133929714D02*
X116825380Y-134501142D01*
X116825380Y-134501142D02*
X116825380Y-133882095D01*
%TO.C,J1*%
X178679666Y-127334380D02*
X178679666Y-128048666D01*
X178679666Y-128048666D02*
X178632047Y-128191523D01*
X178632047Y-128191523D02*
X178536809Y-128286761D01*
X178536809Y-128286761D02*
X178393952Y-128334380D01*
X178393952Y-128334380D02*
X178298714Y-128334380D01*
X179679666Y-128334380D02*
X179108238Y-128334380D01*
X179393952Y-128334380D02*
X179393952Y-127334380D01*
X179393952Y-127334380D02*
X179298714Y-127477238D01*
X179298714Y-127477238D02*
X179203476Y-127572476D01*
X179203476Y-127572476D02*
X179108238Y-127620095D01*
%TO.C,TH1*%
X114175380Y-146573713D02*
X114175380Y-146002285D01*
X115175380Y-146287999D02*
X114175380Y-146287999D01*
X115175380Y-145668951D02*
X114175380Y-145668951D01*
X114651571Y-145668951D02*
X114651571Y-145097523D01*
X115175380Y-145097523D02*
X114175380Y-145097523D01*
X115175380Y-144097523D02*
X115175380Y-144668951D01*
X115175380Y-144383237D02*
X114175380Y-144383237D01*
X114175380Y-144383237D02*
X114318238Y-144478475D01*
X114318238Y-144478475D02*
X114413476Y-144573713D01*
X114413476Y-144573713D02*
X114461095Y-144668951D01*
%TO.C,C5*%
X161308142Y-107862666D02*
X161355761Y-107910285D01*
X161355761Y-107910285D02*
X161403380Y-108053142D01*
X161403380Y-108053142D02*
X161403380Y-108148380D01*
X161403380Y-108148380D02*
X161355761Y-108291237D01*
X161355761Y-108291237D02*
X161260523Y-108386475D01*
X161260523Y-108386475D02*
X161165285Y-108434094D01*
X161165285Y-108434094D02*
X160974809Y-108481713D01*
X160974809Y-108481713D02*
X160831952Y-108481713D01*
X160831952Y-108481713D02*
X160641476Y-108434094D01*
X160641476Y-108434094D02*
X160546238Y-108386475D01*
X160546238Y-108386475D02*
X160451000Y-108291237D01*
X160451000Y-108291237D02*
X160403380Y-108148380D01*
X160403380Y-108148380D02*
X160403380Y-108053142D01*
X160403380Y-108053142D02*
X160451000Y-107910285D01*
X160451000Y-107910285D02*
X160498619Y-107862666D01*
X160403380Y-106957904D02*
X160403380Y-107434094D01*
X160403380Y-107434094D02*
X160879571Y-107481713D01*
X160879571Y-107481713D02*
X160831952Y-107434094D01*
X160831952Y-107434094D02*
X160784333Y-107338856D01*
X160784333Y-107338856D02*
X160784333Y-107100761D01*
X160784333Y-107100761D02*
X160831952Y-107005523D01*
X160831952Y-107005523D02*
X160879571Y-106957904D01*
X160879571Y-106957904D02*
X160974809Y-106910285D01*
X160974809Y-106910285D02*
X161212904Y-106910285D01*
X161212904Y-106910285D02*
X161308142Y-106957904D01*
X161308142Y-106957904D02*
X161355761Y-107005523D01*
X161355761Y-107005523D02*
X161403380Y-107100761D01*
X161403380Y-107100761D02*
X161403380Y-107338856D01*
X161403380Y-107338856D02*
X161355761Y-107434094D01*
X161355761Y-107434094D02*
X161308142Y-107481713D01*
%TO.C,TP9*%
X158758095Y-112219380D02*
X159329523Y-112219380D01*
X159043809Y-113219380D02*
X159043809Y-112219380D01*
X159662857Y-113219380D02*
X159662857Y-112219380D01*
X159662857Y-112219380D02*
X160043809Y-112219380D01*
X160043809Y-112219380D02*
X160139047Y-112267000D01*
X160139047Y-112267000D02*
X160186666Y-112314619D01*
X160186666Y-112314619D02*
X160234285Y-112409857D01*
X160234285Y-112409857D02*
X160234285Y-112552714D01*
X160234285Y-112552714D02*
X160186666Y-112647952D01*
X160186666Y-112647952D02*
X160139047Y-112695571D01*
X160139047Y-112695571D02*
X160043809Y-112743190D01*
X160043809Y-112743190D02*
X159662857Y-112743190D01*
X160710476Y-113219380D02*
X160900952Y-113219380D01*
X160900952Y-113219380D02*
X160996190Y-113171761D01*
X160996190Y-113171761D02*
X161043809Y-113124142D01*
X161043809Y-113124142D02*
X161139047Y-112981285D01*
X161139047Y-112981285D02*
X161186666Y-112790809D01*
X161186666Y-112790809D02*
X161186666Y-112409857D01*
X161186666Y-112409857D02*
X161139047Y-112314619D01*
X161139047Y-112314619D02*
X161091428Y-112267000D01*
X161091428Y-112267000D02*
X160996190Y-112219380D01*
X160996190Y-112219380D02*
X160805714Y-112219380D01*
X160805714Y-112219380D02*
X160710476Y-112267000D01*
X160710476Y-112267000D02*
X160662857Y-112314619D01*
X160662857Y-112314619D02*
X160615238Y-112409857D01*
X160615238Y-112409857D02*
X160615238Y-112647952D01*
X160615238Y-112647952D02*
X160662857Y-112743190D01*
X160662857Y-112743190D02*
X160710476Y-112790809D01*
X160710476Y-112790809D02*
X160805714Y-112838428D01*
X160805714Y-112838428D02*
X160996190Y-112838428D01*
X160996190Y-112838428D02*
X161091428Y-112790809D01*
X161091428Y-112790809D02*
X161139047Y-112743190D01*
X161139047Y-112743190D02*
X161186666Y-112647952D01*
%TO.C,U6*%
X120774044Y-86743380D02*
X120774044Y-87552904D01*
X120774044Y-87552904D02*
X120821663Y-87648142D01*
X120821663Y-87648142D02*
X120869282Y-87695761D01*
X120869282Y-87695761D02*
X120964520Y-87743380D01*
X120964520Y-87743380D02*
X121154996Y-87743380D01*
X121154996Y-87743380D02*
X121250234Y-87695761D01*
X121250234Y-87695761D02*
X121297853Y-87648142D01*
X121297853Y-87648142D02*
X121345472Y-87552904D01*
X121345472Y-87552904D02*
X121345472Y-86743380D01*
X122250234Y-86743380D02*
X122059758Y-86743380D01*
X122059758Y-86743380D02*
X121964520Y-86791000D01*
X121964520Y-86791000D02*
X121916901Y-86838619D01*
X121916901Y-86838619D02*
X121821663Y-86981476D01*
X121821663Y-86981476D02*
X121774044Y-87171952D01*
X121774044Y-87171952D02*
X121774044Y-87552904D01*
X121774044Y-87552904D02*
X121821663Y-87648142D01*
X121821663Y-87648142D02*
X121869282Y-87695761D01*
X121869282Y-87695761D02*
X121964520Y-87743380D01*
X121964520Y-87743380D02*
X122154996Y-87743380D01*
X122154996Y-87743380D02*
X122250234Y-87695761D01*
X122250234Y-87695761D02*
X122297853Y-87648142D01*
X122297853Y-87648142D02*
X122345472Y-87552904D01*
X122345472Y-87552904D02*
X122345472Y-87314809D01*
X122345472Y-87314809D02*
X122297853Y-87219571D01*
X122297853Y-87219571D02*
X122250234Y-87171952D01*
X122250234Y-87171952D02*
X122154996Y-87124333D01*
X122154996Y-87124333D02*
X121964520Y-87124333D01*
X121964520Y-87124333D02*
X121869282Y-87171952D01*
X121869282Y-87171952D02*
X121821663Y-87219571D01*
X121821663Y-87219571D02*
X121774044Y-87314809D01*
%TO.C,J8*%
X105838666Y-141905380D02*
X105838666Y-142619666D01*
X105838666Y-142619666D02*
X105791047Y-142762523D01*
X105791047Y-142762523D02*
X105695809Y-142857761D01*
X105695809Y-142857761D02*
X105552952Y-142905380D01*
X105552952Y-142905380D02*
X105457714Y-142905380D01*
X106457714Y-142333952D02*
X106362476Y-142286333D01*
X106362476Y-142286333D02*
X106314857Y-142238714D01*
X106314857Y-142238714D02*
X106267238Y-142143476D01*
X106267238Y-142143476D02*
X106267238Y-142095857D01*
X106267238Y-142095857D02*
X106314857Y-142000619D01*
X106314857Y-142000619D02*
X106362476Y-141953000D01*
X106362476Y-141953000D02*
X106457714Y-141905380D01*
X106457714Y-141905380D02*
X106648190Y-141905380D01*
X106648190Y-141905380D02*
X106743428Y-141953000D01*
X106743428Y-141953000D02*
X106791047Y-142000619D01*
X106791047Y-142000619D02*
X106838666Y-142095857D01*
X106838666Y-142095857D02*
X106838666Y-142143476D01*
X106838666Y-142143476D02*
X106791047Y-142238714D01*
X106791047Y-142238714D02*
X106743428Y-142286333D01*
X106743428Y-142286333D02*
X106648190Y-142333952D01*
X106648190Y-142333952D02*
X106457714Y-142333952D01*
X106457714Y-142333952D02*
X106362476Y-142381571D01*
X106362476Y-142381571D02*
X106314857Y-142429190D01*
X106314857Y-142429190D02*
X106267238Y-142524428D01*
X106267238Y-142524428D02*
X106267238Y-142714904D01*
X106267238Y-142714904D02*
X106314857Y-142810142D01*
X106314857Y-142810142D02*
X106362476Y-142857761D01*
X106362476Y-142857761D02*
X106457714Y-142905380D01*
X106457714Y-142905380D02*
X106648190Y-142905380D01*
X106648190Y-142905380D02*
X106743428Y-142857761D01*
X106743428Y-142857761D02*
X106791047Y-142810142D01*
X106791047Y-142810142D02*
X106838666Y-142714904D01*
X106838666Y-142714904D02*
X106838666Y-142524428D01*
X106838666Y-142524428D02*
X106791047Y-142429190D01*
X106791047Y-142429190D02*
X106743428Y-142381571D01*
X106743428Y-142381571D02*
X106648190Y-142333952D01*
%TO.C,D4*%
X157249905Y-149719380D02*
X157249905Y-148719380D01*
X157249905Y-148719380D02*
X157488000Y-148719380D01*
X157488000Y-148719380D02*
X157630857Y-148767000D01*
X157630857Y-148767000D02*
X157726095Y-148862238D01*
X157726095Y-148862238D02*
X157773714Y-148957476D01*
X157773714Y-148957476D02*
X157821333Y-149147952D01*
X157821333Y-149147952D02*
X157821333Y-149290809D01*
X157821333Y-149290809D02*
X157773714Y-149481285D01*
X157773714Y-149481285D02*
X157726095Y-149576523D01*
X157726095Y-149576523D02*
X157630857Y-149671761D01*
X157630857Y-149671761D02*
X157488000Y-149719380D01*
X157488000Y-149719380D02*
X157249905Y-149719380D01*
X158678476Y-149052714D02*
X158678476Y-149719380D01*
X158440381Y-148671761D02*
X158202286Y-149386047D01*
X158202286Y-149386047D02*
X158821333Y-149386047D01*
%TO.C,R8*%
X144639380Y-116498666D02*
X144163190Y-116831999D01*
X144639380Y-117070094D02*
X143639380Y-117070094D01*
X143639380Y-117070094D02*
X143639380Y-116689142D01*
X143639380Y-116689142D02*
X143687000Y-116593904D01*
X143687000Y-116593904D02*
X143734619Y-116546285D01*
X143734619Y-116546285D02*
X143829857Y-116498666D01*
X143829857Y-116498666D02*
X143972714Y-116498666D01*
X143972714Y-116498666D02*
X144067952Y-116546285D01*
X144067952Y-116546285D02*
X144115571Y-116593904D01*
X144115571Y-116593904D02*
X144163190Y-116689142D01*
X144163190Y-116689142D02*
X144163190Y-117070094D01*
X144067952Y-115927237D02*
X144020333Y-116022475D01*
X144020333Y-116022475D02*
X143972714Y-116070094D01*
X143972714Y-116070094D02*
X143877476Y-116117713D01*
X143877476Y-116117713D02*
X143829857Y-116117713D01*
X143829857Y-116117713D02*
X143734619Y-116070094D01*
X143734619Y-116070094D02*
X143687000Y-116022475D01*
X143687000Y-116022475D02*
X143639380Y-115927237D01*
X143639380Y-115927237D02*
X143639380Y-115736761D01*
X143639380Y-115736761D02*
X143687000Y-115641523D01*
X143687000Y-115641523D02*
X143734619Y-115593904D01*
X143734619Y-115593904D02*
X143829857Y-115546285D01*
X143829857Y-115546285D02*
X143877476Y-115546285D01*
X143877476Y-115546285D02*
X143972714Y-115593904D01*
X143972714Y-115593904D02*
X144020333Y-115641523D01*
X144020333Y-115641523D02*
X144067952Y-115736761D01*
X144067952Y-115736761D02*
X144067952Y-115927237D01*
X144067952Y-115927237D02*
X144115571Y-116022475D01*
X144115571Y-116022475D02*
X144163190Y-116070094D01*
X144163190Y-116070094D02*
X144258428Y-116117713D01*
X144258428Y-116117713D02*
X144448904Y-116117713D01*
X144448904Y-116117713D02*
X144544142Y-116070094D01*
X144544142Y-116070094D02*
X144591761Y-116022475D01*
X144591761Y-116022475D02*
X144639380Y-115927237D01*
X144639380Y-115927237D02*
X144639380Y-115736761D01*
X144639380Y-115736761D02*
X144591761Y-115641523D01*
X144591761Y-115641523D02*
X144544142Y-115593904D01*
X144544142Y-115593904D02*
X144448904Y-115546285D01*
X144448904Y-115546285D02*
X144258428Y-115546285D01*
X144258428Y-115546285D02*
X144163190Y-115593904D01*
X144163190Y-115593904D02*
X144115571Y-115641523D01*
X144115571Y-115641523D02*
X144067952Y-115736761D01*
%TO.C,USB1*%
X163889908Y-148719380D02*
X163889908Y-149528904D01*
X163889908Y-149528904D02*
X163937527Y-149624142D01*
X163937527Y-149624142D02*
X163985146Y-149671761D01*
X163985146Y-149671761D02*
X164080384Y-149719380D01*
X164080384Y-149719380D02*
X164270860Y-149719380D01*
X164270860Y-149719380D02*
X164366098Y-149671761D01*
X164366098Y-149671761D02*
X164413717Y-149624142D01*
X164413717Y-149624142D02*
X164461336Y-149528904D01*
X164461336Y-149528904D02*
X164461336Y-148719380D01*
X164889908Y-149671761D02*
X165032765Y-149719380D01*
X165032765Y-149719380D02*
X165270860Y-149719380D01*
X165270860Y-149719380D02*
X165366098Y-149671761D01*
X165366098Y-149671761D02*
X165413717Y-149624142D01*
X165413717Y-149624142D02*
X165461336Y-149528904D01*
X165461336Y-149528904D02*
X165461336Y-149433666D01*
X165461336Y-149433666D02*
X165413717Y-149338428D01*
X165413717Y-149338428D02*
X165366098Y-149290809D01*
X165366098Y-149290809D02*
X165270860Y-149243190D01*
X165270860Y-149243190D02*
X165080384Y-149195571D01*
X165080384Y-149195571D02*
X164985146Y-149147952D01*
X164985146Y-149147952D02*
X164937527Y-149100333D01*
X164937527Y-149100333D02*
X164889908Y-149005095D01*
X164889908Y-149005095D02*
X164889908Y-148909857D01*
X164889908Y-148909857D02*
X164937527Y-148814619D01*
X164937527Y-148814619D02*
X164985146Y-148767000D01*
X164985146Y-148767000D02*
X165080384Y-148719380D01*
X165080384Y-148719380D02*
X165318479Y-148719380D01*
X165318479Y-148719380D02*
X165461336Y-148767000D01*
X166223241Y-149195571D02*
X166366098Y-149243190D01*
X166366098Y-149243190D02*
X166413717Y-149290809D01*
X166413717Y-149290809D02*
X166461336Y-149386047D01*
X166461336Y-149386047D02*
X166461336Y-149528904D01*
X166461336Y-149528904D02*
X166413717Y-149624142D01*
X166413717Y-149624142D02*
X166366098Y-149671761D01*
X166366098Y-149671761D02*
X166270860Y-149719380D01*
X166270860Y-149719380D02*
X165889908Y-149719380D01*
X165889908Y-149719380D02*
X165889908Y-148719380D01*
X165889908Y-148719380D02*
X166223241Y-148719380D01*
X166223241Y-148719380D02*
X166318479Y-148767000D01*
X166318479Y-148767000D02*
X166366098Y-148814619D01*
X166366098Y-148814619D02*
X166413717Y-148909857D01*
X166413717Y-148909857D02*
X166413717Y-149005095D01*
X166413717Y-149005095D02*
X166366098Y-149100333D01*
X166366098Y-149100333D02*
X166318479Y-149147952D01*
X166318479Y-149147952D02*
X166223241Y-149195571D01*
X166223241Y-149195571D02*
X165889908Y-149195571D01*
X167413717Y-149719380D02*
X166842289Y-149719380D01*
X167128003Y-149719380D02*
X167128003Y-148719380D01*
X167128003Y-148719380D02*
X167032765Y-148862238D01*
X167032765Y-148862238D02*
X166937527Y-148957476D01*
X166937527Y-148957476D02*
X166842289Y-149005095D01*
%TO.C,C9*%
X130984142Y-151550666D02*
X131031761Y-151598285D01*
X131031761Y-151598285D02*
X131079380Y-151741142D01*
X131079380Y-151741142D02*
X131079380Y-151836380D01*
X131079380Y-151836380D02*
X131031761Y-151979237D01*
X131031761Y-151979237D02*
X130936523Y-152074475D01*
X130936523Y-152074475D02*
X130841285Y-152122094D01*
X130841285Y-152122094D02*
X130650809Y-152169713D01*
X130650809Y-152169713D02*
X130507952Y-152169713D01*
X130507952Y-152169713D02*
X130317476Y-152122094D01*
X130317476Y-152122094D02*
X130222238Y-152074475D01*
X130222238Y-152074475D02*
X130127000Y-151979237D01*
X130127000Y-151979237D02*
X130079380Y-151836380D01*
X130079380Y-151836380D02*
X130079380Y-151741142D01*
X130079380Y-151741142D02*
X130127000Y-151598285D01*
X130127000Y-151598285D02*
X130174619Y-151550666D01*
X131079380Y-151074475D02*
X131079380Y-150883999D01*
X131079380Y-150883999D02*
X131031761Y-150788761D01*
X131031761Y-150788761D02*
X130984142Y-150741142D01*
X130984142Y-150741142D02*
X130841285Y-150645904D01*
X130841285Y-150645904D02*
X130650809Y-150598285D01*
X130650809Y-150598285D02*
X130269857Y-150598285D01*
X130269857Y-150598285D02*
X130174619Y-150645904D01*
X130174619Y-150645904D02*
X130127000Y-150693523D01*
X130127000Y-150693523D02*
X130079380Y-150788761D01*
X130079380Y-150788761D02*
X130079380Y-150979237D01*
X130079380Y-150979237D02*
X130127000Y-151074475D01*
X130127000Y-151074475D02*
X130174619Y-151122094D01*
X130174619Y-151122094D02*
X130269857Y-151169713D01*
X130269857Y-151169713D02*
X130507952Y-151169713D01*
X130507952Y-151169713D02*
X130603190Y-151122094D01*
X130603190Y-151122094D02*
X130650809Y-151074475D01*
X130650809Y-151074475D02*
X130698428Y-150979237D01*
X130698428Y-150979237D02*
X130698428Y-150788761D01*
X130698428Y-150788761D02*
X130650809Y-150693523D01*
X130650809Y-150693523D02*
X130603190Y-150645904D01*
X130603190Y-150645904D02*
X130507952Y-150598285D01*
%TO.C,R2*%
X171437380Y-124610666D02*
X170961190Y-124943999D01*
X171437380Y-125182094D02*
X170437380Y-125182094D01*
X170437380Y-125182094D02*
X170437380Y-124801142D01*
X170437380Y-124801142D02*
X170485000Y-124705904D01*
X170485000Y-124705904D02*
X170532619Y-124658285D01*
X170532619Y-124658285D02*
X170627857Y-124610666D01*
X170627857Y-124610666D02*
X170770714Y-124610666D01*
X170770714Y-124610666D02*
X170865952Y-124658285D01*
X170865952Y-124658285D02*
X170913571Y-124705904D01*
X170913571Y-124705904D02*
X170961190Y-124801142D01*
X170961190Y-124801142D02*
X170961190Y-125182094D01*
X170532619Y-124229713D02*
X170485000Y-124182094D01*
X170485000Y-124182094D02*
X170437380Y-124086856D01*
X170437380Y-124086856D02*
X170437380Y-123848761D01*
X170437380Y-123848761D02*
X170485000Y-123753523D01*
X170485000Y-123753523D02*
X170532619Y-123705904D01*
X170532619Y-123705904D02*
X170627857Y-123658285D01*
X170627857Y-123658285D02*
X170723095Y-123658285D01*
X170723095Y-123658285D02*
X170865952Y-123705904D01*
X170865952Y-123705904D02*
X171437380Y-124277332D01*
X171437380Y-124277332D02*
X171437380Y-123658285D01*
%TO.C,C7*%
X182205333Y-138448142D02*
X182157714Y-138495761D01*
X182157714Y-138495761D02*
X182014857Y-138543380D01*
X182014857Y-138543380D02*
X181919619Y-138543380D01*
X181919619Y-138543380D02*
X181776762Y-138495761D01*
X181776762Y-138495761D02*
X181681524Y-138400523D01*
X181681524Y-138400523D02*
X181633905Y-138305285D01*
X181633905Y-138305285D02*
X181586286Y-138114809D01*
X181586286Y-138114809D02*
X181586286Y-137971952D01*
X181586286Y-137971952D02*
X181633905Y-137781476D01*
X181633905Y-137781476D02*
X181681524Y-137686238D01*
X181681524Y-137686238D02*
X181776762Y-137591000D01*
X181776762Y-137591000D02*
X181919619Y-137543380D01*
X181919619Y-137543380D02*
X182014857Y-137543380D01*
X182014857Y-137543380D02*
X182157714Y-137591000D01*
X182157714Y-137591000D02*
X182205333Y-137638619D01*
X182538667Y-137543380D02*
X183205333Y-137543380D01*
X183205333Y-137543380D02*
X182776762Y-138543380D01*
%TO.C,J6*%
X164975380Y-95329333D02*
X165689666Y-95329333D01*
X165689666Y-95329333D02*
X165832523Y-95376952D01*
X165832523Y-95376952D02*
X165927761Y-95472190D01*
X165927761Y-95472190D02*
X165975380Y-95615047D01*
X165975380Y-95615047D02*
X165975380Y-95710285D01*
X164975380Y-94424571D02*
X164975380Y-94615047D01*
X164975380Y-94615047D02*
X165023000Y-94710285D01*
X165023000Y-94710285D02*
X165070619Y-94757904D01*
X165070619Y-94757904D02*
X165213476Y-94853142D01*
X165213476Y-94853142D02*
X165403952Y-94900761D01*
X165403952Y-94900761D02*
X165784904Y-94900761D01*
X165784904Y-94900761D02*
X165880142Y-94853142D01*
X165880142Y-94853142D02*
X165927761Y-94805523D01*
X165927761Y-94805523D02*
X165975380Y-94710285D01*
X165975380Y-94710285D02*
X165975380Y-94519809D01*
X165975380Y-94519809D02*
X165927761Y-94424571D01*
X165927761Y-94424571D02*
X165880142Y-94376952D01*
X165880142Y-94376952D02*
X165784904Y-94329333D01*
X165784904Y-94329333D02*
X165546809Y-94329333D01*
X165546809Y-94329333D02*
X165451571Y-94376952D01*
X165451571Y-94376952D02*
X165403952Y-94424571D01*
X165403952Y-94424571D02*
X165356333Y-94519809D01*
X165356333Y-94519809D02*
X165356333Y-94710285D01*
X165356333Y-94710285D02*
X165403952Y-94805523D01*
X165403952Y-94805523D02*
X165451571Y-94853142D01*
X165451571Y-94853142D02*
X165546809Y-94900761D01*
%TO.C,D3*%
X157757905Y-145655380D02*
X157757905Y-144655380D01*
X157757905Y-144655380D02*
X157996000Y-144655380D01*
X157996000Y-144655380D02*
X158138857Y-144703000D01*
X158138857Y-144703000D02*
X158234095Y-144798238D01*
X158234095Y-144798238D02*
X158281714Y-144893476D01*
X158281714Y-144893476D02*
X158329333Y-145083952D01*
X158329333Y-145083952D02*
X158329333Y-145226809D01*
X158329333Y-145226809D02*
X158281714Y-145417285D01*
X158281714Y-145417285D02*
X158234095Y-145512523D01*
X158234095Y-145512523D02*
X158138857Y-145607761D01*
X158138857Y-145607761D02*
X157996000Y-145655380D01*
X157996000Y-145655380D02*
X157757905Y-145655380D01*
X158662667Y-144655380D02*
X159281714Y-144655380D01*
X159281714Y-144655380D02*
X158948381Y-145036333D01*
X158948381Y-145036333D02*
X159091238Y-145036333D01*
X159091238Y-145036333D02*
X159186476Y-145083952D01*
X159186476Y-145083952D02*
X159234095Y-145131571D01*
X159234095Y-145131571D02*
X159281714Y-145226809D01*
X159281714Y-145226809D02*
X159281714Y-145464904D01*
X159281714Y-145464904D02*
X159234095Y-145560142D01*
X159234095Y-145560142D02*
X159186476Y-145607761D01*
X159186476Y-145607761D02*
X159091238Y-145655380D01*
X159091238Y-145655380D02*
X158805524Y-145655380D01*
X158805524Y-145655380D02*
X158710286Y-145607761D01*
X158710286Y-145607761D02*
X158662667Y-145560142D01*
%TO.C,J2*%
X126875380Y-132413333D02*
X127589666Y-132413333D01*
X127589666Y-132413333D02*
X127732523Y-132460952D01*
X127732523Y-132460952D02*
X127827761Y-132556190D01*
X127827761Y-132556190D02*
X127875380Y-132699047D01*
X127875380Y-132699047D02*
X127875380Y-132794285D01*
X126970619Y-131984761D02*
X126923000Y-131937142D01*
X126923000Y-131937142D02*
X126875380Y-131841904D01*
X126875380Y-131841904D02*
X126875380Y-131603809D01*
X126875380Y-131603809D02*
X126923000Y-131508571D01*
X126923000Y-131508571D02*
X126970619Y-131460952D01*
X126970619Y-131460952D02*
X127065857Y-131413333D01*
X127065857Y-131413333D02*
X127161095Y-131413333D01*
X127161095Y-131413333D02*
X127303952Y-131460952D01*
X127303952Y-131460952D02*
X127875380Y-132032380D01*
X127875380Y-132032380D02*
X127875380Y-131413333D01*
%TO.C,R1*%
X171437380Y-129690666D02*
X170961190Y-130023999D01*
X171437380Y-130262094D02*
X170437380Y-130262094D01*
X170437380Y-130262094D02*
X170437380Y-129881142D01*
X170437380Y-129881142D02*
X170485000Y-129785904D01*
X170485000Y-129785904D02*
X170532619Y-129738285D01*
X170532619Y-129738285D02*
X170627857Y-129690666D01*
X170627857Y-129690666D02*
X170770714Y-129690666D01*
X170770714Y-129690666D02*
X170865952Y-129738285D01*
X170865952Y-129738285D02*
X170913571Y-129785904D01*
X170913571Y-129785904D02*
X170961190Y-129881142D01*
X170961190Y-129881142D02*
X170961190Y-130262094D01*
X171437380Y-128738285D02*
X171437380Y-129309713D01*
X171437380Y-129023999D02*
X170437380Y-129023999D01*
X170437380Y-129023999D02*
X170580238Y-129119237D01*
X170580238Y-129119237D02*
X170675476Y-129214475D01*
X170675476Y-129214475D02*
X170723095Y-129309713D01*
%TO.C,D2*%
X172988905Y-114033380D02*
X172988905Y-113033380D01*
X172988905Y-113033380D02*
X173227000Y-113033380D01*
X173227000Y-113033380D02*
X173369857Y-113081000D01*
X173369857Y-113081000D02*
X173465095Y-113176238D01*
X173465095Y-113176238D02*
X173512714Y-113271476D01*
X173512714Y-113271476D02*
X173560333Y-113461952D01*
X173560333Y-113461952D02*
X173560333Y-113604809D01*
X173560333Y-113604809D02*
X173512714Y-113795285D01*
X173512714Y-113795285D02*
X173465095Y-113890523D01*
X173465095Y-113890523D02*
X173369857Y-113985761D01*
X173369857Y-113985761D02*
X173227000Y-114033380D01*
X173227000Y-114033380D02*
X172988905Y-114033380D01*
X173941286Y-113128619D02*
X173988905Y-113081000D01*
X173988905Y-113081000D02*
X174084143Y-113033380D01*
X174084143Y-113033380D02*
X174322238Y-113033380D01*
X174322238Y-113033380D02*
X174417476Y-113081000D01*
X174417476Y-113081000D02*
X174465095Y-113128619D01*
X174465095Y-113128619D02*
X174512714Y-113223857D01*
X174512714Y-113223857D02*
X174512714Y-113319095D01*
X174512714Y-113319095D02*
X174465095Y-113461952D01*
X174465095Y-113461952D02*
X173893667Y-114033380D01*
X173893667Y-114033380D02*
X174512714Y-114033380D01*
%TO.C,C11*%
X167248142Y-146880857D02*
X167295761Y-146928476D01*
X167295761Y-146928476D02*
X167343380Y-147071333D01*
X167343380Y-147071333D02*
X167343380Y-147166571D01*
X167343380Y-147166571D02*
X167295761Y-147309428D01*
X167295761Y-147309428D02*
X167200523Y-147404666D01*
X167200523Y-147404666D02*
X167105285Y-147452285D01*
X167105285Y-147452285D02*
X166914809Y-147499904D01*
X166914809Y-147499904D02*
X166771952Y-147499904D01*
X166771952Y-147499904D02*
X166581476Y-147452285D01*
X166581476Y-147452285D02*
X166486238Y-147404666D01*
X166486238Y-147404666D02*
X166391000Y-147309428D01*
X166391000Y-147309428D02*
X166343380Y-147166571D01*
X166343380Y-147166571D02*
X166343380Y-147071333D01*
X166343380Y-147071333D02*
X166391000Y-146928476D01*
X166391000Y-146928476D02*
X166438619Y-146880857D01*
X167343380Y-145928476D02*
X167343380Y-146499904D01*
X167343380Y-146214190D02*
X166343380Y-146214190D01*
X166343380Y-146214190D02*
X166486238Y-146309428D01*
X166486238Y-146309428D02*
X166581476Y-146404666D01*
X166581476Y-146404666D02*
X166629095Y-146499904D01*
X167343380Y-144976095D02*
X167343380Y-145547523D01*
X167343380Y-145261809D02*
X166343380Y-145261809D01*
X166343380Y-145261809D02*
X166486238Y-145357047D01*
X166486238Y-145357047D02*
X166581476Y-145452285D01*
X166581476Y-145452285D02*
X166629095Y-145547523D01*
%TO.C,TP6*%
X106942095Y-108663380D02*
X107513523Y-108663380D01*
X107227809Y-109663380D02*
X107227809Y-108663380D01*
X107846857Y-109663380D02*
X107846857Y-108663380D01*
X107846857Y-108663380D02*
X108227809Y-108663380D01*
X108227809Y-108663380D02*
X108323047Y-108711000D01*
X108323047Y-108711000D02*
X108370666Y-108758619D01*
X108370666Y-108758619D02*
X108418285Y-108853857D01*
X108418285Y-108853857D02*
X108418285Y-108996714D01*
X108418285Y-108996714D02*
X108370666Y-109091952D01*
X108370666Y-109091952D02*
X108323047Y-109139571D01*
X108323047Y-109139571D02*
X108227809Y-109187190D01*
X108227809Y-109187190D02*
X107846857Y-109187190D01*
X109275428Y-108663380D02*
X109084952Y-108663380D01*
X109084952Y-108663380D02*
X108989714Y-108711000D01*
X108989714Y-108711000D02*
X108942095Y-108758619D01*
X108942095Y-108758619D02*
X108846857Y-108901476D01*
X108846857Y-108901476D02*
X108799238Y-109091952D01*
X108799238Y-109091952D02*
X108799238Y-109472904D01*
X108799238Y-109472904D02*
X108846857Y-109568142D01*
X108846857Y-109568142D02*
X108894476Y-109615761D01*
X108894476Y-109615761D02*
X108989714Y-109663380D01*
X108989714Y-109663380D02*
X109180190Y-109663380D01*
X109180190Y-109663380D02*
X109275428Y-109615761D01*
X109275428Y-109615761D02*
X109323047Y-109568142D01*
X109323047Y-109568142D02*
X109370666Y-109472904D01*
X109370666Y-109472904D02*
X109370666Y-109234809D01*
X109370666Y-109234809D02*
X109323047Y-109139571D01*
X109323047Y-109139571D02*
X109275428Y-109091952D01*
X109275428Y-109091952D02*
X109180190Y-109044333D01*
X109180190Y-109044333D02*
X108989714Y-109044333D01*
X108989714Y-109044333D02*
X108894476Y-109091952D01*
X108894476Y-109091952D02*
X108846857Y-109139571D01*
X108846857Y-109139571D02*
X108799238Y-109234809D01*
%TO.C,U3*%
X135711796Y-114553904D02*
X136521320Y-114553904D01*
X136521320Y-114553904D02*
X136616558Y-114506285D01*
X136616558Y-114506285D02*
X136664177Y-114458666D01*
X136664177Y-114458666D02*
X136711796Y-114363428D01*
X136711796Y-114363428D02*
X136711796Y-114172952D01*
X136711796Y-114172952D02*
X136664177Y-114077714D01*
X136664177Y-114077714D02*
X136616558Y-114030095D01*
X136616558Y-114030095D02*
X136521320Y-113982476D01*
X136521320Y-113982476D02*
X135711796Y-113982476D01*
X135711796Y-113601523D02*
X135711796Y-112982476D01*
X135711796Y-112982476D02*
X136092749Y-113315809D01*
X136092749Y-113315809D02*
X136092749Y-113172952D01*
X136092749Y-113172952D02*
X136140368Y-113077714D01*
X136140368Y-113077714D02*
X136187987Y-113030095D01*
X136187987Y-113030095D02*
X136283225Y-112982476D01*
X136283225Y-112982476D02*
X136521320Y-112982476D01*
X136521320Y-112982476D02*
X136616558Y-113030095D01*
X136616558Y-113030095D02*
X136664177Y-113077714D01*
X136664177Y-113077714D02*
X136711796Y-113172952D01*
X136711796Y-113172952D02*
X136711796Y-113458666D01*
X136711796Y-113458666D02*
X136664177Y-113553904D01*
X136664177Y-113553904D02*
X136616558Y-113601523D01*
%TO.C,TP7*%
X121166095Y-116283380D02*
X121737523Y-116283380D01*
X121451809Y-117283380D02*
X121451809Y-116283380D01*
X122070857Y-117283380D02*
X122070857Y-116283380D01*
X122070857Y-116283380D02*
X122451809Y-116283380D01*
X122451809Y-116283380D02*
X122547047Y-116331000D01*
X122547047Y-116331000D02*
X122594666Y-116378619D01*
X122594666Y-116378619D02*
X122642285Y-116473857D01*
X122642285Y-116473857D02*
X122642285Y-116616714D01*
X122642285Y-116616714D02*
X122594666Y-116711952D01*
X122594666Y-116711952D02*
X122547047Y-116759571D01*
X122547047Y-116759571D02*
X122451809Y-116807190D01*
X122451809Y-116807190D02*
X122070857Y-116807190D01*
X122975619Y-116283380D02*
X123642285Y-116283380D01*
X123642285Y-116283380D02*
X123213714Y-117283380D01*
%TO.C,BT1*%
X132310285Y-70455571D02*
X132453142Y-70503190D01*
X132453142Y-70503190D02*
X132500761Y-70550809D01*
X132500761Y-70550809D02*
X132548380Y-70646047D01*
X132548380Y-70646047D02*
X132548380Y-70788904D01*
X132548380Y-70788904D02*
X132500761Y-70884142D01*
X132500761Y-70884142D02*
X132453142Y-70931761D01*
X132453142Y-70931761D02*
X132357904Y-70979380D01*
X132357904Y-70979380D02*
X131976952Y-70979380D01*
X131976952Y-70979380D02*
X131976952Y-69979380D01*
X131976952Y-69979380D02*
X132310285Y-69979380D01*
X132310285Y-69979380D02*
X132405523Y-70027000D01*
X132405523Y-70027000D02*
X132453142Y-70074619D01*
X132453142Y-70074619D02*
X132500761Y-70169857D01*
X132500761Y-70169857D02*
X132500761Y-70265095D01*
X132500761Y-70265095D02*
X132453142Y-70360333D01*
X132453142Y-70360333D02*
X132405523Y-70407952D01*
X132405523Y-70407952D02*
X132310285Y-70455571D01*
X132310285Y-70455571D02*
X131976952Y-70455571D01*
X132834095Y-69979380D02*
X133405523Y-69979380D01*
X133119809Y-70979380D02*
X133119809Y-69979380D01*
X134262666Y-70979380D02*
X133691238Y-70979380D01*
X133976952Y-70979380D02*
X133976952Y-69979380D01*
X133976952Y-69979380D02*
X133881714Y-70122238D01*
X133881714Y-70122238D02*
X133786476Y-70217476D01*
X133786476Y-70217476D02*
X133691238Y-70265095D01*
%TO.C,TP3*%
X176538095Y-149103380D02*
X177109523Y-149103380D01*
X176823809Y-150103380D02*
X176823809Y-149103380D01*
X177442857Y-150103380D02*
X177442857Y-149103380D01*
X177442857Y-149103380D02*
X177823809Y-149103380D01*
X177823809Y-149103380D02*
X177919047Y-149151000D01*
X177919047Y-149151000D02*
X177966666Y-149198619D01*
X177966666Y-149198619D02*
X178014285Y-149293857D01*
X178014285Y-149293857D02*
X178014285Y-149436714D01*
X178014285Y-149436714D02*
X177966666Y-149531952D01*
X177966666Y-149531952D02*
X177919047Y-149579571D01*
X177919047Y-149579571D02*
X177823809Y-149627190D01*
X177823809Y-149627190D02*
X177442857Y-149627190D01*
X178347619Y-149103380D02*
X178966666Y-149103380D01*
X178966666Y-149103380D02*
X178633333Y-149484333D01*
X178633333Y-149484333D02*
X178776190Y-149484333D01*
X178776190Y-149484333D02*
X178871428Y-149531952D01*
X178871428Y-149531952D02*
X178919047Y-149579571D01*
X178919047Y-149579571D02*
X178966666Y-149674809D01*
X178966666Y-149674809D02*
X178966666Y-149912904D01*
X178966666Y-149912904D02*
X178919047Y-150008142D01*
X178919047Y-150008142D02*
X178871428Y-150055761D01*
X178871428Y-150055761D02*
X178776190Y-150103380D01*
X178776190Y-150103380D02*
X178490476Y-150103380D01*
X178490476Y-150103380D02*
X178395238Y-150055761D01*
X178395238Y-150055761D02*
X178347619Y-150008142D01*
%TO.C,TP2*%
X119134095Y-88651380D02*
X119705523Y-88651380D01*
X119419809Y-89651380D02*
X119419809Y-88651380D01*
X120038857Y-89651380D02*
X120038857Y-88651380D01*
X120038857Y-88651380D02*
X120419809Y-88651380D01*
X120419809Y-88651380D02*
X120515047Y-88699000D01*
X120515047Y-88699000D02*
X120562666Y-88746619D01*
X120562666Y-88746619D02*
X120610285Y-88841857D01*
X120610285Y-88841857D02*
X120610285Y-88984714D01*
X120610285Y-88984714D02*
X120562666Y-89079952D01*
X120562666Y-89079952D02*
X120515047Y-89127571D01*
X120515047Y-89127571D02*
X120419809Y-89175190D01*
X120419809Y-89175190D02*
X120038857Y-89175190D01*
X120991238Y-88746619D02*
X121038857Y-88699000D01*
X121038857Y-88699000D02*
X121134095Y-88651380D01*
X121134095Y-88651380D02*
X121372190Y-88651380D01*
X121372190Y-88651380D02*
X121467428Y-88699000D01*
X121467428Y-88699000D02*
X121515047Y-88746619D01*
X121515047Y-88746619D02*
X121562666Y-88841857D01*
X121562666Y-88841857D02*
X121562666Y-88937095D01*
X121562666Y-88937095D02*
X121515047Y-89079952D01*
X121515047Y-89079952D02*
X120943619Y-89651380D01*
X120943619Y-89651380D02*
X121562666Y-89651380D01*
%TO.C,R7*%
X136511380Y-83986666D02*
X136035190Y-84319999D01*
X136511380Y-84558094D02*
X135511380Y-84558094D01*
X135511380Y-84558094D02*
X135511380Y-84177142D01*
X135511380Y-84177142D02*
X135559000Y-84081904D01*
X135559000Y-84081904D02*
X135606619Y-84034285D01*
X135606619Y-84034285D02*
X135701857Y-83986666D01*
X135701857Y-83986666D02*
X135844714Y-83986666D01*
X135844714Y-83986666D02*
X135939952Y-84034285D01*
X135939952Y-84034285D02*
X135987571Y-84081904D01*
X135987571Y-84081904D02*
X136035190Y-84177142D01*
X136035190Y-84177142D02*
X136035190Y-84558094D01*
X135511380Y-83653332D02*
X135511380Y-82986666D01*
X135511380Y-82986666D02*
X136511380Y-83415237D01*
%TO.C,C3*%
X131721142Y-101225666D02*
X131768761Y-101273285D01*
X131768761Y-101273285D02*
X131816380Y-101416142D01*
X131816380Y-101416142D02*
X131816380Y-101511380D01*
X131816380Y-101511380D02*
X131768761Y-101654237D01*
X131768761Y-101654237D02*
X131673523Y-101749475D01*
X131673523Y-101749475D02*
X131578285Y-101797094D01*
X131578285Y-101797094D02*
X131387809Y-101844713D01*
X131387809Y-101844713D02*
X131244952Y-101844713D01*
X131244952Y-101844713D02*
X131054476Y-101797094D01*
X131054476Y-101797094D02*
X130959238Y-101749475D01*
X130959238Y-101749475D02*
X130864000Y-101654237D01*
X130864000Y-101654237D02*
X130816380Y-101511380D01*
X130816380Y-101511380D02*
X130816380Y-101416142D01*
X130816380Y-101416142D02*
X130864000Y-101273285D01*
X130864000Y-101273285D02*
X130911619Y-101225666D01*
X130816380Y-100892332D02*
X130816380Y-100273285D01*
X130816380Y-100273285D02*
X131197333Y-100606618D01*
X131197333Y-100606618D02*
X131197333Y-100463761D01*
X131197333Y-100463761D02*
X131244952Y-100368523D01*
X131244952Y-100368523D02*
X131292571Y-100320904D01*
X131292571Y-100320904D02*
X131387809Y-100273285D01*
X131387809Y-100273285D02*
X131625904Y-100273285D01*
X131625904Y-100273285D02*
X131721142Y-100320904D01*
X131721142Y-100320904D02*
X131768761Y-100368523D01*
X131768761Y-100368523D02*
X131816380Y-100463761D01*
X131816380Y-100463761D02*
X131816380Y-100749475D01*
X131816380Y-100749475D02*
X131768761Y-100844713D01*
X131768761Y-100844713D02*
X131721142Y-100892332D01*
%TO.C,U4*%
X146050095Y-146687380D02*
X146050095Y-147496904D01*
X146050095Y-147496904D02*
X146097714Y-147592142D01*
X146097714Y-147592142D02*
X146145333Y-147639761D01*
X146145333Y-147639761D02*
X146240571Y-147687380D01*
X146240571Y-147687380D02*
X146431047Y-147687380D01*
X146431047Y-147687380D02*
X146526285Y-147639761D01*
X146526285Y-147639761D02*
X146573904Y-147592142D01*
X146573904Y-147592142D02*
X146621523Y-147496904D01*
X146621523Y-147496904D02*
X146621523Y-146687380D01*
X147526285Y-147020714D02*
X147526285Y-147687380D01*
X147288190Y-146639761D02*
X147050095Y-147354047D01*
X147050095Y-147354047D02*
X147669142Y-147354047D01*
%TO.C,J4*%
X114982666Y-99233380D02*
X114982666Y-99947666D01*
X114982666Y-99947666D02*
X114935047Y-100090523D01*
X114935047Y-100090523D02*
X114839809Y-100185761D01*
X114839809Y-100185761D02*
X114696952Y-100233380D01*
X114696952Y-100233380D02*
X114601714Y-100233380D01*
X115887428Y-99566714D02*
X115887428Y-100233380D01*
X115649333Y-99185761D02*
X115411238Y-99900047D01*
X115411238Y-99900047D02*
X116030285Y-99900047D01*
%TO.C,C4*%
X131721142Y-95195666D02*
X131768761Y-95243285D01*
X131768761Y-95243285D02*
X131816380Y-95386142D01*
X131816380Y-95386142D02*
X131816380Y-95481380D01*
X131816380Y-95481380D02*
X131768761Y-95624237D01*
X131768761Y-95624237D02*
X131673523Y-95719475D01*
X131673523Y-95719475D02*
X131578285Y-95767094D01*
X131578285Y-95767094D02*
X131387809Y-95814713D01*
X131387809Y-95814713D02*
X131244952Y-95814713D01*
X131244952Y-95814713D02*
X131054476Y-95767094D01*
X131054476Y-95767094D02*
X130959238Y-95719475D01*
X130959238Y-95719475D02*
X130864000Y-95624237D01*
X130864000Y-95624237D02*
X130816380Y-95481380D01*
X130816380Y-95481380D02*
X130816380Y-95386142D01*
X130816380Y-95386142D02*
X130864000Y-95243285D01*
X130864000Y-95243285D02*
X130911619Y-95195666D01*
X131149714Y-94338523D02*
X131816380Y-94338523D01*
X130768761Y-94576618D02*
X131483047Y-94814713D01*
X131483047Y-94814713D02*
X131483047Y-94195666D01*
%TO.C,TP4*%
X115578095Y-110187380D02*
X116149523Y-110187380D01*
X115863809Y-111187380D02*
X115863809Y-110187380D01*
X116482857Y-111187380D02*
X116482857Y-110187380D01*
X116482857Y-110187380D02*
X116863809Y-110187380D01*
X116863809Y-110187380D02*
X116959047Y-110235000D01*
X116959047Y-110235000D02*
X117006666Y-110282619D01*
X117006666Y-110282619D02*
X117054285Y-110377857D01*
X117054285Y-110377857D02*
X117054285Y-110520714D01*
X117054285Y-110520714D02*
X117006666Y-110615952D01*
X117006666Y-110615952D02*
X116959047Y-110663571D01*
X116959047Y-110663571D02*
X116863809Y-110711190D01*
X116863809Y-110711190D02*
X116482857Y-110711190D01*
X117911428Y-110520714D02*
X117911428Y-111187380D01*
X117673333Y-110139761D02*
X117435238Y-110854047D01*
X117435238Y-110854047D02*
X118054285Y-110854047D01*
%TO.C,R6*%
X124817333Y-84313380D02*
X124484000Y-83837190D01*
X124245905Y-84313380D02*
X124245905Y-83313380D01*
X124245905Y-83313380D02*
X124626857Y-83313380D01*
X124626857Y-83313380D02*
X124722095Y-83361000D01*
X124722095Y-83361000D02*
X124769714Y-83408619D01*
X124769714Y-83408619D02*
X124817333Y-83503857D01*
X124817333Y-83503857D02*
X124817333Y-83646714D01*
X124817333Y-83646714D02*
X124769714Y-83741952D01*
X124769714Y-83741952D02*
X124722095Y-83789571D01*
X124722095Y-83789571D02*
X124626857Y-83837190D01*
X124626857Y-83837190D02*
X124245905Y-83837190D01*
X125674476Y-83313380D02*
X125484000Y-83313380D01*
X125484000Y-83313380D02*
X125388762Y-83361000D01*
X125388762Y-83361000D02*
X125341143Y-83408619D01*
X125341143Y-83408619D02*
X125245905Y-83551476D01*
X125245905Y-83551476D02*
X125198286Y-83741952D01*
X125198286Y-83741952D02*
X125198286Y-84122904D01*
X125198286Y-84122904D02*
X125245905Y-84218142D01*
X125245905Y-84218142D02*
X125293524Y-84265761D01*
X125293524Y-84265761D02*
X125388762Y-84313380D01*
X125388762Y-84313380D02*
X125579238Y-84313380D01*
X125579238Y-84313380D02*
X125674476Y-84265761D01*
X125674476Y-84265761D02*
X125722095Y-84218142D01*
X125722095Y-84218142D02*
X125769714Y-84122904D01*
X125769714Y-84122904D02*
X125769714Y-83884809D01*
X125769714Y-83884809D02*
X125722095Y-83789571D01*
X125722095Y-83789571D02*
X125674476Y-83741952D01*
X125674476Y-83741952D02*
X125579238Y-83694333D01*
X125579238Y-83694333D02*
X125388762Y-83694333D01*
X125388762Y-83694333D02*
X125293524Y-83741952D01*
X125293524Y-83741952D02*
X125245905Y-83789571D01*
X125245905Y-83789571D02*
X125198286Y-83884809D01*
%TO.C,R10*%
X115175380Y-108814857D02*
X114699190Y-109148190D01*
X115175380Y-109386285D02*
X114175380Y-109386285D01*
X114175380Y-109386285D02*
X114175380Y-109005333D01*
X114175380Y-109005333D02*
X114223000Y-108910095D01*
X114223000Y-108910095D02*
X114270619Y-108862476D01*
X114270619Y-108862476D02*
X114365857Y-108814857D01*
X114365857Y-108814857D02*
X114508714Y-108814857D01*
X114508714Y-108814857D02*
X114603952Y-108862476D01*
X114603952Y-108862476D02*
X114651571Y-108910095D01*
X114651571Y-108910095D02*
X114699190Y-109005333D01*
X114699190Y-109005333D02*
X114699190Y-109386285D01*
X115175380Y-107862476D02*
X115175380Y-108433904D01*
X115175380Y-108148190D02*
X114175380Y-108148190D01*
X114175380Y-108148190D02*
X114318238Y-108243428D01*
X114318238Y-108243428D02*
X114413476Y-108338666D01*
X114413476Y-108338666D02*
X114461095Y-108433904D01*
X114175380Y-107243428D02*
X114175380Y-107148190D01*
X114175380Y-107148190D02*
X114223000Y-107052952D01*
X114223000Y-107052952D02*
X114270619Y-107005333D01*
X114270619Y-107005333D02*
X114365857Y-106957714D01*
X114365857Y-106957714D02*
X114556333Y-106910095D01*
X114556333Y-106910095D02*
X114794428Y-106910095D01*
X114794428Y-106910095D02*
X114984904Y-106957714D01*
X114984904Y-106957714D02*
X115080142Y-107005333D01*
X115080142Y-107005333D02*
X115127761Y-107052952D01*
X115127761Y-107052952D02*
X115175380Y-107148190D01*
X115175380Y-107148190D02*
X115175380Y-107243428D01*
X115175380Y-107243428D02*
X115127761Y-107338666D01*
X115127761Y-107338666D02*
X115080142Y-107386285D01*
X115080142Y-107386285D02*
X114984904Y-107433904D01*
X114984904Y-107433904D02*
X114794428Y-107481523D01*
X114794428Y-107481523D02*
X114556333Y-107481523D01*
X114556333Y-107481523D02*
X114365857Y-107433904D01*
X114365857Y-107433904D02*
X114270619Y-107386285D01*
X114270619Y-107386285D02*
X114223000Y-107338666D01*
X114223000Y-107338666D02*
X114175380Y-107243428D01*
%TO.C,R3*%
X152767380Y-149010666D02*
X152291190Y-149343999D01*
X152767380Y-149582094D02*
X151767380Y-149582094D01*
X151767380Y-149582094D02*
X151767380Y-149201142D01*
X151767380Y-149201142D02*
X151815000Y-149105904D01*
X151815000Y-149105904D02*
X151862619Y-149058285D01*
X151862619Y-149058285D02*
X151957857Y-149010666D01*
X151957857Y-149010666D02*
X152100714Y-149010666D01*
X152100714Y-149010666D02*
X152195952Y-149058285D01*
X152195952Y-149058285D02*
X152243571Y-149105904D01*
X152243571Y-149105904D02*
X152291190Y-149201142D01*
X152291190Y-149201142D02*
X152291190Y-149582094D01*
X151767380Y-148677332D02*
X151767380Y-148058285D01*
X151767380Y-148058285D02*
X152148333Y-148391618D01*
X152148333Y-148391618D02*
X152148333Y-148248761D01*
X152148333Y-148248761D02*
X152195952Y-148153523D01*
X152195952Y-148153523D02*
X152243571Y-148105904D01*
X152243571Y-148105904D02*
X152338809Y-148058285D01*
X152338809Y-148058285D02*
X152576904Y-148058285D01*
X152576904Y-148058285D02*
X152672142Y-148105904D01*
X152672142Y-148105904D02*
X152719761Y-148153523D01*
X152719761Y-148153523D02*
X152767380Y-148248761D01*
X152767380Y-148248761D02*
X152767380Y-148534475D01*
X152767380Y-148534475D02*
X152719761Y-148629713D01*
X152719761Y-148629713D02*
X152672142Y-148677332D01*
%TO.C,TP8*%
X106942095Y-114759380D02*
X107513523Y-114759380D01*
X107227809Y-115759380D02*
X107227809Y-114759380D01*
X107846857Y-115759380D02*
X107846857Y-114759380D01*
X107846857Y-114759380D02*
X108227809Y-114759380D01*
X108227809Y-114759380D02*
X108323047Y-114807000D01*
X108323047Y-114807000D02*
X108370666Y-114854619D01*
X108370666Y-114854619D02*
X108418285Y-114949857D01*
X108418285Y-114949857D02*
X108418285Y-115092714D01*
X108418285Y-115092714D02*
X108370666Y-115187952D01*
X108370666Y-115187952D02*
X108323047Y-115235571D01*
X108323047Y-115235571D02*
X108227809Y-115283190D01*
X108227809Y-115283190D02*
X107846857Y-115283190D01*
X108989714Y-115187952D02*
X108894476Y-115140333D01*
X108894476Y-115140333D02*
X108846857Y-115092714D01*
X108846857Y-115092714D02*
X108799238Y-114997476D01*
X108799238Y-114997476D02*
X108799238Y-114949857D01*
X108799238Y-114949857D02*
X108846857Y-114854619D01*
X108846857Y-114854619D02*
X108894476Y-114807000D01*
X108894476Y-114807000D02*
X108989714Y-114759380D01*
X108989714Y-114759380D02*
X109180190Y-114759380D01*
X109180190Y-114759380D02*
X109275428Y-114807000D01*
X109275428Y-114807000D02*
X109323047Y-114854619D01*
X109323047Y-114854619D02*
X109370666Y-114949857D01*
X109370666Y-114949857D02*
X109370666Y-114997476D01*
X109370666Y-114997476D02*
X109323047Y-115092714D01*
X109323047Y-115092714D02*
X109275428Y-115140333D01*
X109275428Y-115140333D02*
X109180190Y-115187952D01*
X109180190Y-115187952D02*
X108989714Y-115187952D01*
X108989714Y-115187952D02*
X108894476Y-115235571D01*
X108894476Y-115235571D02*
X108846857Y-115283190D01*
X108846857Y-115283190D02*
X108799238Y-115378428D01*
X108799238Y-115378428D02*
X108799238Y-115568904D01*
X108799238Y-115568904D02*
X108846857Y-115664142D01*
X108846857Y-115664142D02*
X108894476Y-115711761D01*
X108894476Y-115711761D02*
X108989714Y-115759380D01*
X108989714Y-115759380D02*
X109180190Y-115759380D01*
X109180190Y-115759380D02*
X109275428Y-115711761D01*
X109275428Y-115711761D02*
X109323047Y-115664142D01*
X109323047Y-115664142D02*
X109370666Y-115568904D01*
X109370666Y-115568904D02*
X109370666Y-115378428D01*
X109370666Y-115378428D02*
X109323047Y-115283190D01*
X109323047Y-115283190D02*
X109275428Y-115235571D01*
X109275428Y-115235571D02*
X109180190Y-115187952D01*
%TO.C,U2*%
X164338095Y-124181380D02*
X164338095Y-124990904D01*
X164338095Y-124990904D02*
X164385714Y-125086142D01*
X164385714Y-125086142D02*
X164433333Y-125133761D01*
X164433333Y-125133761D02*
X164528571Y-125181380D01*
X164528571Y-125181380D02*
X164719047Y-125181380D01*
X164719047Y-125181380D02*
X164814285Y-125133761D01*
X164814285Y-125133761D02*
X164861904Y-125086142D01*
X164861904Y-125086142D02*
X164909523Y-124990904D01*
X164909523Y-124990904D02*
X164909523Y-124181380D01*
X165338095Y-124276619D02*
X165385714Y-124229000D01*
X165385714Y-124229000D02*
X165480952Y-124181380D01*
X165480952Y-124181380D02*
X165719047Y-124181380D01*
X165719047Y-124181380D02*
X165814285Y-124229000D01*
X165814285Y-124229000D02*
X165861904Y-124276619D01*
X165861904Y-124276619D02*
X165909523Y-124371857D01*
X165909523Y-124371857D02*
X165909523Y-124467095D01*
X165909523Y-124467095D02*
X165861904Y-124609952D01*
X165861904Y-124609952D02*
X165290476Y-125181380D01*
X165290476Y-125181380D02*
X165909523Y-125181380D01*
%TO.C,C6*%
X161308142Y-102782666D02*
X161355761Y-102830285D01*
X161355761Y-102830285D02*
X161403380Y-102973142D01*
X161403380Y-102973142D02*
X161403380Y-103068380D01*
X161403380Y-103068380D02*
X161355761Y-103211237D01*
X161355761Y-103211237D02*
X161260523Y-103306475D01*
X161260523Y-103306475D02*
X161165285Y-103354094D01*
X161165285Y-103354094D02*
X160974809Y-103401713D01*
X160974809Y-103401713D02*
X160831952Y-103401713D01*
X160831952Y-103401713D02*
X160641476Y-103354094D01*
X160641476Y-103354094D02*
X160546238Y-103306475D01*
X160546238Y-103306475D02*
X160451000Y-103211237D01*
X160451000Y-103211237D02*
X160403380Y-103068380D01*
X160403380Y-103068380D02*
X160403380Y-102973142D01*
X160403380Y-102973142D02*
X160451000Y-102830285D01*
X160451000Y-102830285D02*
X160498619Y-102782666D01*
X160403380Y-101925523D02*
X160403380Y-102115999D01*
X160403380Y-102115999D02*
X160451000Y-102211237D01*
X160451000Y-102211237D02*
X160498619Y-102258856D01*
X160498619Y-102258856D02*
X160641476Y-102354094D01*
X160641476Y-102354094D02*
X160831952Y-102401713D01*
X160831952Y-102401713D02*
X161212904Y-102401713D01*
X161212904Y-102401713D02*
X161308142Y-102354094D01*
X161308142Y-102354094D02*
X161355761Y-102306475D01*
X161355761Y-102306475D02*
X161403380Y-102211237D01*
X161403380Y-102211237D02*
X161403380Y-102020761D01*
X161403380Y-102020761D02*
X161355761Y-101925523D01*
X161355761Y-101925523D02*
X161308142Y-101877904D01*
X161308142Y-101877904D02*
X161212904Y-101830285D01*
X161212904Y-101830285D02*
X160974809Y-101830285D01*
X160974809Y-101830285D02*
X160879571Y-101877904D01*
X160879571Y-101877904D02*
X160831952Y-101925523D01*
X160831952Y-101925523D02*
X160784333Y-102020761D01*
X160784333Y-102020761D02*
X160784333Y-102211237D01*
X160784333Y-102211237D02*
X160831952Y-102306475D01*
X160831952Y-102306475D02*
X160879571Y-102354094D01*
X160879571Y-102354094D02*
X160974809Y-102401713D01*
D14*
%TO.C,U7*%
X171744000Y-141126000D02*
X172884000Y-141126000D01*
X172884000Y-140896000D02*
X172884000Y-141126000D01*
X172884000Y-140896000D02*
X175604000Y-140896000D01*
X172884000Y-145616000D02*
X172884000Y-145386000D01*
X175604000Y-140896000D02*
X175604000Y-142206000D01*
X175604000Y-144306000D02*
X175604000Y-145616000D01*
X175604000Y-145616000D02*
X172884000Y-145616000D01*
%TO.C,R9*%
X148109000Y-113527064D02*
X148109000Y-113072936D01*
X149579000Y-113527064D02*
X149579000Y-113072936D01*
%TO.C,R4*%
X154167064Y-153643000D02*
X153712936Y-153643000D01*
X154167064Y-152173000D02*
X153712936Y-152173000D01*
%TO.C,C8*%
X179128748Y-140997000D02*
X179651252Y-140997000D01*
X179128748Y-142467000D02*
X179651252Y-142467000D01*
%TO.C,J3*%
X137982000Y-147006000D02*
X137982000Y-148336000D01*
X136652000Y-147006000D02*
X137982000Y-147006000D01*
X135382000Y-147006000D02*
X132782000Y-147006000D01*
X135382000Y-147006000D02*
X135382000Y-149666000D01*
X132782000Y-147006000D02*
X132782000Y-149666000D01*
X135382000Y-149666000D02*
X132782000Y-149666000D01*
%TO.C,R11*%
X118137000Y-104875064D02*
X118137000Y-104420936D01*
X119607000Y-104875064D02*
X119607000Y-104420936D01*
%TO.C,C10*%
X167921000Y-142435252D02*
X167921000Y-141912748D01*
X169391000Y-142435252D02*
X169391000Y-141912748D01*
%TO.C,C1*%
X166809248Y-114011000D02*
X167331752Y-114011000D01*
X166809248Y-115481000D02*
X167331752Y-115481000D01*
%TO.C,C13*%
X117660748Y-117629000D02*
X118183252Y-117629000D01*
X117660748Y-119099000D02*
X118183252Y-119099000D01*
%TO.C,J5*%
X121098000Y-142683000D02*
X122428000Y-142683000D01*
X121098000Y-144013000D02*
X121098000Y-142683000D01*
X121098000Y-145283000D02*
X121098000Y-147883000D01*
X121098000Y-145283000D02*
X123758000Y-145283000D01*
X121098000Y-147883000D02*
X123758000Y-147883000D01*
X123758000Y-145283000D02*
X123758000Y-147883000D01*
%TO.C,TP1*%
X128082000Y-145862000D02*
X129982000Y-145862000D01*
X128082000Y-147762000D02*
X128082000Y-145862000D01*
X129982000Y-145862000D02*
X129982000Y-147762000D01*
X129982000Y-147762000D02*
X128082000Y-147762000D01*
%TO.C,TP10*%
X159320000Y-117664000D02*
X160720000Y-117664000D01*
X159320000Y-119064000D02*
X159320000Y-117664000D01*
X160720000Y-117664000D02*
X160720000Y-119064000D01*
X160720000Y-119064000D02*
X159320000Y-119064000D01*
%TO.C,C2*%
X166870748Y-117121000D02*
X167393252Y-117121000D01*
X166870748Y-118591000D02*
X167393252Y-118591000D01*
%TO.C,D1*%
X171867000Y-117912000D02*
X171867000Y-119832000D01*
X171867000Y-119832000D02*
X174727000Y-119832000D01*
X174727000Y-117912000D02*
X171867000Y-117912000D01*
D15*
%TO.C,U8*%
X112175118Y-99749173D02*
X112175118Y-99726033D01*
X112175118Y-99749173D02*
X112175118Y-87747649D01*
X106120000Y-99726033D02*
X106120000Y-87747649D01*
X112175118Y-99726033D02*
X106120000Y-99726033D01*
D16*
X110579995Y-96896011D02*
X112175118Y-96896011D01*
X110579995Y-95626008D02*
X110579995Y-96896011D01*
X112175118Y-95626008D02*
X110579995Y-95626008D01*
X110579995Y-94356005D02*
X112175118Y-94356005D01*
X110579995Y-93086003D02*
X110579995Y-94356005D01*
X112175118Y-93086003D02*
X110579995Y-93086003D01*
X110579995Y-91816000D02*
X112175118Y-91816000D01*
X110579995Y-90545998D02*
X110579995Y-91816000D01*
X112175118Y-90545998D02*
X110579995Y-90545998D01*
D15*
X106120000Y-87747649D02*
X112175118Y-87747649D01*
D17*
X112199934Y-99726008D02*
G75*
G03*
X112199934Y-99726008I-29972J0D01*
G01*
D14*
%TO.C,R5*%
X131815064Y-81507000D02*
X131360936Y-81507000D01*
X131815064Y-80037000D02*
X131360936Y-80037000D01*
%TO.C,C12*%
X174017000Y-80083252D02*
X174017000Y-79560748D01*
X175487000Y-80083252D02*
X175487000Y-79560748D01*
D15*
%TO.C,U5*%
X130948000Y-86385911D02*
X129147975Y-86385911D01*
X130948000Y-83285886D02*
X129147975Y-83285886D01*
X128777997Y-83184997D02*
G75*
G03*
X128777997Y-83184997I-127000J0D01*
G01*
D17*
X128677973Y-83400923D02*
G75*
G03*
X128677973Y-83400923I-29998J0D01*
G01*
D14*
%TO.C,TP5*%
X107504000Y-104964000D02*
X108904000Y-104964000D01*
X107504000Y-106364000D02*
X107504000Y-104964000D01*
X108904000Y-104964000D02*
X108904000Y-106364000D01*
X108904000Y-106364000D02*
X107504000Y-106364000D01*
D15*
%TO.C,S1*%
X163116000Y-86998914D02*
X163116000Y-84705086D01*
X163711885Y-82852000D02*
X168520115Y-82852000D01*
X168520115Y-88852000D02*
X163711885Y-88852000D01*
X169116000Y-84705086D02*
X169116000Y-86998914D01*
D17*
X162445947Y-82852000D02*
G75*
G03*
X162445947Y-82852000I-29972J0D01*
G01*
D15*
X164763193Y-84051898D02*
G75*
G03*
X164763193Y-84051898I-447295J0D01*
G01*
X164763193Y-87652102D02*
G75*
G03*
X164763193Y-87652102I-447295J0D01*
G01*
X167916102Y-85852000D02*
G75*
G03*
X167916102Y-85852000I-1800102J0D01*
G01*
X168363396Y-84052152D02*
G75*
G03*
X168363396Y-84052152I-447294J0D01*
G01*
X168363396Y-87652102D02*
G75*
G03*
X168363396Y-87652102I-447294J0D01*
G01*
D14*
%TO.C,R12*%
X115543000Y-134916936D02*
X115543000Y-135371064D01*
X114073000Y-134916936D02*
X114073000Y-135371064D01*
%TO.C,J1*%
X177683000Y-128967000D02*
X179013000Y-128967000D01*
X177683000Y-130297000D02*
X177683000Y-128967000D01*
X177683000Y-131567000D02*
X177683000Y-134167000D01*
X177683000Y-131567000D02*
X180343000Y-131567000D01*
X177683000Y-134167000D02*
X180343000Y-134167000D01*
X180343000Y-131567000D02*
X180343000Y-134167000D01*
D15*
%TO.C,TH1*%
X117308000Y-138988000D02*
X117308000Y-151588000D01*
X112308000Y-138988000D02*
X117308000Y-138988000D01*
X117308000Y-151588000D02*
X112308000Y-151588000D01*
X112308000Y-151588000D02*
X112308000Y-138988000D01*
D17*
X112210997Y-138861000D02*
G75*
G03*
X112210997Y-138861000I-29997J0D01*
G01*
D14*
%TO.C,C5*%
X159739000Y-106992748D02*
X159739000Y-107515252D01*
X158269000Y-106992748D02*
X158269000Y-107515252D01*
%TO.C,TP9*%
X159320000Y-113600000D02*
X160720000Y-113600000D01*
X159320000Y-115000000D02*
X159320000Y-113600000D01*
X160720000Y-113600000D02*
X160720000Y-115000000D01*
X160720000Y-115000000D02*
X159320000Y-115000000D01*
D15*
%TO.C,U6*%
X122435949Y-86319873D02*
X120635924Y-86319873D01*
X122435949Y-83219848D02*
X120635924Y-83219848D01*
X120265946Y-83118959D02*
G75*
G03*
X120265946Y-83118959I-127000J0D01*
G01*
D17*
X120165922Y-83334885D02*
G75*
G03*
X120165922Y-83334885I-29998J0D01*
G01*
D14*
%TO.C,J8*%
X107502000Y-141538000D02*
X106172000Y-141538000D01*
X107502000Y-140208000D02*
X107502000Y-141538000D01*
X107502000Y-138938000D02*
X107502000Y-121098000D01*
X107502000Y-138938000D02*
X104842000Y-138938000D01*
X107502000Y-121098000D02*
X104842000Y-121098000D01*
X104842000Y-138938000D02*
X104842000Y-121098000D01*
%TO.C,D4*%
X156627000Y-149916000D02*
X156627000Y-151836000D01*
X156627000Y-151836000D02*
X159487000Y-151836000D01*
X159487000Y-149916000D02*
X156627000Y-149916000D01*
%TO.C,R8*%
X143537000Y-113527064D02*
X143537000Y-113072936D01*
X145007000Y-113527064D02*
X145007000Y-113072936D01*
D15*
%TO.C,USB1*%
X161848005Y-150783171D02*
X162576733Y-150786066D01*
X161857987Y-156353173D02*
X161862534Y-155413422D01*
X161872999Y-152773696D02*
X161876707Y-152565924D01*
X161872999Y-152773696D02*
X161908000Y-150813168D01*
X161875285Y-152773341D02*
X161876123Y-152598766D01*
X162158013Y-155833158D02*
X161857987Y-156353173D01*
X162608000Y-155813168D02*
X162158013Y-155833158D01*
X162608000Y-155813168D02*
X162608000Y-156313168D01*
X162608000Y-155813168D02*
X168708000Y-155813168D01*
X162608000Y-156313168D02*
X168697992Y-156343166D01*
X163794411Y-150790892D02*
X163876885Y-150791222D01*
X167339140Y-150804964D02*
X167406984Y-150805218D01*
X168663804Y-150810222D02*
X169408000Y-150813168D01*
X168697992Y-156343166D02*
X168708000Y-155813168D01*
X168708000Y-155813168D02*
X169008000Y-155813168D01*
X169008000Y-155813168D02*
X169408000Y-156313168D01*
X169408000Y-150813168D02*
X169408000Y-152786320D01*
X169408000Y-156313168D02*
X169408000Y-155402475D01*
D17*
X161667944Y-150732218D02*
G75*
G03*
X161667944Y-150732218I-29997J0D01*
G01*
D14*
%TO.C,C9*%
X129767000Y-151122748D02*
X129767000Y-151645252D01*
X128297000Y-151122748D02*
X128297000Y-151645252D01*
%TO.C,R2*%
X171985000Y-124671064D02*
X171985000Y-124216936D01*
X173455000Y-124671064D02*
X173455000Y-124216936D01*
%TO.C,C7*%
X179041248Y-137441000D02*
X179563752Y-137441000D01*
X179041248Y-138911000D02*
X179563752Y-138911000D01*
%TO.C,J6*%
X161738000Y-91141000D02*
X163068000Y-91141000D01*
X161738000Y-92471000D02*
X161738000Y-91141000D01*
X161738000Y-93741000D02*
X161738000Y-98881000D01*
X161738000Y-93741000D02*
X164398000Y-93741000D01*
X161738000Y-98881000D02*
X164398000Y-98881000D01*
X164398000Y-93741000D02*
X164398000Y-98881000D01*
%TO.C,D3*%
X160347000Y-147772000D02*
X160347000Y-145852000D01*
X160347000Y-145852000D02*
X157487000Y-145852000D01*
X157487000Y-147772000D02*
X160347000Y-147772000D01*
%TO.C,J2*%
X131181000Y-143819000D02*
X129851000Y-143819000D01*
X131181000Y-142489000D02*
X131181000Y-143819000D01*
X131181000Y-141219000D02*
X131181000Y-118299000D01*
X131181000Y-141219000D02*
X128521000Y-141219000D01*
X131181000Y-118299000D02*
X128521000Y-118299000D01*
X128521000Y-141219000D02*
X128521000Y-118299000D01*
%TO.C,R1*%
X171985000Y-129751064D02*
X171985000Y-129296936D01*
X173455000Y-129751064D02*
X173455000Y-129296936D01*
%TO.C,D2*%
X171867000Y-114356000D02*
X171867000Y-116276000D01*
X171867000Y-116276000D02*
X174727000Y-116276000D01*
X174727000Y-114356000D02*
X171867000Y-114356000D01*
%TO.C,C11*%
X167921000Y-146499252D02*
X167921000Y-145976748D01*
X169391000Y-146499252D02*
X169391000Y-145976748D01*
%TO.C,TP6*%
X107504000Y-110044000D02*
X108904000Y-110044000D01*
X107504000Y-111444000D02*
X107504000Y-110044000D01*
X108904000Y-110044000D02*
X108904000Y-111444000D01*
X108904000Y-111444000D02*
X107504000Y-111444000D01*
D18*
%TO.C,U3*%
X133093412Y-111265787D02*
X133093412Y-116318213D01*
X130050588Y-111265787D02*
X133093412Y-111265787D01*
X133093412Y-116318213D02*
X130050588Y-116318213D01*
X130050588Y-116318213D02*
X130050588Y-111265787D01*
D19*
X128949698Y-111140489D02*
G75*
G03*
X128949698Y-111140489I-150114J0D01*
G01*
D17*
X128601972Y-111341911D02*
G75*
G03*
X128601972Y-111341911I-29972J0D01*
G01*
D19*
X130953000Y-111886996D02*
G75*
G03*
X130953000Y-111886996I-150114J0D01*
G01*
D14*
%TO.C,TP7*%
X121728000Y-117664000D02*
X123128000Y-117664000D01*
X121728000Y-119064000D02*
X121728000Y-117664000D01*
X123128000Y-117664000D02*
X123128000Y-119064000D01*
X123128000Y-119064000D02*
X121728000Y-119064000D01*
D15*
%TO.C,BT1*%
X95402240Y-78930521D02*
X172491394Y-78930521D01*
X172491394Y-78930521D02*
X172491394Y-58229479D01*
X104990759Y-68580000D02*
X107276764Y-68580000D01*
X160616870Y-68580000D02*
X162902875Y-68580000D01*
X106133761Y-67436998D02*
X106133761Y-69723002D01*
X95402240Y-58229479D02*
X95402240Y-78930521D01*
X172491394Y-58229479D02*
X95402240Y-58229479D01*
X107733964Y-68580000D02*
G75*
G03*
X107733964Y-68580000I-1600203J0D01*
G01*
X163360076Y-68580000D02*
G75*
G03*
X163360076Y-68580000I-1600203J0D01*
G01*
D17*
X176991775Y-58229987D02*
G75*
G03*
X176991775Y-58229987I-29972J0D01*
G01*
D14*
%TO.C,TP3*%
X176850000Y-150434000D02*
X178750000Y-150434000D01*
X176850000Y-152334000D02*
X176850000Y-150434000D01*
X178750000Y-150434000D02*
X178750000Y-152334000D01*
X178750000Y-152334000D02*
X176850000Y-152334000D01*
%TO.C,J7*%
X156464000Y-82550000D02*
X137414000Y-82550000D01*
X156464000Y-82550000D02*
X156464000Y-143510000D01*
X156464000Y-143510000D02*
X137414000Y-143510000D01*
X137414000Y-143510000D02*
X137414000Y-82550000D01*
%TO.C,TP2*%
X119446000Y-89982000D02*
X121346000Y-89982000D01*
X119446000Y-91882000D02*
X119446000Y-89982000D01*
X121346000Y-89982000D02*
X121346000Y-91882000D01*
X121346000Y-91882000D02*
X119446000Y-91882000D01*
%TO.C,R7*%
X134847000Y-83576936D02*
X134847000Y-84031064D01*
X133377000Y-83576936D02*
X133377000Y-84031064D01*
%TO.C,C3*%
X132394000Y-101320252D02*
X132394000Y-100797748D01*
X133864000Y-101320252D02*
X133864000Y-100797748D01*
D15*
%TO.C,U4*%
X148862038Y-148326089D02*
X148862038Y-153426165D01*
X147612102Y-148326089D02*
X148862038Y-148326089D01*
X146011898Y-148326089D02*
X144761962Y-148326089D01*
X148862038Y-153425911D02*
X144761962Y-153425911D01*
X144761962Y-153425911D02*
X144761962Y-148325835D01*
X146011899Y-148376127D02*
G75*
G03*
X147612101Y-148376127I800101J375289D01*
G01*
X144482053Y-147846028D02*
G75*
G03*
X144482053Y-147846028I-170180J0D01*
G01*
D17*
X143892010Y-148421847D02*
G75*
G03*
X143892010Y-148421847I-29972J0D01*
G01*
D14*
%TO.C,J4*%
X116646000Y-98866000D02*
X115316000Y-98866000D01*
X116646000Y-97536000D02*
X116646000Y-98866000D01*
X116646000Y-96266000D02*
X116646000Y-88586000D01*
X116646000Y-96266000D02*
X113986000Y-96266000D01*
X116646000Y-88586000D02*
X113986000Y-88586000D01*
X113986000Y-96266000D02*
X113986000Y-88586000D01*
%TO.C,C4*%
X132394000Y-95290252D02*
X132394000Y-94767748D01*
X133864000Y-95290252D02*
X133864000Y-94767748D01*
%TO.C,TP4*%
X116140000Y-111568000D02*
X117540000Y-111568000D01*
X116140000Y-112968000D02*
X116140000Y-111568000D01*
X117540000Y-111568000D02*
X117540000Y-112968000D01*
X117540000Y-112968000D02*
X116140000Y-112968000D01*
%TO.C,R6*%
X125211064Y-83031000D02*
X124756936Y-83031000D01*
X125211064Y-81561000D02*
X124756936Y-81561000D01*
%TO.C,Y1*%
X130058000Y-89334500D02*
X124958000Y-89334500D01*
X124958000Y-89334500D02*
X124958000Y-105309500D01*
X130058000Y-105309500D02*
X130058000Y-89334500D01*
%TO.C,R10*%
X114073000Y-104859064D02*
X114073000Y-104404936D01*
X115543000Y-104859064D02*
X115543000Y-104404936D01*
%TO.C,R3*%
X154659000Y-149140936D02*
X154659000Y-149595064D01*
X153189000Y-149140936D02*
X153189000Y-149595064D01*
%TO.C,TP8*%
X107504000Y-116140000D02*
X108904000Y-116140000D01*
X107504000Y-117540000D02*
X107504000Y-116140000D01*
X108904000Y-116140000D02*
X108904000Y-117540000D01*
X108904000Y-117540000D02*
X107504000Y-117540000D01*
D12*
%TO.C,U2*%
X162225000Y-125739000D02*
X162225000Y-126314000D01*
X162225000Y-125739000D02*
X167975000Y-125739000D01*
X162225000Y-126314000D02*
X160625000Y-126314000D01*
X162225000Y-136389000D02*
X162225000Y-135739000D01*
X162225000Y-136389000D02*
X167975000Y-136389000D01*
X167975000Y-125739000D02*
X167975000Y-126389000D01*
X167975000Y-136389000D02*
X167975000Y-135739000D01*
D14*
%TO.C,C6*%
X158269000Y-102943252D02*
X158269000Y-102420748D01*
X159739000Y-102943252D02*
X159739000Y-102420748D01*
%TD*%
M02*
